<?xml version="1.0" encoding="UTF-8" standalone="no"?>
<!-- Created with Inkscape (http://www.inkscape.org/) -->

<svg
   xmlns:dc="http://purl.org/dc/elements/1.1/"
   xmlns:cc="http://creativecommons.org/ns#"
   xmlns:rdf="http://www.w3.org/1999/02/22-rdf-syntax-ns#"
   xmlns:svg="http://www.w3.org/2000/svg"
   xmlns="http://www.w3.org/2000/svg"
   xmlns:sodipodi="http://sodipodi.sourceforge.net/DTD/sodipodi-0.dtd"
   xmlns:inkscape="http://www.inkscape.org/namespaces/inkscape"
   width="510"
   height="390.26999"
   id="svg3050"
   version="1.1"
   inkscape:version="0.48.1 "
   sodipodi:docname="Double_Clef_FM_(III).svg">
  <defs
     id="defs3052" />
  <sodipodi:namedview
     id="base"
     pagecolor="#ffffff"
     bordercolor="#666666"
     borderopacity="1.0"
     inkscape:pageopacity="0.0"
     inkscape:pageshadow="2"
     inkscape:zoom="2.0327761"
     inkscape:cx="255.00001"
     inkscape:cy="195.13497"
     inkscape:document-units="px"
     inkscape:current-layer="layer1"
     showgrid="false"
     inkscape:window-width="1680"
     inkscape:window-height="990"
     inkscape:window-x="-4"
     inkscape:window-y="-4"
     inkscape:window-maximized="1"
     showguides="true"
     inkscape:guide-bbox="true"
     fit-margin-top="0"
     fit-margin-left="0"
     fit-margin-right="0"
     fit-margin-bottom="0" />
  <metadata
     id="metadata3055">
    <rdf:RDF>
      <cc:Work
         rdf:about="">
        <dc:format>image/svg+xml</dc:format>
        <dc:type
           rdf:resource="http://purl.org/dc/dcmitype/StillImage" />
        <dc:title></dc:title>
      </cc:Work>
    </rdf:RDF>
  </metadata>
  <g
     inkscape:label="Layer 1"
     inkscape:groupmode="layer"
     id="layer1"
     transform="translate(-474.36385,-347.21458)">
    <g
       id="g3117"
       transform="matrix(4.9670427,0,0,4.9670427,-522.58764,-2359.6493)">
      <g
         id="g1934"
         transform="translate(0,200)" />
      <g
         id="g1941"
         transform="translate(0,75.9997)">
        <path
           id="path9"
           style="fill:#2c5d6c;fill-opacity:1;fill-rule:evenodd;stroke:none"
           d="m 295.73218,494.70809 c -0.6887,0.14117 -1.32697,0.51913 -1.93617,1.1211 -0.60996,0.61304 -0.93647,1.31225 -0.98985,2.08581 -0.0335,0.48625 0.0944,1.05026 0.37534,1.65814 0.28009,0.61891 0.73778,1.08353 1.35016,1.40338 0.20741,0.0588 0.29951,0.1761 0.28881,0.33082 -0.003,0.0553 -0.0851,0.1052 -0.27654,0.13644 -0.99054,-0.32374 -1.78401,-0.92256 -2.37088,-1.77363 -0.58607,-0.8621 -0.85436,-1.81331 -0.80331,-2.87574 0.11178,-1.13595 0.52838,-2.17315 1.24908,-3.10054 0.73252,-0.93769 1.63355,-1.57503 2.70309,-1.91208 l -0.49368,-3.97585 c -1.80359,1.29681 -3.28973,2.67105 -4.47104,4.14406 -1.18054,1.46195 -1.84957,3.09243 -2.01818,4.89069 -0.0335,0.80824 0.0785,1.60432 0.33686,2.3772 0.25755,0.78392 0.67556,1.50119 1.25245,2.1739 1.16564,1.33513 2.7491,2.09952 4.72745,2.30263 0.6788,0.002 1.40726,-0.0695 2.19644,-0.21486 l -1.12003,-8.77141 z m 0.80523,-0.0554 1.14178,8.61746 c 1.75327,-0.56745 2.70921,-2.00049 2.86628,-4.277 -0.0471,-0.76939 -0.22137,-1.46984 -0.55608,-2.10364 -0.32286,-0.64407 -0.77675,-1.16395 -1.37271,-1.56038 -0.59596,-0.39645 -1.28167,-0.62141 -2.07927,-0.67644 z m -1.47795,-11.64976 c 0.38081,-0.19578 0.82846,-0.55352 1.32002,-1.06369 0.49079,-0.49911 0.97737,-1.09843 1.44713,-1.77666 0.4816,-0.68851 0.87534,-1.39416 1.18122,-2.117 0.30512,-0.71179 0.47501,-1.3996 0.51924,-2.04057 0.0191,-0.27626 0.0159,-0.55407 -0.0227,-0.80101 -0.0168,-0.4009 -0.11745,-0.71872 -0.31335,-0.94321 -0.19676,-0.21345 -0.45501,-0.3423 -0.78733,-0.36524 -0.66469,-0.0458 -1.2911,0.32174 -1.87927,1.10283 -0.45868,0.67898 -0.86003,1.49516 -1.16933,2.42875 -0.32113,0.94385 -0.53072,1.88431 -0.61922,2.84421 -0.02,1.09787 0.0954,2.00523 0.32354,2.73159 z m -0.74213,0.59282 c -0.37497,-1.82466 -0.52612,-3.66719 -0.4534,-5.52758 0.0934,-1.19273 0.2923,-2.30047 0.59661,-3.32322 0.29324,-1.02351 0.67626,-1.89648 1.1506,-2.64101 0.46324,-0.74529 0.98,-1.29812 1.5392,-1.65927 0.50074,-0.32076 0.85712,-0.48492 1.04545,-0.47194 0.14394,0.009 0.26205,0.0736 0.36597,0.1807 0.10397,0.10719 0.23648,0.2828 0.39849,0.51606 1.1894,1.95857 1.69852,4.25885 1.51704,6.88899 -0.0862,1.24875 -0.33622,2.45291 -0.75242,3.64559 -0.40437,1.18239 -0.96003,2.29882 -1.66543,3.3272 -0.71724,1.03866 -1.53536,1.92602 -2.46616,2.67236 l 0.59687,4.416 c 0.49124,-0.0216 0.82663,-0.0429 1.01496,-0.0299 0.84192,0.058 1.58301,0.2869 2.25651,0.68868 0.67351,0.40179 1.23892,0.91826 1.68441,1.55968 0.44626,0.63039 0.77563,1.34154 0.98812,2.13345 0.20143,0.79117 0.28976,1.60782 0.23182,2.44769 -0.09,1.30402 -0.51574,2.47384 -1.27654,3.4984 -0.7608,1.02454 -1.84517,1.73809 -3.26496,2.15089 0.0513,0.5476 0.1522,1.34293 0.31544,2.36464 0.15144,1.03198 0.26192,1.85016 0.33152,2.45456 0.0697,0.60439 0.0742,1.1821 0.0354,1.7457 -0.0602,0.87303 -0.32409,1.63208 -0.79233,2.2882 -0.4793,0.65535 -1.09195,1.14605 -1.84901,1.47133 -0.746,0.32606 -1.55657,0.45888 -2.42064,0.39927 -1.21857,-0.084 -2.2584,-0.50003 -3.12028,-1.23683 -0.8611,-0.74783 -1.28525,-1.69871 -1.24872,-2.87317 0.069,-0.51709 0.22448,-0.99494 0.47805,-1.44379 0.25359,-0.44886 0.57861,-0.80396 0.98617,-1.06453 0.39723,-0.27239 0.8621,-0.39577 1.38505,-0.39299 0.43203,0.0299 0.83353,0.17966 1.20524,0.43849 0.35987,0.2691 0.64794,0.61097 0.85236,1.03592 0.19335,0.42417 0.28394,0.88567 0.25039,1.37192 -0.045,0.65201 -0.30468,1.18926 -0.77905,1.61178 -0.47438,0.42251 -1.05536,0.6156 -1.73111,0.56898 l -0.25479,-0.0176 c 0.38628,0.69287 1.07163,1.08437 2.05756,1.1524 0.4985,0.0344 1.0157,-0.0409 1.53902,-0.20472 0.53514,-0.17403 0.98624,-0.42051 1.37621,-0.74892 0.38998,-0.32841 0.65961,-0.68732 0.78675,-1.07828 0.21961,-0.44009 0.35168,-1.06389 0.40583,-1.84851 0.0366,-0.53044 0.0177,-1.06471 -0.0453,-1.60204 -0.0638,-0.52628 -0.17092,-1.23319 -0.32193,-2.10969 -0.15175,-0.86544 -0.26109,-1.53921 -0.31845,-1.99841 -0.67612,0.11989 -1.36906,0.16092 -2.08912,0.11117 -1.20747,-0.0833 -2.33173,-0.40517 -3.37196,-0.97661 -1.04025,-0.57144 -1.93458,-1.32157 -2.69336,-2.26221 -0.74766,-0.93988 -1.31049,-1.97804 -1.6869,-3.13657 -0.36611,-1.14674 -0.51791,-2.3342 -0.44512,-3.55057 0.12205,-1.12414 0.40729,-2.19263 0.87626,-3.18179 0.4697,-1.00023 1.0464,-1.93755 1.74035,-2.80016 0.69397,-0.86263 1.40475,-1.64636 2.13158,-2.34015 0.73715,-0.68197 1.69928,-1.5594 2.90777,-2.61968 z"
           inkscape:connector-curvature="0" />
        <g
           id="g2083"
           style="fill:#000000"
           transform="matrix(-10.1855,0,0,-10.1855,4391.05,6201.98)" />
        <path
           inkscape:connector-curvature="0"
           d="m 251.5865,526.4323 c -0.6887,0.14117 -1.32697,0.51913 -1.93617,1.1211 -0.60996,0.61304 -0.93647,1.31225 -0.98985,2.08581 -0.0335,0.48625 0.0944,1.05026 0.37534,1.65814 0.28009,0.61891 0.73778,1.08353 1.35016,1.40338 0.20741,0.0588 0.29951,0.1761 0.28881,0.33082 -0.003,0.0553 -0.0851,0.1052 -0.27654,0.13644 -0.99054,-0.32374 -1.78401,-0.92256 -2.37088,-1.77363 -0.58607,-0.8621 -0.85436,-1.81331 -0.80331,-2.87574 0.11178,-1.13595 0.52838,-2.17315 1.24908,-3.10054 0.73252,-0.93769 1.63355,-1.57503 2.70309,-1.91208 l -0.49368,-3.97585 c -1.80359,1.29681 -3.28973,2.67105 -4.47104,4.14406 -1.18054,1.46195 -1.84957,3.09243 -2.01818,4.89069 -0.0335,0.80824 0.0785,1.60432 0.33686,2.3772 0.25755,0.78392 0.67556,1.50119 1.25245,2.1739 1.16564,1.33513 2.7491,2.09952 4.72745,2.30263 0.6788,0.002 1.40726,-0.0695 2.19644,-0.21486 l -1.12003,-8.77141 z m 0.80523,-0.0554 1.14178,8.61746 c 1.75327,-0.56745 2.70921,-2.00049 2.86628,-4.277 -0.0471,-0.76939 -0.22137,-1.46984 -0.55608,-2.10364 -0.32286,-0.64407 -0.77675,-1.16395 -1.37271,-1.56038 -0.59596,-0.39645 -1.28167,-0.62141 -2.07927,-0.67644 z m -1.47795,-11.64976 c 0.38081,-0.19578 0.82846,-0.55352 1.32002,-1.06369 0.49079,-0.49911 0.97737,-1.09843 1.44713,-1.77666 0.4816,-0.68851 0.87534,-1.39416 1.18122,-2.117 0.30512,-0.71179 0.47501,-1.3996 0.51924,-2.04057 0.0191,-0.27626 0.0159,-0.55407 -0.0227,-0.80101 -0.0168,-0.4009 -0.11745,-0.71872 -0.31335,-0.94321 -0.19676,-0.21345 -0.45501,-0.3423 -0.78733,-0.36524 -0.66469,-0.0458 -1.2911,0.32174 -1.87927,1.10283 -0.45868,0.67898 -0.86003,1.49516 -1.16933,2.42875 -0.32113,0.94385 -0.53072,1.88431 -0.61922,2.84421 -0.02,1.09787 0.0954,2.00523 0.32354,2.73159 z m -0.74213,0.59282 c -0.37497,-1.82466 -0.52612,-3.66719 -0.4534,-5.52758 0.0934,-1.19273 0.2923,-2.30047 0.59661,-3.32322 0.29324,-1.02351 0.67626,-1.89648 1.1506,-2.64101 0.46324,-0.74529 0.98,-1.29812 1.5392,-1.65927 0.50074,-0.32076 0.85712,-0.48492 1.04545,-0.47194 0.14394,0.009 0.26205,0.0736 0.36597,0.1807 0.10397,0.10719 0.23648,0.2828 0.39849,0.51606 1.1894,1.95857 1.69852,4.25885 1.51704,6.88899 -0.0862,1.24875 -0.33622,2.45291 -0.75242,3.64559 -0.40437,1.18239 -0.96003,2.29882 -1.66543,3.3272 -0.71724,1.03866 -1.53536,1.92602 -2.46616,2.67236 l 0.59687,4.416 c 0.49124,-0.0216 0.82663,-0.0429 1.01496,-0.0299 0.84192,0.058 1.58301,0.2869 2.25651,0.68868 0.67351,0.40179 1.23892,0.91826 1.68441,1.55968 0.44626,0.63039 0.77563,1.34154 0.98812,2.13345 0.20143,0.79117 0.28976,1.60782 0.23182,2.44769 -0.09,1.30402 -0.51574,2.47384 -1.27654,3.4984 -0.7608,1.02454 -1.84517,1.73809 -3.26496,2.15089 0.0513,0.5476 0.1522,1.34293 0.31544,2.36464 0.15144,1.03198 0.26192,1.85016 0.33152,2.45456 0.0697,0.60439 0.0742,1.1821 0.0354,1.7457 -0.0602,0.87303 -0.32409,1.63208 -0.79233,2.2882 -0.4793,0.65535 -1.09195,1.14605 -1.84901,1.47133 -0.746,0.32606 -1.55657,0.45888 -2.42064,0.39927 -1.21857,-0.084 -2.2584,-0.50003 -3.12028,-1.23683 -0.8611,-0.74783 -1.28525,-1.69871 -1.24872,-2.87317 0.069,-0.51709 0.22448,-0.99494 0.47805,-1.44379 0.25359,-0.44886 0.57861,-0.80396 0.98617,-1.06453 0.39723,-0.27239 0.8621,-0.39577 1.38505,-0.39299 0.43203,0.0299 0.83353,0.17966 1.20524,0.43849 0.35987,0.2691 0.64794,0.61097 0.85236,1.03592 0.19335,0.42417 0.28394,0.88567 0.25039,1.37192 -0.045,0.65201 -0.30468,1.18926 -0.77905,1.61178 -0.47438,0.42251 -1.05536,0.6156 -1.73111,0.56898 l -0.25479,-0.0176 c 0.38628,0.69287 1.07163,1.08437 2.05756,1.1524 0.4985,0.0344 1.0157,-0.0409 1.53902,-0.20472 0.53514,-0.17403 0.98624,-0.42051 1.37621,-0.74892 0.38998,-0.32841 0.65961,-0.68732 0.78675,-1.07828 0.21961,-0.44009 0.35168,-1.06389 0.40583,-1.84851 0.0366,-0.53044 0.0177,-1.06471 -0.0453,-1.60204 -0.0638,-0.52628 -0.17092,-1.23319 -0.32193,-2.10969 -0.15175,-0.86544 -0.26109,-1.53921 -0.31845,-1.99841 -0.67612,0.11989 -1.36906,0.16092 -2.08912,0.11117 -1.20747,-0.0833 -2.33173,-0.40517 -3.37196,-0.97661 -1.04025,-0.57144 -1.93458,-1.32157 -2.69336,-2.26221 -0.74766,-0.93988 -1.31049,-1.97804 -1.6869,-3.13657 -0.36611,-1.14674 -0.51791,-2.3342 -0.44512,-3.55057 0.12205,-1.12414 0.40729,-2.19263 0.87626,-3.18179 0.4697,-1.00023 1.0464,-1.93755 1.74035,-2.80016 0.69397,-0.86263 1.40475,-1.64636 2.13158,-2.34015 0.73715,-0.68197 1.69928,-1.5594 2.90777,-2.61968 z"
           style="fill:#2c5d6c;fill-opacity:1;fill-rule:evenodd;stroke:none"
           id="path3131" />
      </g>
    </g>
    <g
       style="font-size:38.53456116px;font-style:normal;font-variant:normal;font-weight:900;font-stretch:normal;line-height:125%;letter-spacing:0px;word-spacing:0px;fill:#2c5d6c;fill-opacity:1;stroke:none;font-family:Bodoni Std Poster Compressed;-inkscape-font-specification:Bodoni Std Poster Compressed Heavy"
       id="text2998"
       transform="matrix(4.9670427,0,0,4.9670427,-1876.8218,-3103.0619)">
      <path
         d="m 482.28772,703.09079 c 0.87664,-0.0249 2.41328,0.99076 2.78899,1.3271 1.86613,2.68418 1.85165,12.93775 0.0289,16.49165 -0.36126,0.30827 -1.90754,1.57519 -2.81789,1.57518 0.54441,-6.00107 1.07441,-12.24294 0,-19.39393 z m -4.89779,-2.09906 c 1.0586,7.61822 1.23174,15.39269 7e-5,23.41508 -1.28269,0.60989 -1.62169,-0.21767 -2.11557,-0.8093 0.38134,2.26992 0.65741,4.66131 4.45114,2.99386 0.43633,-0.21991 1.56936,-0.42281 2.54762,0 1.676,1.73134 4.83452,-0.61179 5.78313,-1.71833 0.94859,-1.10655 1.58892,-2.5128 1.921,-4.21877 0.33204,-1.70596 0.48713,-3.47757 0.46526,-5.31485 l 0,-4.27728 c -0.12037,-3.60958 0.0916,-7.34046 -0.59103,-9.11614 -0.68268,-1.77563 -2.23148,-2.56362 -3.41937,-3.11906 -1.1879,-0.55539 -3.42331,-0.65454 -4.23589,-0.37886 -3.01005,1.00923 -5.22161,0.12635 -7.83241,-0.29222 0.46375,0.33157 2.84081,0.3649 3.02605,2.83587 z"
         id="path3005"
         inkscape:connector-curvature="0"
         style="fill:#2c5d6c;fill-opacity:1"
         sodipodi:nodetypes="ccccccccccccccccccc" />
      <path
         d="m 501.54476,719.03005 c 0,1.8681 -1.49517,2.22562 -2.53931,2.54325 -1.14472,-0.23516 -2.48439,-1.13007 -2.53931,-2.54325 l 0,-12.8704 c 0,-1.75126 1.49735,-2.46991 2.53931,-2.85152 1.10771,0.34623 2.48989,1.22128 2.53931,2.85152 z m -2.53931,-20.60708 c -2.19885,-0.0305 -3.7932,1.09985 -4.78304,3.391 -0.98984,2.29119 -1.72379,5.92623 -1.70693,10.90514 -0.0169,4.97893 0.71709,8.61397 1.70693,10.90514 0.98984,2.29117 2.58419,3.4215 4.78304,3.39099 2.19885,0.0305 3.79319,-1.09982 4.78305,-3.39099 0.98983,-2.29117 1.8475,-5.92621 1.83065,-10.90514 0.0168,-4.97891 -0.84082,-8.61395 -1.83065,-10.90514 -0.98986,-2.29115 -2.5842,-3.42148 -4.78305,-3.391 z"
         id="path3007"
         inkscape:connector-curvature="0"
         sodipodi:nodetypes="ccccccccscsccccc"
         style="fill:#2c5d6c;fill-opacity:1" />
      <path
         d="m 510.25667,720.93851 c 0.0249,1.97136 0.50495,3.24209 1.44021,4.07485 0.93525,0.83278 2.17637,1.2374 3.72335,1.21387 1.71476,0.0471 5.51529,0.40229 6.49792,-0.51047 0.98261,-0.91275 1.70246,-3.24445 1.72174,-5.6816 1.10459,-12.18337 -0.93607,-15.26855 3.375,-19.59639 l -8.8202,0 c 4.14385,4.37621 1.96523,11.4944 1.96523,17.87736 -0.0786,2.58693 -0.16871,4.98158 -3.19832,5.11896 -2.29354,0.24439 -2.25964,-3.72779 -2.44685,-4.85229 -0.0576,-1.03666 -1.92528,-15.75264 1.9459,-19.85156 l -9.89564,0 c 5.19079,5.2434 3.98214,0.38064 3.69166,22.20727 z"
         id="path3009"
         inkscape:connector-curvature="0"
         style="fill:#2c5d6c;fill-opacity:1"
         sodipodi:nodetypes="cscsccccccccc" />
      <path
         d="m 535.27205,726.36187 c 3.63938,1.67402 6.39684,0.54297 7.7593,-2.03438 0.8392,-1.58751 1.45947,-3.49769 1.38723,-5.38425 0.0185,-1.91064 -0.37492,-3.48412 -1.18011,-4.72043 -0.80521,-1.23629 -2.13303,-2.11615 -3.98346,-2.63958 l 0,-0.15474 c 1.75651,-0.33555 3.02171,-1.09981 3.79561,-2.29278 0.77388,-1.19293 1.1528,-2.6508 1.13676,-4.37361 0.0112,-1.95719 -0.67155,-3.01792 -1.59917,-4.21979 -1.12726,-1.17687 -2.01782,-2.58463 -7.4128,-1.8111 -1.58853,0.37538 -2.16534,0.68333 -4.81819,-0.1947 3.85147,2.2144 3.84959,26.48097 0.12121,26.94232 0.63557,0.0189 0.84218,2.80801 4.79362,0.88304 z m 1.90213,-12.7235 0.80921,0 c 0.54268,-0.0225 0.96013,0.13809 1.25236,0.48167 0.2922,0.34361 1.30965,1.00511 1.31287,1.98451 l 0,4.82479 c -0.003,1.0067 -1.03993,1.65215 -1.37067,1.93634 -0.33076,0.28419 -0.80602,0.40942 -1.42576,0.3757 l -0.57801,0 c -0.64298,-3.201 -0.77503,-6.40201 0,-9.60301 z m 0,-11.61926 0.57801,0 c 0.58603,-0.0481 1.05165,0.0578 1.39686,0.3179 0.34519,0.26013 1.39153,0.96338 1.39957,2.10974 l 0,2.66219 c 0.0144,0.83091 -0.96123,1.46191 -1.18764,1.89299 -0.22639,0.43111 -0.6599,0.64787 -1.30052,0.65026 l -0.88628,0 c -0.59141,-2.54436 -0.71736,-5.08872 0,-7.63308 z"
         id="path3011"
         inkscape:connector-curvature="0"
         style="fill:#2c5d6c;fill-opacity:1"
         sodipodi:nodetypes="csccccscccccccccccccccccccccccc" />
      <path
         d="m 561.27822,726.59137 0,-11.13635 -0.53948,0 c -0.88549,4.5289 -0.68012,3.30019 -2.27046,6.98566 -1.47536,1.03544 -3.29427,1.09322 -4.20326,-0.82684 -0.43509,-3.3467 -2.07168,-20.23915 2.67753,-22.8826 l -9.75371,0 c 4.31871,2.59368 3.1928,25.60486 0.3115,28.35853 3.91124,-1.39042 6.97152,-0.4984 13.77788,-0.4984 z"
         id="path3013"
         inkscape:connector-curvature="0"
         style="fill:#2c5d6c;fill-opacity:1"
         sodipodi:nodetypes="ccccccccc" />
      <path
         d="m 495.7402,731.18942 c -1.0869,-0.93881 -1.09767,-0.9855 -1.63944,-1.30961 -0.49132,-0.39976 -1.1464,-0.60207 -1.96524,-0.60691 -1.28367,-0.11798 -2.47341,0.60935 -3.56922,2.18199 -1.09581,1.5727 -2.22007,4.69877 -2.28991,9.37823 l 0,5.04796 c -0.0273,3.48333 0.94443,6.33324 1.83232,8.54975 0.88789,2.21651 2.39714,3.36129 4.52775,3.43435 5.20742,-0.73462 6.23959,-6.12476 5.88269,-8.2501 -0.62189,-0.34823 -1.2394,-0.3347 -1.64394,0 -0.71313,2.63545 -1.28265,3.7983 -3.69927,3.93809 -0.51941,0.0161 -0.90636,-0.1702 -1.16084,-0.55875 -0.25449,-0.38855 -0.38133,-1.03222 -0.5981,-2.06157 -1.80179,-7.50505 -0.88583,-12.80628 0,-15.43727 -0.005,-0.27212 0.28018,-0.54667 0.41988,-0.82367 0.13968,-0.27693 0.38052,-0.42625 0.72252,-0.44795 0.42098,-0.0718 0.78866,-0.0353 1.12825,0.41226 0.61929,0.33092 0.65872,1.72466 0.25648,2.1655 -0.96363,-0.1389 -1.59231,-2.98075 -1.3209,-0.27 0.45342,2.50534 1.51504,3.34261 2.56104,2.9884 2.08119,0.19026 3.52891,-5.18608 0.55598,-8.3307 z"
         id="path3015"
         inkscape:connector-curvature="0"
         style="fill:#2c5d6c;fill-opacity:1"
         sodipodi:nodetypes="ccccccsccccccccccccccc" />
      <path
         d="m 542.05648,757.36118 c -2.28082,-0.94491 -4.06263,-13.08756 -2.51368,-13.13683 1.75099,0.10201 3.75116,0.20559 5.7982,2.24619 l -3.3e-4,-6.11198 c -1.91333,1.11652 -3.6851,1.18241 -5.86427,1.46742 -1.20995,-2.87773 -1.35204,-6.68055 0,-8.68139 0.51247,-0.23971 1.75109,-0.37927 2.73422,-0.48596 1.16484,-0.065 3.61854,1.26261 4.2102,2.72447 0.0219,-0.53169 0.0492,-0.85303 0.0855,-1.24423 0.027,-2.82422 0.89656,-3.32358 1.82096,-4.61937 -4.86194,1.62596 -10.49504,0.79083 -15.61248,1.01156 2.56303,5.27893 4.4749,12.30349 0.87797,26.8306 z"
         id="path3019"
         inkscape:connector-curvature="0"
         style="fill:#2c5d6c;fill-opacity:1"
         sodipodi:nodetypes="ccccccccccccc" />
      <path
         sodipodi:nodetypes="ccccccccc"
         style="fill:#2c5d6c;fill-opacity:1"
         inkscape:connector-curvature="0"
         id="path3021"
         d="m 515.65129,757.36658 0,-11.13635 -0.53948,0 c -0.88549,4.5289 -0.68012,3.30019 -2.27046,6.98566 -1.47536,1.03544 -3.29427,1.09322 -4.20326,-0.82684 -0.43509,-3.3467 -2.07168,-20.23915 2.67753,-22.8826 l -9.75371,0 c 4.31871,2.59368 3.1928,25.60486 0.3115,28.35853 3.91124,-1.39042 6.97152,-0.4984 13.77788,-0.4984 z" />
      <path
         sodipodi:nodetypes="ccccccccccccc"
         style="fill:#2c5d6c;fill-opacity:1"
         inkscape:connector-curvature="0"
         id="path3023"
         d="m 553.92061,757.3614 c -1.21148,-0.50189 -2.1579,-6.95156 -1.33516,-6.97773 0.93005,0.0542 1.99246,0.1092 3.07976,1.19308 l -1.8e-4,-3.24643 c -1.01627,0.59304 -1.95737,0.62805 -3.11485,0.77943 -0.64268,-1.52853 -0.71815,-3.54843 0,-4.61119 0.2722,-0.12733 0.93011,-0.20146 1.4523,-0.25812 0.61872,-0.0345 1.92203,0.67064 2.23629,1.44712 0.0116,-0.2824 0.0261,-0.45309 0.0454,-0.66088 0.0143,-1.5001 0.47622,-1.76535 0.96722,-2.45362 -2.58246,0.86365 -5.57453,0.42006 -8.2927,0.5373 1.36138,2.80395 2.37688,6.5351 0.46634,14.2513 z" />
    </g>
    <g
       transform="matrix(5.5036303,0,0,4.4827706,-1876.8218,-3103.0619)"
       style="font-size:22.32278061px;font-style:normal;font-variant:normal;font-weight:900;font-stretch:normal;line-height:125%;letter-spacing:0px;word-spacing:0px;fill:#2c5d6c;fill-opacity:1;stroke:none;font-family:Bodoni Std Poster Compressed;-inkscape-font-specification:Bodoni Std Poster Compressed Heavy"
       id="text3008">
      <path
         d="m 504.58533,839.21912 c -0.49211,-2.15816 -0.20734,-4.96528 -0.37644,-10.42245 1.17105,4.2976 0.86469,4.48926 1.72364,9.11006 l 1.11613,0 2.26599,-9.11034 c 0.0384,4.30569 0.25075,7.73128 -1.38094,10.42273 l 4.95178,0 c -1.30387,-3.29009 -2.76519,-12.83223 -0.64354,-16.13917 l -4.30145,0 c 0.99275,2.4023 -0.21316,7.59428 -0.72111,9.26384 -1.02953,-2.66168 -1.44879,-5.83216 -1.67079,-9.26384 l -2.45287,0 c 0.91055,7.07182 -1.63025,13.41417 -2.76054,16.13917 z"
         id="path3014"
         inkscape:connector-curvature="0"
         sodipodi:nodetypes="cccccccccccccc"
         style="fill:#2c5d6c;fill-opacity:1" />
    </g>
  </g>
</svg>
