<svg version="1.2" xmlns="http://www.w3.org/2000/svg" viewBox="0 0 500 269" width="500" height="269"><style>.a{fill:#32bb9f}.b{fill:#fff}.c{fill:#ef3d2f}</style><path class="a" d="m99.7 9.5c-23.9 8.8-49.3 19.4-90.8 50-7.2 5.9-3.7 13.5-2.2 14.2 1 1.8 6.4 8 17.3 0.8 0.3 4.9-2 3.3-2.4 5.9-0.3 0.9-0.6 1.7-0.5 3.4-3.9 3.6-8 7-11.2 11.6-5.1 5.2-1.5 13 2 15.1 4.9 3.3 13.3 1.9 15.7-2.2 1.7 3.3 1.5 5 1.7 7-5.6 4.5-11.5 10.4-17.4 16.5-12.3 12.2-14.5 16-9.3 24.4 2.6 3.4 11.2 5.9 17.5-0.1l7.5-7.6c0.7-0.5 1.4-1 2-0.5-7.1 6.4-8 12.3-3.3 17.7 2.4 2.2 5.8 4.8 12.9 1.8 1.9-0.4 1.9 0.4 2.1 1.2 0.4 1.1-6.6 10-8.3 13.1-3.6 5.4-7.1 10.8-11.8 16.8-3.1 6 1.6 13.2 5.1 14.3 8.4 2.7 10.9-1.2 14.5-5.2 4-5 10.1-12.3 10.5-11.6 0.4-0.7 1.4 7.7 1 8 0.6 0.7-7.3 9.1-10.4 14.9-2.7 6.1-10.5 16.2-9.8 16.4-2.9 6.5 3.1 12.2 3.9 12.5 2.2 1.8 6.7 2.8 11.6 2l44.5 3.7c1.1 1.7 10.3 6.8 12.6 6.4 3.9 0.4 9.3-4.1 10.8-6.9l19.9-0.2c3 4.6 6.5 9.1 8.4 8.7 5.7 0.7 14.1-0.9 15.4-1.1 4.4-1.1 11-6.7 11.1-7.6l66.7 0.2c2.2 5.1 9.8 7.8 11.1 7.3 1.9 0.4 9.3-4.2 10.1-7.5h29.5c0.2 3.3-0.8 11.1 7.7 13.3 2 0.3 4 0.6 7 0 5.5-2 5.1-4.7 8.4-6.9 2.1-2.1 8.5-2.6 11.1-6.3l5.6 0.1c-0.9 12.8 6.3 15.3 10.4 15 8-0.3 6.8-3.2 11.4-5.5 3.4-1.8 7.8-3.3 8.2-5.8 1-1.4 1.6-0.9 2.1 0 0.9 10.7 10.4 12.2 11.6 12.3 5 0.3 29.7-11.5 39-15.7l53.1-34.8c5.5-3.2 11.4-6.7 19.3-12.1 3.9-2.5 7.2-6.8 11.1-9.7 5.4-4.7 5.7-7.4 6.1-10.8 1.1-1.4-2.3-11.8-10.1-12-5.4 0.5-9.4 3-12.9 6.1l-6.4-7.6 5.3-3c3.9-6.4 7.2-12.5 7.6-16.7-0.2-2.4-1.7-4.7-2.8-7.5-2.2-6-2.6-5-3.9-6.9l5.3-11.2c7.2-9.5 13.3-26.1 13.3-27.6-3.4-10.9-8.7-9.4-8.9-10.8-1.1-0.3 6.5-14.9 5.7-18.8-0.2-1.1 0.8-6.4-8.9-10.2 0.4-2.9 2.3-8.7-1.2-12.9-1.5-1.6-3.1-3.2-6.4-4.4 0.5-2.8 7.4-9.6 6.8-15.2 0.1-1-3.9-10.9-11.4-10.4-5.4 1.1-10.1 3-12.7 8.3-2.5 0.2-9.7-0.3-12.1-2.4-1.1-0.6-2-1.3-4.2-1.2-2.2 1-4 1.1-4.4 0.6-2.2-2.4-4.7-4.3-8.5-4.4-4.7-0.7-8.1 3-11.8 5.7-0.4 0.6-1.6-10.4-11.2-10.2-3.2-0.1-6.3 0.3-9.3 6.1-1.7 2.4-4.6 5.2-5.9 5.3-1.1 0.4-4.8-4.7-9.3-4.2-2.1 0.5-2.8 0.3-3.9 0.2-2.8-3.8-5.8-4.6-8.8-4.6-0.9-0.1-4.8 0.1-8.8 5.7-5.1-0.4-9.6-0.5-13.6 5.5l-23.7-0.7q-0.1-2.5-5.3-2.5c-2.2-0.1-4.5-0.5-5.7 2.5l-22.6-0.6c-0.5-1.3-1.3-2.5-7.4-3.6-2.3 1.3-3.6 1.4-4.9 1.5-1.6-3.2-2.9-6.5-9.5-7.4-7.1-0.3-8.9 6.4-10.1 6.3-0.2 0.8-2.6-0.4-5.9 3.8l-13.4-0.2c-0.4-1.9-2.6-9.9-10.2-10.3-2.7-0.3-5.5 0.3-9.6 4.8-2.6-1.7-4.6-4-8.5-4.4-1.6-0.3-4.2 0.5-8.4 5.1-2.4-2.4-3.8-1.9-5.3-1.7-2.1 0.6-2.1 0.1-2.8 0-0.8-1.7 1.8-3.7-4-8.1 0.4-2.8-1.7-11.2-10.6-11.8-8.6 1.2-18.6 8-28 12.1-2.1 0.7-5.3 1.6-7.7 4.2-3.2-1.9-5.6-5.1-9.9-5.1-4.5-0.1-9.5 3.7-12.3 5.5-3.3 2.2-7 4.4-9 6.9-0.8 0.8 2-14.3-11.9-14.1z"/><path fill-rule="evenodd" d="m47.2 25.7h416.3v38.3h-416.3z"/><path fill-rule="evenodd" class="b" d="m49.4 35.1h9.5v9.5h-9.5z"/><path fill-rule="evenodd" class="b" d="m71 35.1h9.6v9.5h-9.6z"/><path fill-rule="evenodd" class="b" d="m92.7 35.1h9.5v9.5h-9.5z"/><path fill-rule="evenodd" class="b" d="m114.3 35.1h9.6v9.5h-9.6z"/><path fill-rule="evenodd" class="b" d="m136 35.1h9.5v9.5h-9.5z"/><path fill-rule="evenodd" class="b" d="m157.6 35.1h9.6v9.5h-9.6z"/><path fill-rule="evenodd" class="b" d="m179.3 35.1h9.5v9.5h-9.5z"/><path fill-rule="evenodd" class="b" d="m201.2 35.1h9.5v9.5h-9.5z"/><path fill-rule="evenodd" class="b" d="m201 35.1h9.5v9.5h-9.5z"/><path fill-rule="evenodd" class="b" d="m223.5 35.1h9.6v9.5h-9.6z"/><path fill-rule="evenodd" class="b" d="m245.2 35.1h9.5v9.5h-9.5z"/><path fill-rule="evenodd" class="b" d="m266.8 35.1h9.6v9.5h-9.6z"/><path fill-rule="evenodd" class="b" d="m288.5 35.1h9.5v9.5h-9.5z"/><path fill-rule="evenodd" class="b" d="m310.1 35.1h9.6v9.5h-9.6z"/><path fill-rule="evenodd" class="b" d="m331.8 35.1h9.5v9.5h-9.5z"/><path fill-rule="evenodd" class="b" d="m353.5 35.1h9.5v9.5h-9.5z"/><path fill-rule="evenodd" class="b" d="m375.1 35.1h9.6v9.5h-9.6z"/><path fill-rule="evenodd" class="b" d="m397 35.1h9.6v9.5h-9.6z"/><path fill-rule="evenodd" class="b" d="m418.7 35.1h9.5v9.5h-9.5z"/><path fill-rule="evenodd" class="b" d="m440.4 35.1h9.5v9.5h-9.5z"/><path fill-rule="evenodd" class="b" d="m59.9 44.7h9.6v9.5h-9.6z"/><path fill-rule="evenodd" class="b" d="m81.6 44.7h9.5v9.5h-9.5z"/><path fill-rule="evenodd" class="b" d="m103.2 44.7h9.6v9.5h-9.6z"/><path fill-rule="evenodd" class="b" d="m124.9 44.7h9.5v9.5h-9.5z"/><path fill-rule="evenodd" class="b" d="m146.5 44.7h9.6v9.5h-9.6z"/><path fill-rule="evenodd" class="b" d="m168.2 44.7h9.5v9.5h-9.5z"/><path fill-rule="evenodd" class="b" d="m189.9 44.7h9.5v9.5h-9.5z"/><path fill-rule="evenodd" class="b" d="m211.5 44.7h9.6v9.5h-9.6z"/><path fill-rule="evenodd" class="b" d="m234.1 44.7h9.5v9.5h-9.5z"/><path fill-rule="evenodd" class="b" d="m255.7 44.7h9.6v9.5h-9.6z"/><path fill-rule="evenodd" class="b" d="m277.4 44.7h9.5v9.5h-9.5z"/><path fill-rule="evenodd" class="b" d="m299.1 44.7h9.5v9.5h-9.5z"/><path fill-rule="evenodd" class="b" d="m320.7 44.7h9.5v9.5h-9.5z"/><path fill-rule="evenodd" class="b" d="m342.4 44.7h9.5v9.5h-9.5z"/><path fill-rule="evenodd" class="b" d="m364 44.7h9.6v9.5h-9.6z"/><path fill-rule="evenodd" class="b" d="m385.7 44.7h9.5v9.5h-9.5z"/><path fill-rule="evenodd" class="b" d="m407.6 44.7h9.5v9.5h-9.5z"/><path fill-rule="evenodd" class="b" d="m429.3 44.7h9.5v9.5h-9.5z"/><path fill-rule="evenodd" class="b" d="m450.9 44.7h9.6v9.5h-9.6z"/><path fill-rule="evenodd" d="m47.2 215.9h416.3v38.4h-416.3z"/><path fill-rule="evenodd" class="b" d="m49.4 225.3h9.5v9.6h-9.5z"/><path fill-rule="evenodd" class="b" d="m71 225.3h9.6v9.6h-9.6z"/><path fill-rule="evenodd" class="b" d="m92.7 225.3h9.5v9.6h-9.5z"/><path fill-rule="evenodd" class="b" d="m114.3 225.3h9.6v9.6h-9.6z"/><path fill-rule="evenodd" class="b" d="m136 225.3h9.5v9.6h-9.5z"/><path fill-rule="evenodd" class="b" d="m157.6 225.3h9.6v9.6h-9.6z"/><path fill-rule="evenodd" class="b" d="m179.3 225.3h9.5v9.6h-9.5z"/><path fill-rule="evenodd" class="b" d="m201.2 225.3h9.5v9.6h-9.5z"/><path fill-rule="evenodd" class="b" d="m201 225.3h9.5v9.6h-9.5z"/><path fill-rule="evenodd" class="b" d="m223.5 225.3h9.6v9.6h-9.6z"/><path fill-rule="evenodd" class="b" d="m245.2 225.3h9.5v9.6h-9.5z"/><path fill-rule="evenodd" class="b" d="m266.8 225.3h9.6v9.6h-9.6z"/><path fill-rule="evenodd" class="b" d="m288.5 225.3h9.5v9.6h-9.5z"/><path fill-rule="evenodd" class="b" d="m310.1 225.3h9.6v9.6h-9.6z"/><path fill-rule="evenodd" class="b" d="m331.8 225.3h9.5v9.6h-9.5z"/><path fill-rule="evenodd" class="b" d="m353.5 225.3h9.5v9.6h-9.5z"/><path fill-rule="evenodd" class="b" d="m375.1 225.3h9.6v9.6h-9.6z"/><path fill-rule="evenodd" class="b" d="m397 225.3h9.6v9.6h-9.6z"/><path fill-rule="evenodd" class="b" d="m418.7 225.3h9.5v9.6h-9.5z"/><path fill-rule="evenodd" class="b" d="m440.4 225.3h9.5v9.6h-9.5z"/><path fill-rule="evenodd" class="b" d="m59.9 234.9h9.6v9.6h-9.6z"/><path fill-rule="evenodd" class="b" d="m81.6 234.9h9.5v9.6h-9.5z"/><path fill-rule="evenodd" class="b" d="m103.2 234.9h9.6v9.6h-9.6z"/><path fill-rule="evenodd" class="b" d="m124.9 234.9h9.5v9.6h-9.5z"/><path fill-rule="evenodd" class="b" d="m146.5 234.9h9.6v9.6h-9.6z"/><path fill-rule="evenodd" class="b" d="m168.2 234.9h9.5v9.6h-9.5z"/><path fill-rule="evenodd" class="b" d="m189.9 234.9h9.5v9.6h-9.5z"/><path fill-rule="evenodd" class="b" d="m211.5 234.9h9.6v9.6h-9.6z"/><path fill-rule="evenodd" class="b" d="m234.1 234.9h9.5v9.6h-9.5z"/><path fill-rule="evenodd" class="b" d="m255.7 234.9h9.6v9.6h-9.6z"/><path fill-rule="evenodd" class="b" d="m277.4 234.9h9.5v9.6h-9.5z"/><path fill-rule="evenodd" class="b" d="m299.1 234.9h9.5v9.6h-9.5z"/><path fill-rule="evenodd" class="b" d="m320.7 234.9h9.5v9.6h-9.5z"/><path fill-rule="evenodd" class="b" d="m342.4 234.9h9.5v9.6h-9.5z"/><path fill-rule="evenodd" class="b" d="m364 234.9h9.6v9.6h-9.6z"/><path fill-rule="evenodd" class="b" d="m385.7 234.9h9.5v9.6h-9.5z"/><path fill-rule="evenodd" class="b" d="m407.6 234.9h9.5v9.6h-9.5z"/><path fill-rule="evenodd" class="b" d="m429.3 234.9h9.5v9.6h-9.5z"/><path fill-rule="evenodd" class="b" d="m450.9 234.9h9.6v9.6h-9.6z"/><path  d="m434.2 157.4c3.1 0.4 6.3 0.7 9.4 1.7 3.2 1.9 7 4.4 7 13.5 0 6.6-1.4 16.3-3.8 22.9-1 2.9-2.9 8-9.8 8-3.2 0-8.5-2.6-9-8.9-0.6-6.1-0.1-11 0.8-17l-17.8-2.4c-1.6 11.8-3.6 25.2 4 36.7 3.9 5.3 12.6 9.5 20.2 9.5 22.4 1 31.8-17.1 34.4-36.7 3.1-16.7-1.2-30.5-12.4-34.3l0.1-0.3c12.2-1.9 16-15.8 18.5-25.4 5.6-30-9.2-41.1-26.2-41.1-20.2 0-28.4 20.1-29.8 35.9l17.8 2.6 1.9-9.8c1.6-6.4 4.6-10.7 9.9-10.7 10.4 0 9 11.8 8 18.9-1.6 10-5.3 21-14 19.8q-3.4-0.5-6.6-0.9z"/><path  d="m359.5 173.3c5.5 24.2 12.8 38.1 33.3 36.4 22-1.9 25.1-23.8 24.9-41.1-0.9-20.2-3.8-40.2-7.6-60.1-4-16.4-8.7-39-33-37.1-24.4 1.8-26 27.2-25.5 41.9 0.8 18.4 4 39.9 7.9 60zm11.2-61.6c-0.7-10-1.1-21.2 7.6-22.2 8.8-1 11.5 13.4 12.5 20.7 3.6 20.6 5.8 40.3 8.1 60 0.6 7.9 0.9 21.5-8.5 21.5-8.7 0-10.4-14-11.9-20-2.8-20-5.6-40-7.8-60z"/><path  d="m96 73l-17.5 1.6-1 101.9h-0.4l-19.5-100.1-17.4 1.2 29.5 135.8 20.3-1.7 0.7-100.3h0.2l19.5 98.5 20.4-1.5 3.4-138.6-17.4 1.6-0.4 102.1h-0.2z"/><path  d="m223.6 180.6h-0.3l-16-101.4-19.3 0.2 24.8 137.2 23.4-0.6 16.6-137.8-18.9 0.3z"/><path  d="m303.7 216.6l2.6-22.9-33.2-4.4 4.5-36.5 30.2 3.9 2.8-22.7-30.1-3.9 3.9-31.8 31.9 4.1 2.8-22.7-50.1-6.7-16.8 136.8z"/><path  d="m185.6 216.2c-1-5.2-1.1-11.8-0.7-17.6l7-71.6c1.2-8.3 0.5-17.8-1.8-25.6-2.4-7.9-13.1-13.5-20.1-13.5-9.3 0-17 0.1-23.9 12-3.9 6.8-6.3 14.8-6.9 26.5l17.1 1.5c0.4-8.1 2.3-18.6 9.9-18.6 10 0 8.4 14.9 6.8 20.9-2 7.4-7.5 8.7-10.8 9.5-5 1.4-13.7 3.9-19.3 9.1-6.2 5.7-9.7 16.1-10.8 27.2-1.1 13.2-0.8 23.4 2.1 29.7 2.9 6.3 6.2 10.2 14.4 10.2 10.5 0 14.4-7.1 17.6-14.2h0.3c0.4 3.4 0.2 8.6 1.1 13zm-18.1-32.2c-1.9 7.1-6.6 11.1-11.5 11.1-9.6 0-6.6-25-1.3-31.8 2.8-2.8 5.7-4.1 8-4.7 3.6-0.9 6.3-3.3 8.7-5.4-1.3 9.2-1.9 23.5-3.9 30.8z"/><path  d="m318.5 209.7l19.6 1.5 9.6-136.2-14.6-0.8c-2.2 12.7-10.5 22-26.1 20.6l-1 17.6 19.1 1.2z"/><path class="c" d="m426.5 151c3 0.5 6.3 0.8 9.3 1.8 3.3 1.9 7.1 4.4 7.1 13.5 0 6.6-1.5 16.2-3.8 22.9-1.1 2.9-3 8-9.8 8-3.2 0-8.5-2.6-9.1-9-0.5-6 0-10.9 0.9-16.9l-17.8-2.4c-1.6 11.8-3.6 25.2 4 36.7 3.8 5.3 12.5 9.5 20.2 9.5 22.4 0.9 31.8-17.1 34.3-36.7 3.2-16.7-1.2-30.5-12.3-34.3l0.1-0.3c12.2-1.9 15.9-15.8 18.5-25.4 5.6-30-9.2-41.1-26.3-41.1-20.1 0-28.3 20.1-29.8 35.8l17.9 2.6 1.9-9.7c1.5-6.4 4.6-10.8 9.9-10.8 10.3 0 8.9 11.8 8 19-1.6 10-5.4 21-14 19.8q-3.4-0.5-6.7-0.9z"/><path class="c" d="m351.8 167c5.4 24.2 12.7 38.1 33.2 36.4 22.1-1.9 25.2-23.8 24.9-41.1-0.8-20.2-3.8-40.2-7.5-60.1-4-16.4-8.8-39-33.1-37.1-24.4 1.8-26 27.2-25.4 41.9 0.7 18.4 4 39.9 7.9 60zm11.1-61.6c-0.7-10-1-21.2 7.7-22.2 8.8-1 11.4 13.4 12.5 20.7 3.5 20.6 5.8 40.3 8.1 60 0.6 7.9 0.8 21.5-8.5 21.5-8.7 0-10.4-14-11.9-20-2.9-20-5.6-40-7.9-60z"/><path class="c" d="m88.3 66.7l-17.5 1.6-1 101.9h-0.4l-19.6-100.1-17.4 1.2 29.6 135.8 20.2-1.7 0.7-100.3h0.3l19.5 98.5 20.4-1.6 3.3-138.5-17.4 1.6-0.3 102-0.3 0.1z"/><path class="c" d="m215.8 174.3h-0.2l-16-101.4-19.4 0.2 24.8 137.2 23.5-0.6 16.5-137.8-18.8 0.3z"/><path class="c" d="m295.9 210.3l2.7-22.9-33.2-4.4 4.5-36.5 30.2 3.9 2.8-22.7-30.1-3.9 3.8-31.8 32 4.1 2.8-22.7-50.1-6.7-16.9 136.8z"/><path class="c" d="m177.8 209.9c-1-5.2-1.1-11.8-0.6-17.6l6.9-71.6c1.2-8.4 0.6-17.8-1.8-25.6-2.3-7.9-13-13.5-20.1-13.5-9.2 0-16.9 0.1-23.8 12-3.9 6.8-6.4 14.8-6.9 26.5l17.1 1.5c0.3-8.1 2.2-18.6 9.9-18.6 10 0 8.4 14.9 6.8 20.9-2 7.4-7.5 8.6-10.9 9.5-5 1.4-13.7 3.9-19.2 9.1-6.3 5.7-9.8 16.1-10.8 27.2-1.1 13.2-0.8 23.4 2.1 29.7 2.9 6.3 6.1 10.2 14.3 10.2 10.6 0 14.4-7.1 17.7-14.2h0.2c0.4 3.4 0.2 8.6 1.2 13zm-18.1-32.2c-1.9 7.1-6.6 11.1-11.5 11.1-9.6 0-6.6-25-1.3-31.8 2.7-2.8 5.7-4.1 7.9-4.7 3.6-0.9 6.3-3.3 8.8-5.4-1.4 9.2-2 23.5-3.9 30.8z"/><path class="c" d="m310.8 203.4l19.5 1.5 9.7-136.2-14.6-0.8c-2.3 12.7-10.5 22-26.2 20.5l-0.9 17.7 19.1 1.2z"/></svg>