<svg version="1.2" xmlns="http://www.w3.org/2000/svg" viewBox="0 0 497 500" width="497" height="500"><style>.a{fill:#457939}.b{fill:#c02e26}.c{fill:#ffeb00}.d{fill:#c8a62d}</style><path class="a" d="m179.9 79.6c0 0 32.7 76.5 88.9 62.5 0 0-1.3-10.1 2.5-22 0 0 2.8-2.8-1.8-6.6 0 0-23-25.5-24-27.3 0 0-10.6-10.4-24-4.3 0 0-16.5 9.4-41.6-2.3z"/><path class="a" d="m264 23.7c0 0-27.1 41 14.9 85 0 0 6.1-12.4 18.2-9.6 0 0-3-11.9-12.4-21 0 0-6.3-7.6-6.1-9.9 0 0 9.2 10.2 19 12.9 0 0 12.7 5.6 18.8 15.2l9.3-11.6c0 0 14.2-14.2-13.1-21.5 0 0-35.5-16-48.6-39.5z"/><path class="a" d="m385.5 71.3c0 0-2.3-8.9-18.8-10.4 0 0-4.5-1.3-1-6.8 0 0 17-28.6 4.3-53.9 0 0 47.8 15.4 55.7 75.6 0 0 1.5 5.8-3.6 6.6 0 0-6.5 1.8-9.3-9.1 0 0-7.4-35.2-16.5-39.7 0 0 10.9 25.8 3.8 35.4 0 0-1.2 4.8-14.6 2.3z"/><path class="a" d="m438.3 112.5l4.3 11.9c0 0 15-5 23.8-3 0 0-14.9 1.8-20 8.6l14.2 11.4c0 0 2-15 24.6-17.5 0 0-16.7-17.2-46.9-11.4z"/><path class="a" d="m245.7 187.2c0 0 27.9-21.5 31.9-61 0 0 6.4-30.4 16.2-21.8l8.4 7.9c0 0 4 3.8-0.5 9.6 0 0-4.8 25.3 1.8 33.1 0 0-7.1 15-13 16.5 0 0 21.1-1.5 28.4 9.9 0 0 6.3 8.3 8.6 9.6 0 0 15.4 14.9 8.9 29.8 0 0-5.9 11.9-25.6-1 0 0-31.1-28.3-65.1-32.6z"/><path class="a" d="m304.5 261.6l13.1-22.5c0 0 5.8-6.9 8.6 1.2 0 0 7.1 19.8 9.1 20.8l0.8-0.3 0.3-1.5-0.8-0.7-0.8-1.3c0 0-2.8-17-2-19.8l-1.5-5 0.2-2.3c0 0 10.9-5.1 11.7-16.4 0 0 1.8-4.6 7.8-0.5l2.1 0.5 8.6 10.6 1.7 1.3c0 0 15 21 6.1 47.5 0 0-5.8 27.1 1.8 41.5 0 0-31.4-11.9-30.4-29.3 0 0 3.8-25.3-6.1-22l-1.2 0.5c0 0-29.1-2.3-29.1-2.3z"/><path class="a" d="m375.6 234c0 0 32.4 4.6 42.8-2.5 0 0 5-3.8 11.1 1.5 0 0 17.9 13.4 18.2 16.4 0 0 3.3-14.9-8.9-22.2 0 0-3-3.6 0.8-5.8l17.2-18.3c0 0 11.2 55.7 26.6 59.5 0 0-12.2 13.2-69.6 1 0 0-33.7-5.3-38.2-29.6z"/><path class="a" d="m451.3 301.8l-0.3 20.8c0 0 46.3-20.3 46.1-26.3 0 0-24.1-6.6-31.7 0l-0.2 0.7 0.7 0.8 0.8 0.5 15.9-0.3 1.8-0.2h0.8l0.7 0.7 0.5 0.8 0.3 1-2 1.3-1.1 0.7c0 0-23.2 3.1-26.3-3.8 0 0-6 3.3-6 3.3z"/><path class="a" d="m350.8 357.3c0 0-10.9-29.1-16.2-30.2 0 0-2-6.5-4.3-4.3 0 0-7.6-5-2.8 3.6 0 0 6.1 10.9-4.6 20 0 0-29.8 49.3 13.2 66.5l1-0.2 0.8-0.8 0.7-0.5 0.3-0.7c0 0-22.3-12.7-14.2-33.2 0 0-1.8 22.5 24.8 27.6 0 0 14.2-6.3 25.3-7.1 0 0 9.1-12.9 6.1-21.5 0 0 0.8-4.3-5.3-0.8l-16.2 6.6 1.2 3.6v1l-0.5 0.7c0 0-7.3-3.5-5.8-12.6 0 0 17.5-10.1 22.8-7.9l30.9-16.4 1.2-1.5 0.5-1.3c0 0-3-13.2-1-12.9l-12.4 0.2-0.5 0.8c0 0-45 21.3-45 21.3z"/><path class="a" d="m210.6 265.2c0 0 4.9-24.5 10.2-28.2q0.1-0.1 0.3-0.2c5.4-2.8 39.1-2.1 39.1-2.1 0 0-13.9 12.5-24 15.2 0 0-20.3 7.8-25.6 15.3z"/><path class="a" d="m235.8 296.8l0.2 20.8c0 0-9.5-7.5-0.4-21.6"/><path class="a" d="m290.6 231.9l12.5 4.5c0 0-17.5 20.7-34.4 28.4l-9.1-0.6-7.7 8.6c0 0-29.8 16.6-63.2 15.2 0 0-55.7 2.8-65.3 8.2l-1.6-8.7-3.1-5.4c0 0 27.4-9.3 69.2-9.1 0 0 60 1.7 102.7-41.1z"/><path class="a" d="m168.3 196.5l-17.3 23.9c0 0 23.8 31.7 24.2 36.7l11-21.7c0 0-6.6-3.1-11.6-1.9l-4.5-2.6-0.2-9.9-0.8-1.4c0 0-0.8-23.1-0.8-23.1z"/><path class="a" d="m130.4 247.2c0 0 12.9 16.6 13.3 20.2 0 0-6.4 1.6-7.4 0.4-1-1.2-3.7-17.5-5.9-20.6z"/><path class="a" d="m111.9 224.3c0 0 27 14.3 37.9 38.5 0 0 14.8-4.9-9.1-33.1q-0.1-0.1-0.2-0.2c-24.2-28.4-72.5-51.4-111-50.8 0 0 49.5 31.1 56.8 71.8 0 0 2 13.3 20.5 15.5 0 0 18.4-3.2 22-0.8 0 0-1.8-21.2-16.9-40.9z"/><path class="a" d="m3 337.3c0 0-15.4 57.9 23.5 58.5 0 0-8.8-5.9-7.6-13.1l-3.6-0.2-0.5-24.1c0 0 5.2-7.6-10.1-8.2 0 0-1.7-12.9-1.7-12.9z"/><path class="a" d="m116.1 374.9l6.9-14.3 0.7-0.8 1-0.3 3.5 0.5 1.6 0.4 0.5 1-0.1 19-3.4-0.3-10.9-5.3"/><path class="a" d="m120.8 426.4c0 0 2.5 0.1 0.3-9.9 0 0-3-7 6.5-10.6 0 0 2.5-0.9 1.6-5.1 0 0 0-3.9 0.9-4.5 0 0 2.2-8.4-2.6-7.8 0 0-15.7 13.8-6.7 37.9z"/><path class="a" d="m125.4 444.8c0 0 3.8 11.9 9.4 18.8 0 0 9 12 10.3 14.8 0 0 0.3-6.8-3.7-15 0 0-2.6-7.7-0.4-12.3z"/><path class="a" d="m183.4 357.8l13.4-7.5 1.5 2.9-0.1 9.7c0 0-7.6-0.8-14.8-5.1z"/><path class="a" d="m185.1 371.9c0 0 9.1 1.8 15.3 2.8 0 0 4.2-0.2 5.4 2 0 0 1.1 1.6 5.3 1.1l4.5-0.4c0 0 17.9 2 22.1 1.4 0 0 2.5 1.4 5.8 0 0 0 14.3 0 15.2-0.3 0 0 3.9-0.1 4.6 2.9 0 0 5 6.2 11.3 9.8 0 0 5.6 2.9 0.3 4.4 0 0-9.4 2.3-25.1 0.8 0 0-0.8 1.3-30.4-0.7 0 0-32.4-4.2-34.3-8.2 0 0 0-15.6 0-15.6z"/><path class="a" d="m210.9 402.8l33.5 1.9c0 0 13.6 0.4 23.6 17.9 0 0 0.3-7.1-7.7-17.8 0 0 11.3-0.2 12-1.2 0 0 4.7-1.2 10.9 23.5 0 0 6.7 32-24.3 54.6 0 0 14.8-23.6-11.4-35.9-26.2-12.2-32.8-21.6-36.6-43z"/><path class="b" d="m328.3 178.8c0 0 14.9-14.7 9.5-26 0 0-3.6-8-1.5-24.7 0 0-0.5-5.4-2.4-7.6 0 0 0-6.4-4.7-10.8 0 0-1-8.4-3.4-9.2 0 0 0.3-9.5 1.9-12 0 0-12 12.3-11.5 26.5 0 0-18.7 10.9-5.1 40 0 0 3.1 11.8 7.6 14.8 0 0 3.6 4.1 3.7 5.4 0 0 3.9 4.2 5.9 3.6z"/><path class="b" d="m330.7 93.4l2.9 7.9c0 0 2.2 12 4 13 0 0 2.6 2.9 4.6-1.9 0 0 17.3-23.7 20.1-24.3l14.6-11.9c0 0 2.9-1.9-2.7-3.7 0 0-8.6-0.5-11.3-2.4 0 0-6.9 0-9.1 1.9 0 0-15.3 0.1-19.2 10.8 0 0-5.2 7-3.9 10.6z"/><path class="b" d="m342.1 144.7c0 0-5.7-21.9 14.4-38.4 0 0 9.1-9.6 8.8-10.6 0 0 11.2-18.2 25.5-15.1 0 0 12.6-2 20.5 7.3 0 0 5.7 3 5.7 4 0 0 2.4 2.7 3.5 3.2l4.1 7.6c0 0 2 7 4 8.6l0.6 1.5c0 0 1.2 3.1 2.4 4l4.6 14.5c0 0 7.3 25.3-2.3 28.7l-32.4 10.2c0 0 2-8.2 18.5-21.1 0 0 7.5-5.1 5.1-16.2 0 0-1.4-2.7-3 0.9 0 0-3.9 15.4-15.3 17.1 0 0-4.9 1.5-3-4.5 0 0 7.7-12.9-0.6-19.8 0 0-4.7-9.4-15-6.9l-5.9-1.5c0 0 1.4-3.8 0-4.7 0 0 6.4-14.8 23.9-6.2 0 0 4.4 2.9 6.3 6.4 0 0 5.3 3.5 1.9-3.3 0 0-0.2-9.5-18.6-11.9 0 0-17.1 1.1-21.9 17.6l-10.3 6.3c0 0-7 3-11.1 8.5 0 0-7.9 6.6-10.4 13.8z"/><path class="b" d="m384.1 123.8c0 0-6.6 0.5-4 8.1 0 0 2.6 8.5 6.2 10.1l0.8 0.4 0.8 0.8 2 1.3c0 0 6.3 5.6 9.2-0.5 0 0 4.6-8.2 0.8-14 0 0-1.2-6.6-12-6.7 0 0-2.2 1.6-3.8 0.5z"/><path class="b" d="m333.4 187.1c0 0-0.6-5.5 1.6-5.9 0 0 2.2-1.7 2-4.3 0 0 2.4-5.3 6.7-8.4 0 0 2-6-0.1-9.8 0 0-2.7-5.4 1.2-8.7l2.8-5.5 2.7-1.6c0 0 3.5-5.9 4-5.8 0 0 8.4-4.7 9.3-7.7 0 0-1.8 9.4 1.5 11.5 0 0 3.4 3.3 3.5-5.3 0 0 1.7-9.9 5.2-11.3 0 0-2.4 20.1 16.5 26.8l1.2-0.1h1.2l3.5 1.8-0.2 2.5c0 0 3.4 23.2-16.6 18.6l-0.7-0.4h-9.5c0 0-3.9 1.5-0.1 3.6h0.5l0.9 0.2 1.7 1.5c0 0 1.5 1.2 4.1 0.8l1.1 0.1 4.3 1.4c0 0 3.2 1.9 0.3 5.7 0 0-0.8 1.5-0.1 2.7 0 0-0.1 7.2-7.7 7.9 0 0-5.5 3.1-9.8 1.9 0 0-19.7 5.2-19.6 6.6 0 0-2.5-0.7-3.4-6.3 0 0-5.4-11.9-8-12.5z"/><path class="b" d="m358 209.2c0 0 9.2 4.2 13.5 14.8 0 0 2.8 4.3 6.1 1 0 0 9.6-0.2 11.6-2.8 0 0 22.4-1.7 20.8-32.6 0 0-1.6-3.9 3.5-3.8 0 0 39.9 2.5 48-5.6 0 0 8.6-4.5 7.6-10.5l0.2-1.7v-1.3c0 0 1.4-5.1-4.4-8.1 0 0-6.1-3.8-10.2-9.4 0 0-2.7-3-6.5-4.5l-0.9-1.8-4-5.7 0.4 16.5c0 0 1.9 8.9-5.9 10.5l-0.7 0.3c0 0-18.9 9.6-25.3 9.3 0 0-15.6 6-25.5 4 0 0 7.8 10.8 1 19.3 0 0-2.7 6.3-8.3 6.8 0 0-5.6 1.9-7.6 1 0 0-14 1.6-13.4 4.3z"/><path class="b" d="m418 191.1c0 0 21.7 3.8 37.3-1.4 0 0-2 5-5.7 7.5 0 0-8.7 6.1-8.9 9.1 0 0-8.4 11.8-16 12.3 0 0-12.8 7.6-16.2 7.6l-1.9 1.5c0 0-9.1 1.9-12.9 0.7 0 0 15.5-9.3 18.4-15.5l0.6-0.9v-0.8l5-14.4z"/><path class="c" d="m45.1 1.7l41.5-0.8 5.3 0.5 23.3-0.2 3.8 0.5h10.1l2.3-0.8 6-0.5 1.3 1h7.3l1.3 1.5-2.3 2.1v40.2l0.8 2.3 0.2 4.5c0 0 2.3 7.4-6.3 6.9-8.6-0.5-6.3 1.2-6.3 1.2l-0.4 40.4c0 0 1 0.9 3.4-0.9l32.2-20.9h1l0.7 0.3 0.3 0.5v0.6 0.8l0.1 0.7v0.9l0.3 1.3 0.2 0.6c0 0 24.8 61.5 76.1 67.7l1.5 0.5 1 0.8 1.6 1.5 3.5 3.2c0 0 1.6 1.6-0.5 5l-3.7 4.7-13.8 14.6v8.2c0 0 3 7.3 12.6 5.7 0 0 19.1 5.7 29.8 12.8l2.3 1.4 1.2 1.4 0.5 0.9 0.2 0.7v0.8c0 0 0.6 5.7 1.3 5.8l-0.1 4.4c0 0 1.2 3.8-6.9 3.8l-8.5-0.2-1.5-0.5-1.7-0.7-1.2-0.6-0.8-0.3-54.3 2.1-1.9 0.3-13.7-0.8c0 0-13.1-4.2-13.6-3.2 0 0-3.6-6.1-1.7-14.6 0 0-1.4-27.4 0-36.4 0 0-1-2.7 4.3-2.3l7.1 0.3c0 0 6 0.1 5.8-1.7 0 0 0.2-1.7-2.9-4 0 0-35.8-33.1-36.2-35.5l-0.5-0.8-0.1-0.9-0.4-0.9-0.3-0.8-0.7-0.7-0.4-0.5-1-0.7-0.6-0.2-0.8-0.2c0 0-8.6-1-12 3.8l-1.4 0.9-8.8 6.2c0 0-3.8 4.1-4.1 5.3l-0.1 0.9 0.4 0.9 0.5 0.8 0.1 0.5 0.1 0.7v0.7c0 0-0.9 13.1-0.5 15.2 0 0-1.9 8.7 6.8 9.6l8.9 1c0 0 4.4-0.6 3.2 6.4l2.6 17.5c0 0-0.1 3.3 1.6 4.8 0 0 1.9 4.4-2.2 8.5l-7 7.6c0 0-17.8-22.7-42.1-28.5l-0.8-0.4-0.7-0.5c0 0-25.5-10.2-35.2-12.7 0 0-5.1 0-7.8-2.2l-0.3-0.9 0.4-0.8 0.5-0.1 0.8-0.1c0 0 8.6 2 8-6.5v-1-1.7l0.4-1.7 0.4-1.4 0.3-0.9 0.1-0.7 0.1-1.5c0 0-1.3-4 1.5-11v-1.6l0.3-2.5c0 0-0.1-14.8-1.4-15.9v-0.6-1.1l-0.6-11.6c0 0-0.3-12.3 0.7-18.3l-0.1-1v-1l-0.3-2-0.2-0.9-0.4-2-0.2-1.2-0.3-1.3c0 0-1.5-9.9 0.6-11.9l0.3-0.8v-0.6c0 0 0.1-3.6-1-4.6v-2.9l0.1-0.8c0 0 1.3-2.2-7.5-2.4l-17.2-0.6-0.3-0.9-0.4-0.9 0.1-7.4c0 0-0.8-7.2-2.9-9.6 0 0-2-5.9 2.6-12.3 0 0 2.3-3.7 1.2-9l0.1-5.8c0 0 0.4-9.5 6-10z"/><path class="c" d="m174.5 7.1v3.8 1.4l-0.8 17.1c0 0 0.2 2.4 1.6 6.4l0.1 2.2v0.8c0 0-0.5 11.4 0.2 12.9l-0.1 0.7 0.1 0.8v0.4c0 0-1.6 4.2 4.4 4l7.2 0.1c0 0 7.7-0.1 7.7 2.2 0 0 1.3 1.9-2.6 2.9l-7.8 4.9c0 0-2.4 1.8 1 3.4l15 6.3c0 0 6 1.8 11.3-2.2 0 0 9.4-3.7 18.3-3.6 0 0 3.5-0.7 5.5-3 0 0 7-5.6 9.2-6.9 0 0 2.9-2.3 1.6-6.8 0 0-0.7-27 8.3-35 0 0 3.1-4.7 7.8-4.6 0 0 5.2-0.9 8.7 2.9 0 0 2.6 1.6 2.5-3.7l-0.3-8.3c0 0 0.9-4.1-7.9-4l-7.9 0.1v0.5h-4v-0.6l-24.9-0.6-48.4-0.2c0 0-5.8-0.7-5.8 5.7z"/><path class="c" d="m40.2 202.4c0 0-2.9 8-0.3 12.2 0 0 1.5 4.3-0.4 5.2l-0.1 1.9 0.1 2.7c0 0-2.3 4.9 2.3 5.2 0 0 12.3 2.7 20.2-0.1 0 0 2.4-1.8-0.9-4.6 0 0-16.5-22.2-20.9-22.5z"/><path class="c" d="m52 268.9c-3.7 0-7.1 1.8-7.1 1.8-0.8 1.1-14.2 1.5-14.2 1.5-7.5-1.5-7.5 1.4-7.5 1.4l-2 7.6-0.2 14.2c-2.3 11.5 0.5 29.1 0.5 29.1 0.8 1.9 5.3 2.1 5.3 2.1 7.1 1.8 5.9 6.6 5.9 6.6-0.7 4.2 0 37 0 37h0.3l-0.1 2.9 0.4 0.1v5.6h-0.5v3.6l-0.8 0.7-0.1 4.4c4.4 5.2 2.9 10 2.9 10-3.4 5.1-2.4 7.1-2.4 7.1l0.1 5.9-0.6 14.8v5.6c1.5 3.7-0.5 4.3-0.5 4.3-0.8 1.1-7.3 2.8-7.3 2.8-4.5 1.5-3.7 3.9-3.7 3.9l-0.5 12.9-0.2 1.2-0.1 1.2v1.2c1.2 5.4-0.5 21.9-0.5 21.9l-0.1 5.3c0.4 10.7 4.2 9.6 4.2 9.6h11.7c15.3-2.4 21.5-0.6 21.5-0.6 17.1 1.5 16.1-2.7 16.1-2.7l-0.3-12.4 0.2-0.6 0.3-1.2 0.2-1.6v-0.7-1.8l0.1-2.2c0.2-4.3 1.4-10.4 1.4-10.4l-0.2-16.9c0.1-8.5-5.2-6.9-5.2-6.9-6.6 0.9-6.9-2.5-6.9-2.5 0.4-3.2-1.9-20.4-1.9-20.4l0.2-9.6v-0.5c1.6-3.1 1-9.5 1-9.5 0.5-5.8 7.1-5.3 7.1-5.3 23 1.1 18.1 31.4 18.1 31.4-1.8 11.7 2 42.5 2 42.5-1.6 2.8-0.3 8.4-0.3 8.4l3.4 11.2c3.3 10.5 16.1 13.9 16.1 13.9 17.5 2.8 20.8-9.6 20.8-9.6l3.2-6c4.4-6.9 0.8-10.9 0.8-10.9-5.3-6.4-10.9-18.6-10.9-18.6-1.7-2.7-1.2-10.2-1.2-10.2l0.1-0.7-0.9-0.8-3-2.2c-0.3-2.3-3.7-7.5-3.7-7.5l-1-0.9c-2.5-4.5-0.8-30-0.8-30 0.7-11-10.2-15.7-10.2-15.7l-7.2-2.2-0.5-0.3 0.1-0.4 1-0.6 1.3-0.7 1.4-0.5 1.6-0.9c14.6-2.5 20-27.3 20-27.3-0.3-1 0.9-9.9 0.9-9.9l0.1-1.1c2.2-9-3.8-43.8-3.8-43.8-3-20.9-24.2-23.8-24.2-23.8l-1.1-0.1h-2.4l-1 0.1c-2.7-1.5-9-1.1-9-1.1-7.2 1.4-22.5-1.4-22.5-1.4-1.2-0.5-2.4-0.8-3.7-0.8zm16.1 57.4q0.5 0 1.1 0c0.9 0.1 1.9 0.2 3 0.5l10.3 2.6c0 0 3.5 1.9 4.7 5.1l0.6 1.5 4.4 8.7c0 0 4.6 13.5-3.3 17.5l-0.7 0.9-0.8 0.6c0 0-9.1 11-23.2 4.1l-0.1-0.8-0.1-0.7-0.3-5.7-1.3-7.7 1.9-21c0 0-1-5.2 3.8-5.6z"/><path class="c" d="m125 436.6l-0.6 1-0.4 0.6c0 0 9.5 1.9 10.7 3.8 0 0 0.4-7.6-0.1-9.8l0.1-8c0 0 0-5.2-0.4-5.6l-0.2-3c0 0-1.7-4.5-4 1.3l-0.1 0.7 0.2 0.8c0 0 0.8 9.2-0.7 11.2 0 0-4.4 5.7-4.5 7z"/><path class="c" d="m147.3 329.3c0 0 1.9-24 3.5-25.7 0 0-2.3-4.7 13.4-5.7 0 0 40.6-1.2 43.8-2.6l0.9 0.5 0.1 0.9c0 0 4.3 8.9 8.5 12.6 0 0 13.2 13.7 13.8 17.5q0 0.1 0 0.3c-0.1 3.2 0.4 0.6 0.4 0.6l0.6 1.4c0 0 3.9 9.1 2.2 16.3l0.4 17.1 0.1 1.8c0 0 1.7 8-6.7 5.6 0 0-15.2-1.2-15.7-0.8 0 0-6.2-0.2-6.2-8.5l0.1-10.1c0 0-2.5-9.9-1-11.6v-1.4-0.8c0 0-2.2-10.3-14.8-10.5 0 0-9.3 3.6-10 12.2l-0.5 8.7c0 0 2.2 2.9-9.6 8.5l-0.2 0.6-0.2 1.2 7.1 6.3 0.9 0.6 0.1 0.7 0.2 1.2-0.3 0.9-0.5 0.5-0.5 0.8 0.1 23.8c0 0 2.7 2 2.6 5.9v2.3l0.1 0.7 0.2 9.3c0 0-0.8 5.1 0.8 6.3l0.4 1.3v1.2l0.2 1.3c0 0 0.5 11 4.5 13.4 0 0 7.3 8.9 13.7-2.1 0 0 4-7.1 4.5-15.5l1.2 1.2 0.9 1.2c0 0 8.6 20.2 24.6 29.8 0 0 3.4 1.9 0.7 8.8 0 0-1.4 8.1-0.9 8.8 0 0-4 31.5-34.4 33.9h-9.6c0 0-20.4 0.2-30.6-18.7 0 0-8.7-22-8.6-40.4l-0.6-51.8 0.1-59.5"/><path class="c" d="m272.1 267c0 0 26.3-3.3 32 15.8l0.5-0.1 0.4-0.4 0.4-12.1v-0.6l0.2-0.5 6.3-0.3c0 0 2.1 0.1 2.2 2.3l14.5 0.7c0 0 4-0.3 3.1 7.9l-0.2 1.5v8.1c0 0-1.1 8.7 1.6 15.2 0 0 0.1 9.5 0.3 9.9l-0.5 0.7-0.2 0.4-0.9 0.5-1.1-0.1c0 0-10.2-1.9-10.4 6.3 0 0-0.8 4.9 1.8 6.7l0.5 0.6v1.1 1.1l-3.7 10.3c0 0-1 6.7-8.5 2.6 0 0-4.5-1-5.3-0.2 0 0-1.4-1.2-2.2-8.3 0 0-1.7-12.6-14-9.7 0 0-11.1 4.3-6.8 15.3 0 0 1.2 4.2 0.6 4.8 0 0 1.4 4.1 9.5 9.7l1.4 1.1 1.6 1.3 0.4 0.8 11.8 7.9 1.4 1.3 0.9 1.7-1.6 0.9c0 0-5.9 26.9 13.3 40l0.4 0.2c0 0 8.5 7.1 14 6.5l0.6 0.1 0.5 0.1 0.3 0.4 0.5 0.5 0.5 0.8 0.2 0.7c0 0-0.4 33.3-4.3 50 0 0-8 33-32.2 26.1l-5.4-0.4c0 0-6.7-1.3-9.2-6.7 0 0-2.7-3.9-4.1-4.2l-0.9-1.6-0.1-0.9-0.8-0.8-0.3 4.5-0.3 0.5v0.7l-0.1 2.7-0.4 0.5c0 0 1.3 5.8-7.6 3.5 0 0-11-0.4-12.9-0.9 0 0-6.3 0.3-7 1.3-0.6 1-0.3 0-0.3 0l-0.3-1.3v-1l-0.1-6.4c0 0 2.5 6.7 13 2.4l1-0.6 0.7-0.4c0 0 20.3-14.2 23-32.6 0 0 2.8-12.4 2.1-15.5v-1l0.2-0.5 0.3-0.5 0.4-0.6 0.5-0.3 0.7-0.3 0.6-0.2 0.5-0.2 0.6-0.1 1-0.1c0 0 14-5.5 6.9-27.4q-0.1-0.2-0.1-0.5l-2.5-3.1-4.4-5.8c0 0-6.6-5.9-7.6-6.1 0 0-6.7-6.2-7.1-8.6 0 0-5.3-7-9.7-8.5l-1.4-0.6c0 0-10.2-7.4-11.1-10l-8.5-18.1c0 0-2.5-14.6-1.3-22.7l0.1-1.2v-2.1-10.5-1.6l0.3-1.7v-1.1l7.3-27.2c0 0 3.5-10 14.5-11.8z"/><path class="a" d="m238.3 293l2.6-3.2c0 0 6.5 1.7 5.1 4.6l-0.5 0.6-0.4 0.8-1 1.2-0.5 0.5c0 0-3.3 4-4.4 9.9l-0.8-7.6c0 0-0.1-6.8-0.1-6.8z"/><path class="c" d="m351.3 317.6c0 0-1 6.9 2.5 7.3l5.2-0.4c0 0 4.1-2 0.2-4l-4.7-3.7c0 0-1.9-1.9-3.2 0.8z"/><path class="c" d="m379.8 269.2c0 0-7.9 28.7-0.5 40.3 0 0 0.5 8.3 0 8.4 0 0-1.5 6.1-6.1 6.1h-6.1c0 0-3.3-0.8-2.8 7.8l0.6 7.9 27-11.6c0 0 1.9-3.6 6.3-3.7h14.7c0 0 8.9-0.9 5.5 11.3l-0.1 2c0 0 0.8 15 1.7 17.5l1.1 2.7 0.7 0.9 18.1-0.4c0 0 3.3 0.5 3-6.5l0.3-1.2 0.5-2.2 0.5-2.9-0.5-17.2c0 0-3.8-30 0.5-33.2l0.2-15.7c0 0 0.9-3.2-6.1-4.1l-7.4-0.1c0 0-6.4-0.9-12.6-2.7l-13.9-3.3c0 0-25.6-4-24.6-0.1z"/><path class="c" d="m393.8 368.6c0 0-6.9 3.2-7.1 4.5l-0.5 10.6c0 0 0.2 18.1-11.8 20.1l-2 0.5c0 0-6.3-0.8-5.8 6.8 0 0 4.2 24.5-2.9 26.5q-0.3 0.1-0.6 0.1h-0.7l-0.7-0.3-0.3-0.5-0.5-0.3-0.7-0.2c0 0-5.5-0.2-6 1l0.1 6.6-1.3 18.7c0 0-4.1 15.7-0.4 23l0.4 3 1 4.9 8.8 0.3 18.5 0.9c0 0 10.5 3 32.7-1.2h28.4c0 0 5 1.3 3.5-6.3 0 0-1.8-16.8-0.5-18.2v-1.5l-0.3-20.1c0 0-0.7-34.2 1.2-35.7 0 0 2.3-8.7-7.8-7.8l-14-1.4c0 0-4.7-2-4.5 6.3l0.5 16.2 0.3 5c0 0 2.2 9.3-6.1 7.6l-1 0.4-15.2-0.2c0 0-4.4 1.5-3.9-4.6 0 0 0-22.2-1-23.2 0 0-0.3-18.1 1-18.8 0 0 7.6-1.8 11.7-0.5l11-0.3c0 0 8.2 0.7 4.5-10.5l-0.2-1.1v-1.2l0.4-1.5 0.3-1.4c0 0 4.6-8.3-7.1-6.2 0 0-19 1.6-21.4 0z"/><path class="d" d="m83.4 41.5c0 0-2.8 2.9-0.4 5.4 0 0 2.7 2.6 3.9 1.5l0.7-0.7 0.3-0.5v-0.6l-0.1-0.5-0.5-0.5c0 0-1.1-1.5-0.6-1.8v-0.5l-0.4-0.6c0 0-1.5-0.8-1-1.7l-0.3-0.5-0.3-0.4h-0.7l-0.4 0.6c0 0-0.2 0.8-0.2 0.8z"/><path class="d" d="m121.4 1.7c0 0 2 1.6 0.8 2.8l-0.2 1 0.1 0.7 0.5 0.9c0 0 0.7 2.2 1.5 2.2 0 0 1.3 0 1.2-1.7l-0.1-2.8-0.3-0.5-0.2-0.6-0.2-0.5v-0.5l0.4-0.5 0.8-0.5c0 0-4.3 0-4.3 0z"/><path class="d" d="m128.8 1.7l0.8-0.2 1-0.4c0 0 7.3-0.4 8.9 0.7l-0.4 0.4-0.2 0.7v0.6l0.2 0.9v0.5c0 0 0.1 3.4-0.8 3.9v1l0.5 1.9-0.1 0.4 0.4 0.6-0.1 1.4-0.3 0.4c0 0-0.4 4.8-2.5 0.9v-0.5l-0.2-0.8-0.2-0.5-0.1-1.1-0.2-0.5 0.2-0.7 0.2-0.6 0.3-0.6 0.2-0.7 0.9-0.1 0.1-0.6-0.4-0.1-0.5-0.3c0 0 0.4-5.4-3.9-5.1 0 0 0.5 3.2-0.6 3.2l-0.4 0.2v0.6l0.5 0.3 0.5 0.2 0.1 0.3v0.8l-0.1 0.6-0.5 0.3-0.5 0.5-0.5 0.3h-0.5l-0.4-0.6v-0.8l0.1-0.5v-0.7l0.3-0.6 0.4-0.1 0.1-0.6-0.8-0.1c0 0-1.9-1-0.6-2.5 1.3-1.5 0-0.4 0-0.4 0 0 0.3-1.3-0.9-1.9z"/><path class="d" d="m132.1 12.1c0 0.4-0.3 0.7-0.7 0.7-0.4 0-0.7-0.3-0.7-0.7 0-0.4 0.3-0.7 0.7-0.7 0.4 0 0.7 0.3 0.7 0.7z"/><path class="d" d="m95.3 34.3c0 0.3-0.3 0.7-0.7 0.7-0.4 0-0.7-0.4-0.7-0.7 0-0.4 0.3-0.7 0.7-0.7 0.4 0 0.7 0.3 0.7 0.7z"/><path class="d" d="m83.9 34.2c0 0.2-0.2 0.4-0.4 0.4-0.2 0-0.4-0.2-0.4-0.4 0-0.2 0.2-0.4 0.4-0.4 0.2 0 0.4 0.2 0.4 0.4z"/><path class="d" d="m141.6 59c0 0-2.1-1.5-2-2.4 0 0-1.9-4.1-4.8-0.1l-0.4 1-0.1 0.5-3.1 0.4c0 0-4.8 4.7-5.3-3.1 0 0-2.4-5.7-4.8 1.5l-0.1 0.8-0.1 3.3-0.7 1.8c0 0-1.7 2.1 0.5 4.9l0.3 0.5v1c0 0-2 7.1-0.1 8.7 0 0 0.8 6.8 3 7.1l0.9-0.5 0.4-0.9 0.1-0.7v-1.8l0.2-0.7 0.3-0.5h0.6 0.9c0 0 3.7 2 4.7 1.7l0.9 1.5 0.1-2.1 0.1-0.8 0.1-1-0.1-0.9-0.1-1.2 0.1-1.8v-0.6l0.4-0.7-0.3-1v-1.2c0-0.4 0.3-1.3 0.3-1.3v-1.1l-0.3-0.4v-0.4l-0.1-1-0.1-1.7 0.8-0.6-0.2-1.1-0.2-0.9v-1-0.7l-0.2-0.5c0 0 2.6-1.1 4.1-0.9l0.9-0.3 0.6-0.3 1.3-0.2h0.5c0 0 1-0.3 1-0.3z"/><path class="d" d="m80.4 71.8l0.3 1.9c0 0 0.8 3.5-1.9 3.5l-0.6-0.5v-0.7-0.9-1l0.4-0.5 0.5-0.6 0.5-0.3c0 0 0.8-0.9 0.8-0.9z"/><path class="d" d="m75.7 84.7c0 0-0.1 4.4-1 4.4 0 0-0.8 2.9 1.4 3.3l0.5-0.3c0 0 2-0.2 1-4.6l-0.9-2.8h-0.4z"/><path class="d" d="m84.5 92.4l-0.5 0.5-0.1 0.6v0.8c0 0 0 1.6 1.3 2.4l0.3-0.6 0.2-0.4 0.5-0.6v-0.7l-0.4-0.4-0.3-0.3v-0.4l-0.1-0.8c0 0-0.9-0.1-0.9-0.1z"/><path class="d" d="m84.4 100.5c0 0-1.3 2.8 0.5 3l0.5-0.2 0.3-0.5v-0.8l-0.3-0.4-0.4-0.6-0.1-0.4c0 0-0.5-0.1-0.5-0.1z"/><path class="d" d="m80.2 120.5l-0.5-1c0 0-3.6-4.9 0.3-7.1l0.9 0.1 0.7 0.4c0 0 0.7 0.6 0.8 1.1 0.1 0.6 0.4 1.6 0.4 1.6l-0.3 1.4-0.9 3.1c0 0-1.4 0.4-1.4 0.4z"/><path class="d" d="m80.4 120.9l1-0.1 0.6 1.3-1.6 0.2z"/><path class="d" d="m191 1.5l0.3 0.3 1 0.5 0.9 1.1 0.6 1h0.7l0.7-0.3 0.4-0.3c0 0 1.8-2.5 4.1-2.3 0 0-8.7 0-8.7 0z"/><path class="d" d="m231 1.6c0 0 1.2 2 0.2 2.9l-0.2 0.9 0.1 0.3 0.5 0.7 0.5 0.5 0.4 0.6 0.3 0.5c0 0 0.5 0.6 1.2 0.6 0 0 3 0.1 2-4.8 0 0-0.4-2 1.5-2.1 0 0-6.5-0.1-6.5-0.1z"/><path class="d" d="m240.3 1.8c0 0 5.1 4.5 4.9 10 0 0 0.7 4.6 5.5 1.3l0.6-0.3h0.5c0 0 7.7-2.4 4.7 5.2 0 0 7.5-5.1 14.1 0l0.5 0.7 0.7 0.4 0.6 0.1h0.5c0 0 1.8-0.4 0.7-5.9v-7.8c0 0 1.2-4.1-8.3-3.3 0 0-25-0.4-25-0.4z"/><path class="c" d="m256.9 5.9c0 1.1-1 2-2.1 2-1.1 0-2-0.9-2-2 0-1.1 0.9-2.1 2-2.1 1.1 0 2.1 1 2.1 2.1z"/><path class="d" d="m195.4 12.1c0 0.4-0.4 0.6-0.9 0.6-0.4 0-0.8-0.2-0.8-0.6 0-0.3 0.4-0.6 0.8-0.6 0.5 0 0.9 0.3 0.9 0.6z"/><path class="d" d="m204.2 219.3c0 0-5 2.7-1 5.3 0 0 1.8 0.1 2.5-1.8l0.2-1.9-0.2-0.4-0.4-0.4-0.3-0.4-0.2-0.3-0.5-0.3c0 0-0.1 0.2-0.1 0.2z"/><path class="d" d="m218.3 227.8c0 0 3-0.6 0.7-2.8 0 0-1.1-2.1 1.3-3.5 0 0 0.6-3.1 2.6-2.1l0.3-0.6 1-0.2h0.4 0.5l0.2 0.1 0.6 0.5v0.5l-0.4 0.7-0.5 0.2-0.8 0.4-0.3 0.4-0.4 0.6c0 0-1.3 2.1-0.9 2.5 0 0 0 1.1-1.2 1.4 0 0-0.5 1.9 1.8 1.8l0.3 0.2c0 0-5.2-0.1-5.2-0.1z"/><path class="d" d="m227.8 227.6l13.3-0.7c0 0-5.7-0.4-2.8-5.1 0 0 1.4-2.2-1.5-2.4 0 0-2.1 0-1.6-3.6 0 0-1.6-3.4-4.1 1 0 0-0.7 1.9 0.3 2.6v0.4l-0.1 0.3c0 0-1.5 0.9-1.4 3.5l-0.1 0.1-0.4 0.3c0 0 0.4 1.9-0.8 2.1l0.2 0.3-0.2 0.4-0.4 0.2c0 0-0.4 0.6-0.4 0.6z"/><path class="d" d="m248.3 216.7c0 0.8-0.6 1.5-1.3 1.5-0.7 0-1.3-0.7-1.3-1.5 0-0.9 0.6-1.6 1.3-1.6 0.7 0 1.3 0.7 1.3 1.6z"/><path class="d" d="m42 229.3c0 0 4.2-3.3 2.5-8 0 0 0.1-4.1 4-1.9 0 0 2.8 1.6 4.5 0.4 0 0 3.6-1.6 3.3 2.7l-0.3 4.9c0 0-0.8 2.1 1.7 2.5 0 0-13.9 0.7-15.7-0.6z"/><path class="d" d="m42.6 271.5c0 0 3.3-0.2 2.2 4.5l-0.3 1 0.4 0.5 1.7 2.7c0 0 1.1 5.8 4.5 5.2 0 0 4.5-1.5 5.2-5.5l0.4-0.3h0.4c0 0 3.3-1.9 3.5-3.2l0.4-0.1 0.6 0.1 0.3 0.4 0.5 0.1c0 0 3.5-0.5 3.9-2.4 0 0 1.8-3.4 3.2-3.2 0 0-13.6-0.7-15-2 0 0-4.8-1.3-7 0.6 0 0-1.8 1.2-4.9 1.6z"/><path class="d" d="m100 274.9c0 0-2.1 0-1.9 2.4v2.1l0.2 1.7v1.2l0.2 1.6c0 0-1.2 4.5 0.6 7.6l-0.1 0.5c0 0-2.2 4.3-0.8 8.1l0.1 0.9-0.1 0.8-0.1 0.8-0.3 0.8c0 0-0.2 1.8 0.3 2.4v7.9l-0.3 7.9c0 0 0.1 6.7 1 7.7 0 0 0.4 0.5-0.3 1.4-0.8 0.9-1.4 4.7-0.6 5.2v1.5c0 0 0.9 8.2-2.1 6.1 0 0-0.9-4.1-3-2.7v0.5l-0.2 0.7-0.5 2.2-5.8-11.5c0 0-2.5-3.5-4.8-3.7l1.3-0.3 0.3-0.8 0.5-0.1h0.4l0.3-1.9c0 0 0.5-3.2 1.1-3.3 0 0 0-4.1 2.8-3.9 0 0-0.4-2.6-1-2.7h1l0.6-0.5h0.4c0 0 2-2.4 1.3-5.2l-0.3-0.5-0.1-4.3c0 0-0.2-2.1-2-1.9l-0.5-0.4-3.1-1.7-0.7-0.7v-0.6l-0.3-1.2 0.1-2.7c0 0-3.2-1-3.4-2.2l0.4-0.4 0.3-0.9 0.6-0.1v0.4l0.5 0.1h0.4l0.2-0.5 0.4-0.6c0 0 1.9-0.3 1.7-5.1l0.3-0.1 0.2-0.8 1.1-2.6 0.5-0.1 0.4 0.1 0.1 0.7 0.4 0.2 0.4 0.2 0.1 0.5 0.3 0.4 0.3 0.1 0.3-0.5 0.1-0.4 0.5-0.8 0.3-0.4 0.2-0.5c0 0 0.4-4.6 1.7-4.5 0 0 0.8 0.4 0.9 2.6q0 0.2 0 0.4c0 2.5 0.6-0.4 0.6-0.4l0.5 0.5c0 0 2.5 1.2 1.9-4.2l0.1-0.6 0.3-0.5c0 0 0.1-3.1-0.8-3.1 0 0 4.6 1.7 4.6 1.7z"/><path class="c" d="m95.5 299.8c0 1.3-0.5 2.3-1.1 2.3-0.6 0-1.1-1-1.1-2.3 0-1.2 0.5-2.3 1.1-2.3 0.6 0 1.1 1.1 1.1 2.3z"/><path class="c" d="m95.8 323.8c0 1.9-0.6 3.5-1.3 3.5-0.8 0-1.4-1.6-1.4-3.5 0-1.8 0.6-3.4 1.4-3.4 0.7 0 1.3 1.6 1.3 3.4z"/><path class="d" d="m101.7 276c0 0 1.8 1.2 0.7 4.1l0.1 1.5c0 0 0.1 2.5 0.4 3.4 0.2 0.9 0 3.2-0.4 3.5-0.4 0.4 0.5 5.7 1 6.6 0 0 0.3 3.8-0.4 3.9-0.6 0.2 0.3 2.7 1.1 3.3 0.7 0.7-0.2 2.7-0.7 3.1-0.5 0.4-0.4 4.2 0.4 4.9 0.8 0.8-0.8 3.2-0.9 3.6-0.1 0.3-0.5 3.6 0.9 5.3 1.4 1.6-1 3.6-1.2 4.6-0.1 1.1-0.5 3.3 0 4.1 0.6 0.8 0.4 1 0 1.3-0.3 0.2-0.3 4.1 0.9 5 1.3 0.9 1.1 4.5 3.2 1l0.1-0.8v-8.4c0 0-0.6-9.6-0.8-10.1-0.3-0.5 0.5-7.2 1-8.6v-1.2-0.7l-0.2-0.8-0.3-0.7v-1.3-0.9l0.1-0.5c0 0 0.5-7-0.3-7.2 0 0-0.2-6.3 0.9-6.9v-1.6-0.9l-0.4-0.6c0 0-0.2-3.9 2.4-2.5 0 0-4.3-5-7.6-5.5z"/><path class="d" d="m87.3 314.5l-0.1-0.5-0.3-0.7-0.1-0.7v-0.4l0.1-0.5 0.2-0.5v-0.6-0.5l-0.4-0.8-0.9-0.5-0.6 0.2-0.4 0.7-0.4 0.6v0.5 0.5l0.1 0.5 0.5 0.3v0.6l0.3 1 0.4 0.4 0.5 0.3 0.5 0.1c0 0 0.6 0 0.6 0z"/><path class="d" d="m20.6 298.3c0 0 1.5 3.9 2.6 2.1 1-1.7 1.5 0.3 2.5 0.8 1 0.5 1.9 0.3 2.3-0.6 0.4-0.9 3.8-0.3 3.6 3.4 0 0 0.3 7.8 1.1 8.3l0.7 0.5-0.4 0.8v0.8l0.3 1 0.6 0.1 0.1-0.8v-0.6l0.2-0.5c0 0 2.6-1.4 2.8-3.2l0.6-0.1 0.5-1.1c0 0 1.6-0.2 1.4 2.8 0 0-0.1 1.6 0.9 2.9 0 0-0.3 4.5-0.7 4.6v1.2 0.7c0 0 0.4 5.2 1.9 5.6l0.3 0.4v0.6l-0.1 0.4c0 0-0.4 3.7 1.6 3.8l0.3 0.8v0.5c0 0 2.1 2.4 2.9-0.8l-0.2-0.6-0.3-0.3v-0.5l0.9-0.4 0.2-0.7-0.5-0.1h-0.5c0 0 0.4-3.3 1.4-2.7 0 0 0.7-3.5-0.3-3.5 0 0 0.9-2.7 0.4-2.8l-0.5-0.4-0.4-0.4v-0.4l-0.4-0.7v-0.7-0.6l0.4-0.5 0.4-0.1 0.9-0.2h0.4l1 0.3 0.4 0.9v0.5l-0.2 0.4-0.2 0.6-0.1 0.5 1.7 5.3 0.3 0.8-0.1 0.4-0.4 0.7-0.3 0.5c0 0-0.9 4.7 1.3 5.9v0.5l2.3 1.9c0 0 1.9 1.1 1.2 4 0 0 3.8 8.7 7.1 5.9 0 0-0.6 7.8 0.1 8.4 0 0 2.4 8.9 1.2 10.5 0 0-0.4 2.7 1.5 3.3 0 0 6.2 2.3 7.6 1.9 0 0-3.2 1.6-1.4 3.2l0.4 0.6-0.2 0.5-0.3 0.6-0.3 0.4c0 0-2.9 9.5-8 7.1 0 0-4.6-3-7.2-0.4l-0.8 0.1-3 1.4h-0.7v0.7c0 0-2.3 4.8-5.5-4.3l-0.1-1.1v-1.2-0.6l-0.1-0.8-0.1-0.5-0.3-0.5-0.2-0.7-0.2-0.7-0.1-0.4c0 0-1.9-0.4-1.8-1.6l-0.4-0.2-0.3-0.6-0.3-0.4-0.6-0.4-1.3 0.3c0 0 0 2.8-3.3 2.7l-0.4-2.2c0 0-2.2-4.7-1.3-8h-0.6l-0.5-0.2-0.5-0.3-0.9-0.1v-31.9c0 0-0.3-2.3-3.2-3.5l-1.6-0.4-0.7-0.4c0 0-6.5 2.3-6.3-8.5v-1.1-1.7-1.5l-0.3-1.6-0.2-0.7v-1.5-2-1.6l0.2-1.2v-2.1c0 0 0.1-4.7 0.1-4.7z"/><path class="d" d="m50.2 308.8c0 0.4-0.3 0.8-0.7 0.8-0.4 0-0.8-0.4-0.8-0.8 0-0.4 0.4-0.8 0.8-0.8 0.4 0 0.7 0.4 0.7 0.8z"/><path class="d" d="m76.7 372.1c0 0-1.5 1.7-0.1 2.4 0 0 1 1.5 2 0.7 0 0 1.3 0.8 1.9-0.6l0.2-0.5v-0.6l-0.5-0.9-0.5-0.4h-0.6l-0.6-0.1-0.4-0.3c0 0-0.4-2.1 0.5-2.3 0 0-2.9 0.7-3.6 0.7h0.7c0 0 1.4 1.9 1 1.9z"/><path class="d" d="m87.3 370.4c0 0.3-0.2 0.5-0.5 0.5-0.3 0-0.5-0.2-0.5-0.5 0-0.3 0.2-0.5 0.5-0.5 0.3 0 0.5 0.2 0.5 0.5z"/><path class="d" d="m108.6 372.1c0 0-3.7 4-5.9 4.9 0 0 2.2-2.4 1.1-4.2l0.7-0.5v-0.7l-0.2-0.5-0.1-0.4 0.3-0.2c0 0 1.8-0.6 2.1 1.9 0 0 0.6 1.6 2-0.3z"/><path class="d" d="m99.3 377.9c0 0-1.9-0.6-1.4-4.9v-0.6-0.6-0.5c0 0-0.5-3.4-2.4-0.6 0 0-0.6 4.8 0 5.8 0 0 1 2.1-0.5 3.3l1-0.5c0 0 1.4-0.2 3.3-1.4z"/><path class="d" d="m20 446.2l0.1 0.7 0.5 0.5 0.4 0.5 0.3 0.5c0 0 3.4 5.5 4.9 0.6 0 0 0.3-2.7 1.5-2.7 0 0 3.3 1.9 2.9 7.5 0 0 1.8 3.4 3.1-1.4 0 0 0.6-5.5 2.6-5 0 0 2.2 0.2 2.4 9.7l0.3 0.4v1.1l-0.1 0.9c0 0 3.4 5.9 4.9 0.3l0.2-1.1v-0.6l0.4-0.6 0.3-0.7c0 0 2.6-4.8 5.3 1.1v0.3 0.8l0.1 0.5c0 0 0.9 2.2 2.2 2.9 0 0 2 2.4 1.9 4.2 0 0 1.2 2.9 1.9 2.8 0 0 1 0 0.6 1.4 0 0-0.4 4.9 1.9 5.4l2.5-0.1c0 0 5.3 1.6 5.5 7.1l0.5 7.1c0 0 0.6 2.1-1.2 2.5v0.4l1.8 0.8c0 0-8.2 2.2-13.3 0.3h-14.7-1.6l-1.3 0.1-1.9 0.5-0.7 0.4h-11c0 0-4.7-0.2-4.2-13.5l0.7-0.7 0.6-0.6 1.6-0.9 0.2-0.5 0.4-0.6 1.7 0.6-0.3-1-0.4-1.1-0.1-0.5 0.3-1.3 0.7-0.4 0.3-0.4 0.1-1.2-0.1-0.4-0.4-0.5-0.4-0.1-0.7-0.6-0.3-0.3-0.4-0.4-0.5-0.1h-0.5l-0.6 0.1-0.1 0.4-0.4 0.9-0.7 1.1 0.3-6.2 0.4 1.1h0.7l0.5-0.2 0.4-0.5v-0.8-0.4l0.7-0.2v-0.8h-0.6l-0.5-0.7-0.5 0.1-0.6 0.1-0.9 0.9 0.1-9.4 0.2-1.2 0.1-1.9c0 0 0-7 0-7z"/><path class="d" d="m116.4 496.8c0 0 1.7-1.2 0.9-4.4 0 0 0.4-8.7 3.9-8.3 0 0 2.8-1.4 1.9-6.6 0 0-0.6-3.7 4.3-2.7 0 0 5-1.6 4.7-5.6 0 0 4.3 4.5 0.3 10.8l-0.5 1.3-6.4 11.1c0 0-4.3 4.8-9.1 4.4z"/><path class="d" d="m88.6 464.8l0.5-1v-0.6l0.2-1.2c0 0 1.1-12 2.7-11.7 0 0 0.9-0.4 0.6 1l0.4 0.4 0.4 0.3 0.2 0.7 0.2 0.9c0 0 1.2 4.4 2.2 0.2l0.2-1v-1.1c0 0-1-7.3 2.6-7.6l0.9 0.1 0.5 0.5 0.4 0.4 0.4 0.6 0.2 0.5 0.4 0.4 0.4 0.8-0.2 0.6-0.2 0.4 0.5 4.3c0 0 2.3 3.3 2.7-1l0.1-1.4v-1.4l0.4-1.5 0.1-0.8v-1.4l-0.1-1.5-0.1-0.8-0.2-0.9 0.3-0.8 0.8-2.2v-0.6-0.9l0.2-0.8 0.3-0.4 0.5-0.2 0.5 0.1 0.2 0.4 0.8 0.2 0.1 0.4 0.3 0.4 0.7 0.1 0.4-0.1 0.4-0.4v-0.9l-0.3-0.3v-0.5c0 0 1.5-5 3.6-4l-0.3-0.6-0.2-0.5-0.7-0.5-0.6-0.5-0.3-0.6-0.1-0.6c0 0-1.8-28.3-0.1-33l-0.8-1-0.3-1c0 0-1.3-10-15.9-11l-0.6-0.5-0.5-0.4-0.3-0.5c0 0-1.7-5.7-0.6-6.7l-0.6-0.1-0.4 1-0.3 0.4-0.6 0.7-0.2 1v0.7l-0.4 0.5-0.4 0.7v0.4 0.6l-0.1 0.5-1.2 0.3c0 0-1.1 0.9 0.5 6.4 0 0 0 3.5-0.6 3.7l-0.3 1.9 0.2 1 0.1 8.8 0.3 0.6v0.7l-0.3 0.7-0.1 2.1-0.5 0.4v-0.5h-0.5l-0.9 0.4v1 1.5c0 0-0.5 17-0.1 21.7 0 0 2.2 32.9 2.5 33.6z"/><path class="d" d="m96.8 383.8l-0.1 0.5-0.2 0.7v0.5 0.6 0.4l0.2 1.5 0.4 0.3h0.6l0.4-0.3 0.5-0.2 0.1-0.4v-0.7-0.5l0.3-0.5 0.1-0.6-0.3-0.6-0.2-0.5-0.4-0.4-0.6-0.1h-0.5c0 0-0.3 0.3-0.3 0.3z"/><path class="d" d="m149.3 457.8c0 0 1.7 13 4.6 16l0.1 1.2 0.4 1 1 3.6 0.8 2.5 0.7 1.7 0.5 0.7c0 0 7.1 7.7 9 7.9 0 0-1.7-5.6 4.5-4.7 0 0 5.3 0.7 6.8-2 0 0 2.5-1.1 3.2 0 0 0 3.2 1.3 2.5-3.2 0 0 0.9-3.6 4.4-1.1 0 0 0.7 0.4 1.7 0.4l0.8 0.5 1 0.7 0.5 0.5 0.7 0.5 0.7 1.7 0.5-0.9 0.8-0.3 0.4-0.5c0 0 1.3-1.7 2.2-0.4 0 0 1.5 2.1 2.2 1.2 0 0 1.8 2 3.3-0.5 0 0 3.1-0.3 3.4-4.9 0 0 1.2-2 2.4-0.5l0.8 0.3 0.7 0.4 4 0.2 0.7-0.7 0.4-0.5 0.1-0.7c0 0 1-3.4 3.1-3.2l1 0.2 0.8 0.6 0.5 0.2 0.5 0.3 0.2 0.7 0.3-0.8 0.5-0.2 0.9 0.2 0.7 0.1 0.5 0.2 1.1-0.5 0.9-0.5 0.7 0.5 0.1 2.9c0 0 5.1-12 4.6-19.8l-1-0.3-1.2-0.5-0.3-0.7-0.4-1v-0.8l0.4-0.9 0.1-0.3 0.2-1v-0.7-0.9c0 0-1.7-1.1-2-1.8 0 0-3.9-1.4-4.1-3 0 0-4.5-3.4-4.5-6.5l0.6-0.3 0.6-0.2 0.8 0.4 0.8 0.5c0 0-12.6-14.2-14.1-20.1v1l0.1 1.2 0.5 1.2 0.2 0.5 0.7 1.2 0.1 1-0.1 1.5-0.4 0.8-1 0.4-0.8-0.2-0.5-0.7-0.4-0.5-0.3-0.8-0.3-0.7-0.2-0.7c0 0 0-6.6-1.2-7.7 0 0-2.5 22.5-14.7 18.1q-0.6-0.2-1.2-0.5-0.2-0.1-0.4-0.3l2 1.7 0.8 0.7 0.5 0.5 0.4 0.9-0.5 1v1.2l-0.2 6-0.5 1.4-0.2 1-0.5 1.5-0.7 0.2-0.5 0.1c0 0-1.7 3.9-4 1.6l-0.9-0.7-0.5-0.4h-0.5-0.5-1.3l-0.9-0.5-0.1-0.8 0.1-0.5 0.7-0.7h0.5 1 0.5c0 0 1.4-0.8 1.4-1.8 0 0-0.9-2.1-1.4-1.9 0 0-0.8 1.2-1.3 1.2l-3.7 0.3-0.5 0.4-0.7 1-0.5 1.3-0.2 0.7-0.2 0.5-0.5 0.7-0.1 0.7-0.5 0.5-0.9 0.3-0.8 0.7-0.5 0.3-1 1.4-0.2 0.5-1.4 1-1.3-0.7-0.7-0.5c0 0-6.4 0-6.9-2.4h-1.2l-0.5 0.7-0.5 0.3-1.2 0.7-4.5 2.2-0.4 0.5-0.3 0.5-0.9 0.2-0.5-0.5c0 0-1-0.7-1-0.7z"/><path class="d" d="m185.9 433.5l-0.6-0.3-0.7-0.2-0.5 0.2-0.2 0.5-0.3 0.8-0.2 0.9-0.2 0.3-1 0.2-0.6-0.2-0.2-0.3-0.5-0.7-0.4-0.3h-1l-0.7 0.3-0.5 0.3-0.1 1 0.1 0.6 0.4 0.5 0.1 0.6v0.5l-0.5 1.1c0 0 0-0.2-0.5 0.1l-0.5 0.4-0.1 3.3c0 0-4.8-5-1.9-9.1l-0.2-1.8-0.5-1.2-0.5-1-0.1-0.7-0.2-1.2-0.2-0.8v-0.7c0 0-0.8-3.7 1-2.9l-0.1-0.6v-0.4c0 0-2.9-5-2.7-6.2v-1.2-8.1l-0.2-0.8-0.3-0.7-0.4-0.9-0.8-0.8-0.4-0.5-0.1-3.9 0.8-0.2 0.4-0.8-0.6-0.2-0.5-0.1-0.3-0.7-0.2-0.9v-0.6-0.5l0.4-0.7c0 0 0.8-3.6-1-4.9l-0.2-0.9-0.2-1v-0.5l0.4-0.8 0.6-0.7 0.2-0.8v-1.4l-0.2-1.5-0.8-1.2v-0.5-1l0.7-0.5c0 0-0.2-4.1 1-3.7 0 0-0.4-4.1-2-4.7-1.7-0.7-0.4-0.6-0.4-0.6 0 0 2 0.6 0-1.1l0.4-0.7 0.8-0.3 0.5-0.4 0.5-0.3 0.5-0.5 0.4-0.9 0.3-0.8 0.3-0.5 0.7-0.5 0.5-0.2 0.7 0.2 0.5 0.5c0 0 2.5-0.2 1.8-2.2l2.1 1 0.5 0.7v1.5 1.2l-0.4 0.7-0.5 0.3 0.2 24.1 1.2 1.5c0 0 1.3 1.4 1 3.4v0.7 1l0.2 1v0.5l0.1 1.2v9.1l-0.1 0.8v0.9c0 0-0.4 4.2 1.1 4.7l0.4 3.4 0.5 2.2c0 0-0.5 7.4 4 11.1z"/><path class="d" d="m157.6 385.4c0 0 1 4.8-5.2 6.1 0 0-2.6 1.2-0.9 4.2 0 0 0.5 4.1-1.3 4.4l-0.2 0.7v0.8l0.3 2.1v1.1l-0.3 0.5 0.3 1.4-0.1 1-0.2 0.9 0.2 1c0 0 2.3 2.8 1.3 3.3 0 0 2.2 2.9 3.4-2.2l0.2-0.5 0.6-0.1c0 0 0.5 1.7 3.1 1.7 0 0 3-0.6 1.8-3.9 0 0 2.7-1 3.1-5.9 0 0 2-0.2 2.3-4.6 0.1-1.1 0.2-1.7 0.2-1.9 0-0.8-0.2 1.4-0.2 1.4l-0.3-0.5 0.5-2.4 0.3-1-0.3-1.3-0.3-0.7h-0.7l-0.5 0.2-1 0.6-0.7-0.3-0.5-0.7-1-0.8-0.4-1.2 0.7-0.3c0 0 0.3-2.4-1-2.9 0 0-0.7-2.7 1.2-4.1 1.8-1.3-0.4-0.3-0.4-0.3l1.7-3.5v-0.9l-0.6-1.3-0.6-0.2-0.5-0.3-0.6-0.5-0.4-0.4-0.8-0.1-0.4 0.5-0.5 0.6v0.7l0.4 1.2v0.5 0.8 0.7 0.5l-0.4 1.7-0.5 1c0 0-0.8 3.2-0.8 3.2z"/><path class="d" d="m147.6 399.3v12.6l0.2-0.2 0.2-0.6 0.4-0.6 0.1-0.3 0.2-0.4c0 0 0-0.2 0-0.3 0-0.1 0-0.4 0-0.4l-0.1-2.8-0.9-0.9 0.2-1.5 0.2-0.3 0.3-0.2 0.2-0.3v-0.4-0.2-0.3l-0.1-0.2-0.2-0.1-0.1-0.2-0.1-0.4-0.1-0.5v-0.2c0 0-0.1-0.2-0.1-0.3-0.1-0.1-0.2-0.3-0.2-0.3 0 0-0.1-0.7-0.1-0.7z"/><path class="d" d="m161.4 363.7c0 0-1.8 5.3 4.3 4.8l0.4 0.3 0.1 0.4v0.4c0 0-0.6 3.4-2.5 1.6h-0.4l-0.2 0.1-0.5 0.2h-0.8-0.4l-0.4 0.1c0 0-1 0.4-1.3 0.9q-0.1 0.1-0.1 0.2c0 0.6 0.4-1.1-0.7-1.4-1-0.4-0.1-0.1-0.1-0.1l-0.1-0.6-0.1-0.8c0 0-0.5-4.3-2.6-4.5 0 0-5.3 0.6-3.7-2.6l0.1-0.4-0.1-1.6c0 0-4-3.1 0.4-5.9l0.4-0.1 0.5 0.4 0.6 0.6c0 0 2 2.6 4 2.5 0 0 4.3 1.4 3.2 5.5z"/><path class="d" d="m163.4 334.1c0 0 3 0.2 3.2-0.5l0.1-0.4v-0.5l-0.1-0.4-0.2-0.4-0.5-0.1-0.4 0.1-0.1 0.2-0.5 0.3c0 0-2.2 2-3.2-2.2l-0.1-0.5 0.1-0.4c0 0 1.3-4.2-0.7-6.6l-0.1-0.5v-1.8l-0.1-0.8-1.7-0.1-0.1 0.5c0 0-0.9 3.8-2.7 3.9 0 0-7.5 4.4-5 12.9l0.1 0.6v0.3l-0.2 0.4c0 0-1.5 2.5-0.1 4.7v0.6l0.2 1 0.1 1c0 0 0.8 2.9 1.5 3l0.6-0.2 0.3-0.3 0.3-0.3 0.2-0.4c0 0 1.1-2.3 2.8-1.4 0 0 1.8 0.7-0.2 3.1l-0.5 0.6-0.2 0.6v0.6c0 0 0 2.8 2.6 3 0 0 2.8 0.1 1.9-4v-0.2-0.3-1.3-1l0.1-0.7 0.2-0.6v-0.6-0.3l0.3-3.2c0 0 2.4-5.2 2.1-7.4z"/><path class="d" d="m170.7 297.7c0 0 5.2 0.8 4.1 4.6 0 0-2.6 2.7 0.3 4 0 0 0.5 5.8 2.9 3.4l0.3-0.1h0.4 0.2l0.6 0.1 0.3 0.1 0.2 0.2 0.3 0.3c0 0 1.8 0.8 0.8 5.4 0 0-1.4 4.1-4-0.4l-0.7-0.2h-0.3c0 0-1.7 0.6-2.2 3.6l-0.1 0.3-0.4 0.2-0.3 0.3c0 0-2.3 0.7-2.3 5.4v4.1c0 0 1.2 4.9 0.8 5.6 0 0 1.6 3.9 5.5 1.4l0.3-0.7 0.7-0.6 0.3-0.7 0.5-0.4c0 0 1.4-0.5 1.6-1.7l1 0.3-0.1 2c0 0 1.9-3.5 5.2-5.6h-0.5-0.8l-0.3-0.1-0.1-0.3-0.1-0.7v-0.7l0.4-0.6 0.7-0.7h0.2 1.4l0.5-0.1 0.7-0.1 0.3-0.2 0.5-0.7 0.2-0.1h0.2l0.3 0.1v0.3l-0.2 0.3-0.1 0.3-0.2 0.4-0.1 0.3-0.1 0.2-0.3 0.4-0.1 0.4c0 0 4.7-1.3 7.7 0.1l-0.1-0.5-0.4-0.3-0.1-0.5v-0.4l0.4-0.7 0.1-0.2h0.8 0.2l0.7 0.3c0 0 1.4 1.5 0.6 2.8-0.7 1.2-0.2 0-0.2 0l-0.4 0.1-0.2 0.1-0.4-0.1c0 0 6.4 3.7 7.5 8.6v-0.7l0.2-0.9 0.1-0.4 0.3-0.3v-0.7-0.9c0 0 3.7 1.5 1.9 3.8 0 0-0.1 0.7 0.3 0.9 0 0 0.4 1-0.1 1.4v0.5l0.3 0.5 0.2 0.1 0.2 0.7 0.2 1.3 0.2 0.7-0.1 6.4c0 0-0.5 4.3-2.6 1.7v0.4l0.1 1.3 0.1 12.4c0 0 0.2 5.1 9.6 4.8 0 0-2.6-4 1.9-4.6 0 0 3.7-1.1 4.3-1.8q0 0 0.1-0.1l0.4 1 0.1 0.3 0.1 0.4 0.2 0.3 3 0.1c0 0 6 9.1 6.7-1.1l0.2-0.1 0.3-0.2h0.2l0.3 0.1 0.4 0.2 0.4 0.1 0.1-19c0 0 0.7-13.8-4.2-18.9v1l-0.3 0.8-0.3 0.5v0.5 0.4l-0.3 0.3-0.2 0.2h-0.5l-0.2-0.5h-0.4c0 0-3.4 1.1-3.3 3.7l-0.2-0.1-0.4 0.2-0.4 0.2-0.4 0.2h-0.8l-0.3-0.1-0.1-0.3-0.3-0.2c0 0-2.5-1.5-3.8 0.2h-0.2l-0.6-0.2-0.2-0.3-0.3-0.1-0.3-0.2-0.2-0.3-0.2-0.5-0.2-0.3-0.2-0.4c0 0-1.5-4.5 2.1-4.7 0 0 1.7 0.4 2 1 0 0 2.9 1.3 4.1-2 0 0 0.9-3.5-2-2.9l-0.1-0.6c0 0-1.3-3.5-3.5-2.3l-0.6-0.1h-0.4l-0.5 0.2c0 0-0.4-0.9-1-0.7-0.6 0.3-0.1-0.1-0.1-0.1 0 0 0.9-5.8-3.7-6.4q-0.1 0-0.1 0l-0.3-0.1c0 0-1.9-2-2.4 0.5v0.4 0.4 0.7 0.5l0.2 0.4 0.3 0.6-0.3 0.2c0 0-3.4 3.8-4.8 1.4l-0.2-0.4v-0.6-0.4l0.2-0.6c0 0 0.9-4.7-2-6.4v-0.8l0.1-0.6 0.5 0.7 0.3-0.3 0.1-0.4 0.2-0.2 0.2-0.5v-0.3-3.1c0 0 0.9-0.9-1.4-0.8l0.1-0.4h0.7l0.2-0.3v-0.9-0.8-0.6c0 0-3.5-1.2 0.4-3.2 0 0-32.5 0.3-33.7 1.5z"/><path class="d" d="m185.3 303l-0.7 0.7-0.3 0.5-0.3 0.3-0.1 0.5v0.7 1l-0.2 1.9c0 0-0.4 4.5 0.5 6.1l0.1 0.4v0.4 0.4c0 0-0.7 6.5 2.1 5l0.6-0.3 0.5-0.2 0.7-0.5 0.4-0.6 0.5-0.7 0.4-0.7 0.2-0.2v-0.5-0.5l0.2-0.4 0.1-4.3-0.2-0.8-0.4-0.5-0.3-0.4-0.3-0.3-0.3-0.5-0.3-0.6v-0.5-0.5-1-0.4l-0.1-0.5v-0.5l-0.1-0.4-0.3-0.5c0 0-1.2-1.8-2.4-1.6z"/><path class="c" d="m216.2 335.1v2.7c0 0 0.8 2.2-4.5 1.5l0.1 0.7 0.1 0.3 0.5 0.3 0.2 0.4v0.4h0.8c0 0 2.2 0.1 2.2 3 0 0 0.1 3 1.5 3.2h0.5l0.4-0.1 0.2-0.2 0.2-0.2 0.2-0.6c0 0 0.3-2.5 2.9-2.9l0.5-0.2 0.5-0.3 0.1-0.3 0.1-0.6c0 0 0.7-1.6-2-1.5 0 0-2.5-0.2-2.1-3.3l0.2-0.3 0.1-0.4v-0.4l-0.1-0.5-0.2-0.2-0.4-0.2-0.4-0.1-0.4-0.1-0.3-0.1h-0.5c0 0-0.4 0-0.4 0z"/><path class="d" d="m293.9 293.4l-0.5 0.2-0.5 0.7-0.1 0.4-0.1 18.1v1.3 0.9l0.2 1.1v0.6l-0.5 0.9-0.2 0.8v0.6l0.5 0.9 0.6 0.5h0.5 0.5l0.2-0.5 0.2-0.4 0.2-0.8 0.1-0.8v-0.8-0.6-0.7-0.3-0.7-0.7-1.2-0.4l0.3-0.4c0 0 0.3-3.8-0.4-4.4-0.6-0.5 0-2.8 0.8-3.2 0 0 1-1.9-0.9-4.2 0 0-1-4 0.2-4.3 0 0 1.4-3.1-1.1-2.6z"/><path class="d" d="m302.9 299.3c0 0.5-0.3 0.9-0.7 0.9-0.4 0-0.7-0.4-0.7-0.9 0-0.5 0.3-0.9 0.7-0.9 0.4 0 0.7 0.4 0.7 0.9z"/><path class="d" d="m302.6 305.9c0 0.6-0.3 1.1-0.7 1.1-0.4 0-0.7-0.5-0.7-1.1 0-0.7 0.3-1.1 0.7-1.1 0.4 0 0.7 0.4 0.7 1.1z"/><path class="d" d="m308.3 303.9l-0.6-0.4v-0.5l-0.4-1.3v-6.2l0.1-2.3v-1.3c0 0 1-3.1 2.7-1.2l2.3-0.1 0.5-0.1 0.5-0.7 0.1-0.6 0.2-1.1c0 0 0.1-7.1 2.9-7 0 0 2.4-0.3 2 4.8 0 0-1.2 3 2 3.9l0.5 0.4 0.2 0.4 1.4 4.7 2.1-0.2 0.4-0.5 0.4-0.2 0.3-1.6c0 0 1.3-4.4 3.2-1.9l0.6 0.2 1.6-1.5 0.1 0.3c0 0-0.7 8.2 0.5 10.2 0 0-2.4-0.3-3.8 2.2l-0.4 0.5h-0.5l-0.5-0.3-0.4-0.3-0.1-0.4-0.2-0.7-0.1-1.6v-0.7l-0.4-1-0.1-0.4-0.2-0.6-2.1-0.4v0.5 0.8l-0.2 0.4-0.3 0.5-0.3 0.4-0.2 0.3-0.2 0.6-0.2 0.7-0.3 0.3-0.2 0.4-0.4 0.5-0.5 0.3-0.3 0.3-0.2 0.6c0 0 0.4 2.4-0.7 3.6l-0.5 0.5v0.9l-0.4 0.5v0.6c0 0-1.3 3.3-3.1-0.3l-0.1-0.7v-0.6l-0.1-0.5-0.3-0.4c0 0-1.9-4.2-1.7-4.6 0 0-1.1-1.9 0.3-2.2v-0.7l0.1-0.5v-3.2l-0.4-0.7v-0.5l-0.2-0.7v-0.8l-0.1-0.5-0.2-0.5-1.9-0.1v0.7 0.5l-0.2 0.5-0.3 0.7-0.2 1.4v0.4 0.7l0.3 0.6 0.2 0.5 0.2 1.4v0.6l-0.1 0.4-0.2 0.6-0.7 0.6-0.3 0.7v0.3l0.4 0.7v0.4l-0.2 0.6-0.4 0.2c0 0-0.7-0.2-0.7-0.2z"/><path class="d" d="m321.8 328.6c0 0-0.4 5.3-2.3 0.4 0 0-0.7-2-0.3-2.3l-0.5-0.6-2-0.9c0 0-1.9 0.2-2 3.6l-0.1 1.2-0.2 1-0.2 0.8-0.2 0.5c0 0-0.4 2.1-0.1 2.6 0 0 0.3 6-0.6 6.2l-0.1 0.5v1.1l0.1 0.3c0 0 0.4 2.3-1 2.2 0 0 4.1 2.5 6.3-2.3l4-11.2c0 0 0.9-1.5-0.8-3.1z"/><path class="d" d="m250.1 339.8c0 0 2.8 2.4 0.7 5.2 0 0-1.2-1.3-0.7-5.2z"/><path class="d" d="m265 349.1c0 0.4-0.4 0.7-1 0.7-0.5 0-0.9-0.3-0.9-0.7 0-0.4 0.4-0.7 0.9-0.7 0.6 0 1 0.3 1 0.7z"/><path class="d" d="m270.6 350.3c0 0-1.5-2.1-0.8-2.2l-0.1-0.4-0.9-0.1-0.3 0.4-0.1 0.5v1l0.1 0.8 0.1 1.1v0.7c0 0 0.7 1.3 2.1 1.3l0.2-0.6v-0.5-0.8c0 0-0.3-1.2-0.3-1.2z"/><path class="d" d="m276.6 349.5c0 0 0-1.9 0.8-1.9 0 0 0.2-4.4 1.6-4.6h0.4l0.4 0.3 0.3 0.4 0.1 0.5v1.6 0.6c0 0 0.1 0.5 0.5 0.6l0.2 5.6c0 0 0.3 1 1.4 1l0.5 0.2v0.6 0.9l0.1 1-1.4 0.2-0.4 0.2-0.1 0.4c0 0 0.7 6.7-2.1 6.9 0 0-2.1-0.9-1-3l-0.1-0.7v-0.5l-0.1-0.6c0 0-0.3-2.5-3.9-0.5 0 0-2.7 2.2-4.2-1.7 0 0 0.2-2.6 1.8-1.6l0.5-0.1v-0.5c0 0 1-2.2 2.5-0.4 0 0 1.4 1.9 3.1 0 0 0-0.1-1-1.1-1.5l-0.3-0.5v-0.5l-0.3-0.2v-0.3h0.7l0.3-0.1v-1l-0.9-0.2c0 0-2 1.3-2.7 0.5l-0.4-0.5 0.1-0.5 0.4-0.4 0.4-0.3h0.6 0.4l0.3 0.3 0.5 0.2c0 0 1.1 0.1 1.1 0.1z"/><path class="d" d="m294.9 397l-2.9-2.3c0 0 0.8-3 0-4.2 0 0-0.1-3.6 1.7-3.4 0 0 2.7 0.3 1.1 5.7 0 0-0.7 3.5 0.1 4.2z"/><path class="d" d="m295.7 398c0 0 3.1 1.3 2.9-3.4l-0.1-0.6c0 0-0.6-3.7 2.4-3.6 3 0.1 0.3-0.1 0.3-0.1l-0.2-0.8 0.3-0.6 0.4-0.3 0.1-1.6 0.6-0.4 0.7 0.2 0.7 0.3-0.1 9.7c0 0 3.2 4.4 3.5-3.4q0-0.9 0.1-1.6c0-0.8 0-1.3 0-1.6 0.1-1.7-0.1 2.9-0.1 2.9l0.3-4.1 0.2-0.6c0 0 2.7 14.6 16.1 24.6l0.4 0.3h-0.7-0.6l-0.6 0.3c0 0-3.7 2.1-0.8 6.7 0 0 0.7 0.7-0.6 2.5l-0.5 1.6-0.1 0.9-0.4 0.4-0.1 1.5v0.7c0 0-1.1 3.5-0.3 4.4 0 0 0.1 4.9-0.9 5.7 0 0-0.7 3.8 0.9 4.7v1.1 1l-0.3 0.5v6.1l-0.1 0.3-0.2 0.6c0 0-2.2 4.1-0.7 7.2l0.1 1.3 0.6 3.5-0.1 2.1-0.3 1.2v1.2l0.4 1.3 0.3 1.1v1.7 1.3l-0.4 0.8-0.2 1v0.8c0 0 3.3 7.9 5.4 5.4 0 0 4.2-0.6 4.5 0.5h0.6c0 0-13 20.2-27.1 13.9l-0.9-0.1h-0.9-1.2-0.4-2c0 0-6.5-0.3-14.8-14.3l-0.6 0.2-0.1 3.4-0.2 1-0.2 0.4-0.5 5.1c0 0 0.8 3.6-5.6 2.1l-1.2 0.1h-0.9l-11.9-1.1h-1.4-0.8l-0.8 0.1-0.7 0.1c0 0 4.3-1.3 4.6-2.2 0 0 1.4-0.7-0.9-1.4l0.7-0.5 2.2-0.1h0.6c0 0 13.4-8.9 17.1-16.8 0 0 6.5-10.6 8.2-16.5q0.4-1.1 0.4-1.9l0.1 1.2-0.3 1.5-0.1 1-0.2 0.7 0.1 1 0.4 0.5 0.3 0.5 0.2 0.4 0.3 0.1 0.5-0.2v-0.7l0.2-0.4 0.2-0.8v-0.6-0.9-0.7l-0.3-1v-0.9-0.7l-0.4 0.1-0.1-0.4-0.5-1.1c0 0 2.3-10.5 1.7-14.5 0 0-0.4-2.6 3.5-2.4 0 0 5.1-1.1 8.1-7.4l0.4 0.1 0.1 11.9 0.1 0.6 0.3 0.4 0.4 0.2 0.6-0.2 0.4-0.2 0.3-0.3 0.1-0.4 0.1-0.8v-0.7l0.3-1.4v-0.9l-0.1-4.6v-0.9l0.3-1.4 0.3-0.8v-0.4l0.1-0.9-0.1-0.5v-1.8-0.8l-0.3-0.7h-0.4l-0.7-0.1h-0.4c0 0 0.6-11.5-0.9-14.3q0-0.1 0-0.1l0.8-0.1 0.3 0.1h0.4l0.4-0.2 0.3-0.6 0.2-0.5v-0.7c0 0 0.9-5.3-2.6-4.3l-0.4 0.8-0.4 0.3-0.1 0.5v0.7l0.2 0.7v1.3c0 0-5.4-7-7.8-9.5z"/><path class="c" d="m310.4 424l-0.1 0.5v0.6l0.1 1.1 0.1 0.8 0.2 0.4 0.1 0.4 0.4 0.3 0.3 0.2 0.7 0.3 0.4-0.5v-0.3-1.3l0.2-0.6v-0.9-0.8l-0.2-0.6-0.2-0.4-0.6-0.3-0.6 0.1-0.7 0.7c0 0-0.1 0.3-0.1 0.3z"/><path class="c" d="m304.5 445.1l-0.1 0.7v0.4c0 0-1.1 11.4 0.9 11.7l0.6-0.1 0.3-0.5 0.1-0.6 0.2-6.5 0.3-0.7v-1.1c0 0 0.9-2.9-2.3-3.3z"/><path class="d" d="m327 415.3l0.2 0.6v0.6 0.4 0.5l-0.3 0.5-0.6 0.7-0.2 0.8v0.4l0.2 0.4 0.3 0.5 0.4 0.2 0.5 0.1h0.4l0.3-0.2 0.3-0.6 0.1-0.4v-0.4l-0.1-0.6-0.1-0.5-0.2-0.6-0.3-0.7v-0.5-0.5c0 0-0.9-0.7-0.9-0.7z"/><path class="d" d="m383.3 268.4c0 0 5.1 0.9 1.7 3.9v0.5l-0.2 0.8-0.2 6.4c0 0 0 11 1.4 14.4l0.3-1.3 0.6-2.8 0.7 0.7 1-0.4v-0.5l0.1-0.6c0 0 0.9-3.3 2.2-3 0 0 1.9 1.2 1.9 3.1 0 0 0 2.8 3.5-0.1h0.6 0.4l1.1 0.1 1 0.5 0.6-0.6 0.5-0.8 0.2-3.8 0.2-0.7 0.3-0.8 0.5-1.1 0.3-1.2 0.2-1.3c0 0-1.5-7.8-3.8-8-1.1-0.1-1.1-0.2-0.9-0.2 0.3-0.1 0.9-0.1 0.9-0.1l-1.5-0.4-0.3-0.5 0.2-0.6 1.1-0.5 0.7-0.6c0 0-15.3-0.5-15.3-0.5z"/><path class="d" d="m378.9 285.7l0.5-0.8 1-0.2 0.5 0.4 0.3 0.9 0.2 1-0.2 1.2-0.5 0.8h-0.8l-0.7-0.5-0.1-0.5v-0.7l-0.3-0.6-0.7-0.3-1.8-0.5 0.7-2.3c0 0 0.6 2.4 1.9 2.1z"/><path class="d" d="m373.8 323.9c0 0 0.2 5.5 3.5 0.6 0 0 1-2.8 4.4-0.8 0 0 2.3 2.1 3.3-3.1 0 0 2.6-2.8 4.2 0.6 0 0 1.8 1.3 3.1-1.3 0 0 3-1.9 3.2 1.7 0.1 3.6 0 0.3 0 0.3 0 0 0 2.3 1.9 2.3l-1.8 0.5-1.1 0.5-0.5 0.8-1.2 1.1-1.3 1-1.1 1-0.3 0.3-25.1 10.5-0.6-7.2-0.1-1.1 1.2 1.4 0.5 0.7 0.6-1.2 0.7-0.6 0.3-0.8 0.5-0.7 0.2-1.8 0.3-1.5v-0.8c0 0-1.1-2.1-2.5-1.8 0 0 7.7-0.6 7.7-0.6z"/><path class="d" d="m372.2 404.4c0 0-1.3 2.5 0.3 3.1 0 0 2.5 3 2.5 3.6h0.5 0.6l0.5-0.1 0.5-0.2h0.8l0.7 0.2c0 0 1.5-3.5 3.4-1.3 0 0 2.5 1.3 4.1-3 1.7-4.3 0.2-0.3 0.2-0.3 0 0 2.1-2.3 2.3 1.1 0 0 1.5 8 5.1 3.9l0.3 0.7 0.1 22.6c0 0-2.1-4.9-4.9-1l-0.6 0.3-0.5 1-0.7 0.2-0.6 0.2-0.3 0.4-0.7 0.4-0.2-0.5-0.3-0.3c0 0-1.3-0.4-0.8-1.7 0 0-3 0.8-3.6 3.4q0 0.2 0 0.4c-0.3 2.9-2.6 1.6-3.8 1.6l-0.5 0.3-0.9 0.4-0.9 0.6c0 0-2.8 3.3-2.1 4.8l-0.2 0.5-0.8 0.3-0.8 0.5-0.7 0.2-3.7-4-0.8-0.1h-0.5l-1.3 1.9c0 0-2.3 0-3.3-1.3h-0.3l-0.5 0.2-0.4 0.1c0 0-1.6 1-3.4-2.1l-1.1-0.2-0.2-0.6 0.5 0.2 0.5-0.2 0.5-0.5 0.3-0.7 0.3-0.6v-0.5l-0.2-0.5-0.3-0.5c0 0 3.6-1.8 5.3 0 0 0 2.9 2 4.5-3.4l0.4-1.5 0.5-0.5 0.8-2.8v-1.9c0 0 0-12.5-0.7-13.8l-0.3-1.5 0.2-5.8c0 0 3.1-2.3 5.2-1.7z"/><path class="d" d="m410.8 453.2l-0.3 1.1-0.1 1.4v0.8c0 0-0.7 3.6-2.2 3.7 0 0-1.6 3 0.3 3.5 0 0 0 1.3 1 1l0.2 0.8-0.2 0.5h-0.5l0.4 0.5 0.3 0.3 0.5 0.8c0 0-0.2 1.6-0.7 2l-0.3 1.1 1.3 2.1 0.8 0.2 1.3-2 0.2-1.1 0.3-0.7v-0.6l-0.1-1.2v-0.4-1.4-0.6l0.5-1.2 0.1-0.5v-0.8l0.7-1.1 0.5-0.7 1.1-1 1-0.4 0.2-0.9 0.1-0.9v-1.2l-0.3-1.5-0.3-0.8-0.7-0.5-1.5-1h-0.9l-1.2 0.2-0.5-0.3c0 0-1 0.8-1 0.8z"/><path class="d" d="m419.8 436.7c0 0 8.6 3.4 3.2 9.8 0 0-2.2 3.7 1.4 4.1l0.4 0.5-0.4 1 0.2 2.6c0 0-3.8 3.6-1.1 4.4v1.1l0.3 2.3c0 0-1.5 1.8-0.5 2.5v0.8l-0.7 0.8c0 0 0.2 4.4 2.2 0.4 0 0 0.9-3.2 2.4-2.2 0 0 2.3 0 2 2.8l0.3 0.8h0.7 0.6c0 0 1-3.1 4.3-2.9 0 0 1.6-1 0.6-1.5l0.2-0.8v-0.7c0 0 4.2-3.7 3.3-5l-0.2-0.9-0.8-1.1c0 0 2.1-5.3 3.4-3.8 1.3 1.5 0.5 0.2 0.5 0.2l0.3 1.1 0.9 1.2-0.2 2.1 0.2 1.6 0.6 2.5-0.5 4.6 0.4 1.3 0.9 1.6 0.2 3.1 0.7-19.6v-1l-0.2-1.6v-1.2l-0.5-0.8 0.5-19.5-0.2-1.8 0.2-1 0.2-2.2 0.6-11.8c0 0 2.8-7.6-7.9-7.1 0 0-12.9-0.3-13.7-0.6 0 0-4.9-2.3-4.8 5.9l1.2 22.2c0 0-0.2 4.9-1.2 5.8z"/><path class="c" d="m442.3 419.3h-1.2l-0.6 0.5-0.5 1.1-0.2 0.7v1.3l0.2 0.8v1.3c0 0-1 5.3-1.7 5.4l0.4 1 0.6 0.5 0.2 1 0.2 1v1c0 0-1.5 9.3 1.6 8.6 0 0 2.6-2.4 0.8-9.8l0.2-1 0.1-1 0.2-0.4 0.3-2.3 0.2-1 0.8-1.7-0.3-1.3-0.2-0.9c0 0-1.1-4.8-1.1-4.8z"/><path class="c" d="m442.4 447.6c0 1.1-0.6 1.9-1.4 1.9-0.8 0-1.5-0.8-1.5-1.9 0-1 0.7-1.8 1.5-1.8 0.8 0 1.4 0.8 1.4 1.8z"/><path class="d" d="m129.1 1.7l2.1-0.9 6.2-0.6 1.3 1.2h1.6l-0.5 0.3h-0.3l-0.2 0.2-8.4 0.2c0 0-1.8-0.4-1.8-0.4z"/><path class="c" d="m126.8 163.3c0 0 0.3 4.7 5.1 6.4l-0.2 0.4-6.5-0.6-0.3-2.8v-1.4l0.6-2.3v-0.6l0.4-0.9c0 0 0.9 1.8 0.9 1.8z"/><path class="d" d="m142.9 126.5l-1.8 1.3-0.5 0.5-0.4 0.4c0 0-11.9 7.8-12.9 9.6q-0.1 0.1-0.1 0.2c0 1.4 3.6-7.6 3.6-7.6l8.3-3.8c0 0 3.8-0.6 3.8-0.6z"/><path class="d" d="m127.4 138.5c0 0-2.4 2.3-0.7 4.8 0 0 0.8 1.3 0 5.1 0 0-0.5 11-0.3 11.7l-0.5-0.1-0.3-5.4-2.3-10.2 1-5c0 0 3.1-0.9 3.1-0.9z"/><path class="d" d="m156.2 128.7c0 0 0 1.3 1.4 2.6l11 11.3 16.9 16.1c0 0-0.7-1.9-0.1-2.5q0-0.1 0.1-0.1c0.8-0.5-1.2-6.2-1.2-6.2l-16.1-15.8c0 0-12-5.4-12-5.4z"/><path class="c" d="m215.8 139.4c0 0-4.3-2.8-4.6-3-0.3-0.1-1.3 0-1.3 0h-1.6v2l2.6 2.7 4 1.6 1.7-0.1c0 0-0.8-3.2-0.8-3.2z"/><path class="d" d="m64.3 68.5l7.1 0.2 0.3 0.5v1l0.5 1.7 0.9 0.7v1l-0.9 0.5-0.5 0.8c0 0-3.9 2.1-4.2 2.9 0 0 0.5 3 5.4 3.7 0 0 2.5 3.1 5.7 0.4 0 0 4.3-1.7 5.4 3.7 0 0 0.4 1.5 2.9 2.4 0 0 1.9 2.1 2.7 1.3 0.9-0.8 0 0.5 0 0.5l0.2 0.9 0.5 0.3 1 0.8 0.2 0.7 0.5 0.4c0 0 1.2 4.2 6.3 1.1h0.8l0.8-0.1h0.9c0 0 6.1 0.8 1.7 4.4 0 0-3.1-1.4-3.4 3.9 0 0-2.5 4.2-4.9 4.5 0 0-1.9 1-1.4 5.6l-0.1 0.9v1l-0.4 0.6c0 0-5.9 4.1-6.1-2.3v-1.2-0.8c0 0-1.6-1.4-1.5-2.2l-1-0.2-1 0.8-0.5 0.5c0 0-4.2 1.6-5.9-1l-1.7 1.4 0.5 1.8v0.9l-0.2 9.8c0 0-1 5.4-5.6-0.5l-0.8 0.5-0.5 0.8v0.9l-0.2 1.2-2.9-0.2 0.6 1.8v0.7l0.6 5.6v1.5l-0.5 7.8-1.5 5.4-0.2 1 0.2 5.3-0.2 2.5-0.1 1.7-0.4 1.4 1.4-2.2 0.1-3.1c0 0 0.4-2.3 2.8-0.5 0 0 1.8 0.5 2.8-1.3 0 0 2.6-2.9 3.6 0.5 0 0 0.3 1.5 1.2 1.7 0 0 2.3 0.8 2-4.3v-1-1.2c0 0-1.2-8.6 6.4-4.4 0 0 2.9 0.9 4.1-1 0 0 3.9-2.2 6.4 1.4 0 0 4.9 2.7 7.9-0.2l0.6-0.3h0.8l0.5 0.8 3.1 2.9v0.5l-0.6 0.3v1.1c0 0-3.3 3.5 1.6 4.3l0.6 0.2c0 0-0.3 1.4 0.5 1.4 0 0 0.4 3.9 1.9 3.9 0 0 2.5-0.7 0.9-4.6l1.8-3.4c0 0 1.2-8.3 0.5-8.8l0.7-1.2c0 0 0.2-7.4 3.9-6.7 0 0 3.7-0.7 2.5 9.3l0.4 1.3v1l0.3 8.2c0 0 3.7 2.3 2.7 5.2 0 0-0.3 1.5 0.8 2.2l1.2 1.9c0 0-1.2-7.8-0.6-9l0.5-6.8v-1.7-1.5l-1.1-3.5c0 0 3.3-6.5 10.9-10.5l4.9-3.2 2.3-1.6c0 0 10.4-4.7 12.4 2.4l0.3 1.4 1.2 1.3 0.9 1.2c0 0 24.8 24.5 26.7 25.7l-0.2-1.2 0.7-0.5h0.8l0.7 0.2 0.8 0.5 0.7 0.7 1.4 0.8-0.9 0.2v0.5l0.9 1 0.8 1.2 0.5 0.8v0.7l-0.8 0.4 4 4c0 0 0.2-6.3 6.5-3.2 0 0 7.2 4.9 7.4-8.8 0 0-0.8-10.5 4.4-3 0 0 5.1 7.9 8.8 0.6l0.5-1 0.7-0.7c0 0 0.3-3.3-0.4-3.7 0 0 0.4-2.3 2.1-2 0 0-8.7-5.4-8.8-5.9l-0.5 1.3v0.5l-0.4 0.5h-1.2l-0.5-0.3-0.6-0.7-0.9-0.8-0.5-0.2h-0.5v-1.2l-0.3-0.5-0.7-0.5v-0.8h0.5 0.7 0.5c0 0-24.7-21-24.9-26.8l-0.1 1.4-0.7 1-1-0.2-0.4-1.3 0.2-0.7 0.8-0.3-3.7-6.3v1.2l-0.1 0.8-0.7 0.4-0.9 0.1-0.6-0.1c0 0-3.6-1.2-3.6-3.2l1.2-0.2c0 0-1.2-3.4-2.6-2.4 0 0-2.1-6.4-4.7-6.2 0 0-2.5-2.2-1.7-3.4 0 0-1.5-3.9-3.7 0 0 0-1.5 5.1-5.2 4.4 0 0-2.1-3.1-3.2-2 0 0-1.9 0.3-1.7 3.2 0 0-2.4 7.9-5.8-3.8l-4 2.6-0.7 0.8v0.7l1 0.3-0.2 0.7v0.9c0 0-6.1 5.4-4.9-0.4l-4.7 2.2h-0.9l-0.6-0.5-0.2-0.8v-2.4-0.8l-2.2-0.4-1.2-1.8-2 3c0 0-1.7 3.1-3.4-1.5v-0.9-0.8l-0.2-1c0 0 0.7-4.1-1-5.1 0 0-2.7 1.9-0.7 6.1l0.4 1.5v1.4c0 0-1.7 7.2-0.9 9.9 0 0 0 7.5-3.5 7.3 0 0-7-1.3-3.4-13.3l-0.2-0.9v-0.8l-0.5-1.2c0 0 0.5-21.2 2.4-24.2l-0.7-1.3v-3.1l-0.2-2.5c0 0 0-4.9 0.9-4.9 0 0-1.5-3.4-2.4-3.4 0 0-0.1-4.8 0.7-4.6v-0.7l-3-4.7c0 0-0.6-5.2-3.3-2.4l-0.1 0.7-1.7 2c0 0-1.9 1.6-1.4 3.9 0 0-1.2 4.6-4.5 0.4l-0.5-1.2 0.1-3.6 0.5-0.3-0.1-0.7-1.7-1.3-1.2 0.3-0.5 0.2c0 0-5.3 2-2.7 4.7l0.1 1-0.6 0.4c0 0-2.2 1-1.7 4l-3.1 0.7c0 0 0-6.9-4.5-4.4l0.3 0.7-0.3 0.8-0.7 0.3-0.5 0.6v1.3c0 0 0.1 5.1-0.9 5.3l-0.3 0.8-0.5 1-0.3 0.5h-2.1v-1l-0.3-0.8c0 0-2.7-4.6-2.6-11.5l0.2-1.9v-1.3l0.2-1.6 0.2-1.3 0.5-3.7c0 0 0.3-5.5-0.7-6 0 0-1-3.2 0.7-7.4v-1.2l-0.5-1.8 0.1-3.1 0.4-1c0 0 0-4.4 1.3-3.9v-1.4c0 0 4.2-1.1 3.2 4.3 0 0-0.3 1.5 0.5 2.5 0 0-0.8 6.8 3.6 7.5h0.7l0.1-0.7-0.5-0.9-0.3-0.5-0.4-0.5-0.6-2-0.5-2v-1.1-0.8l3.5-4.1 0.9-0.1c0 0 1.5-2.6 6.2 3l1.4 0.4c0 0 2.8 1.3 3-2.9l0.5-1 0.4-1.2v-1-1.4-2.4c0 0 0.6-4 6.1 0.2l1.1 0.9 0.4 1c0 0 0.6 4 1.7 4.2l1-0.7c0 0 1-1.5 0.8-3.7l0.7-0.3h0.5l0.7-1.4v-0.8-1.4l0.3-0.5c0 0-0.1-6.1 1.5-6.1l-25.3 0.2-1.2-0.3-1.4-0.9-4 0.2-1 0.3-4.8 0.2-31.4 1-0.2 3.2-0.8 0.7-0.9 1.3-0.3 1 0.3 1.9c0 0 0.2 10-0.8 10.2l-0.2 0.5v0.8 1.2l-0.5 1.2c0 0-2.2 2.5-0.8 4.4l-0.4 3.5c0 0 0 3.4 1.4 4.1 0 0 0.3 5.1-0.2 5.2 0 0 3 8.8 9.6 8.7 0 0 3.4-0.5 1.1-8.5v-0.8-2.1c0 0-0.4-10.8 3.5-10.3 0 0 6.6-1.3 3.9 9.7l0.3 1 0.9 0.8 0.5 0.5 2.2 2.2 1 0.2h0.7l1.7-1.2 0.3-1.4v-1.1l0.2-0.9 0.3-0.7 0.3-0.8 0.2-0.5 0.5-0.5 1.4-0.7h1l0.7 0.2 1 0.3 0.3 0.7 0.4 0.7 0.3 1.5v1.7l-0.3 1.3-0.4 1.6c0 0 0.9 12.3-0.2 13.5l-3.3-0.2-0.2-0.8c0 0-2.2-1.4-2.2-2.2 0 0-2.4-0.2-2.2 2.8 0 0-0.7 1.6 1.2 1.4v2.5l-1 1.6h-3.1l-0.5-0.4c0 0-0.7 3.2 0.4 5.4"/><path class="d" d="m63.4 60.5c0 0-0.9 3.1 0.3 5.5 1.2 2.5 0.2-0.9 0.2-0.9l-0.1-3.8c0 0-0.3-0.5-0.4-0.8z"/><path class="c" d="m73.4 72.9c0 0.4-0.4 0.8-0.9 0.8-0.5 0-0.9-0.4-0.9-0.8 0-0.5 0.4-0.9 0.9-0.9 0.5 0 0.9 0.4 0.9 0.9z"/></svg>