<svg version="1.2" xmlns="http://www.w3.org/2000/svg" viewBox="0 0 530 500" width="530" height="500"><style>.a{fill:#b61f24}.b{fill:#3aa849}</style><path fill-rule="evenodd" class="a" d="m485.2 209.1c0.7 0.1 0.8 0.2 1.2 0.5v0.3q0.4 0.2 0.8 0.3 0.2 0.3 0.3 0.6h0.6q0.3 0.4 0.6 0.9h0.6q0.1 0.3 0.3 0.5 0.5 0.2 1.1 0.3 0.2 0.3 0.3 0.6h0.6q0.1 0.3 0.3 0.6h0.5v0.3h0.6q0.2 0.3 0.3 0.5h0.6q0.4 0.6 0.9 1.2h0.5q0.3 0.4 0.6 0.9h0.6q0.3 0.4 0.5 0.8h0.6q0.5 0.6 0.9 1.2h0.6q1 1.1 2 2.3h0.6q0.4 0.6 0.8 1.1 1.2 1 2.3 2.1v0.5q1.5 1.3 2.9 2.6v0.6q0.6 0.4 1.2 0.9v0.6q0.3 0.1 0.6 0.2v0.3q0.2 0.2 0.5 0.3v0.6q0.6 0.4 1.2 0.9v0.5q0.3 0.2 0.6 0.3 0.1 0.5 0.3 0.9h0.2v0.6q0.3 0.1 0.6 0.3v0.5q0.3 0.2 0.6 0.3v0.6q0.3 0.1 0.6 0.3v0.6q0.3 0.1 0.6 0.2v0.6q0.2 0.2 0.5 0.3 0.2 0.6 0.3 1.2 0.3 0.1 0.6 0.3 0.1 0.4 0.3 0.8h0.3v0.6l0.5 0.6v0.5h0.3v0.6h0.3v0.6h0.3v0.6h0.3v0.6h0.3q0.3 0.8 0.6 1.7h0.3q0.1 0.7 0.2 1.4h0.3q0.2 0.6 0.3 1.2h0.3v0.9h0.3q0.1 0.5 0.3 1.1h0.3q0.4 1.3 0.8 2.6h0.3v0.9h0.3v0.5h0.3q0.1 0.9 0.3 1.8h0.3v1.1h0.3v0.9h0.3v0.9h0.2v0.8h0.3v0.9h0.3q0.3 1.4 0.6 2.9h0.3q0.1 2.3 0.3 4.6h0.3v1.1h0.2v1.2h0.3v1.1h0.3v1.2h0.3v6.1c1.3 4.4 1.6 11.8 0.3 16.4q-0.1 2.3-0.3 4.6c-0.5 1.8-0.9 4.3-1.4 6.1v1.7c-0.5 1.5-1 3.5-1.5 4.9v1.2h-0.3v0.8h-0.2v0.9h-0.3q-0.5 1.9-0.9 3.7h-0.3v0.6h-0.3q-0.1 0.9-0.3 1.7h-0.3v0.6h-0.2v0.9h-0.3v0.6h-0.3v0.8h-0.3q-0.2 0.6-0.3 1.2h-0.3q-0.1 0.7-0.3 1.4h-0.3q-0.3 0.9-0.5 1.7h-0.3v0.6h-0.3v0.6h-0.3v0.6h-0.3v0.6h-0.3v0.5h-0.3v0.6l-0.6 0.6v0.6q-0.2 0.1-0.5 0.2-0.3 0.9-0.6 1.8-0.3 0.1-0.6 0.3v0.6h-0.3v0.5q-0.3 0.2-0.5 0.3v0.6q-0.3 0.1-0.6 0.3v0.6q-0.3 0.1-0.6 0.2v0.6q-0.3 0.2-0.6 0.3v0.6q-0.3 0.1-0.5 0.3v0.6q-0.5 0.2-0.9 0.5v0.6q-0.4 0.3-0.9 0.6v0.6q-0.4 0.2-0.8 0.5v0.6q-0.5 0.3-0.9 0.6v0.6q-0.7 0.5-1.5 1.1v0.6q-1 0.9-2 1.7v0.6q-1.3 1.2-2.6 2.3-0.4 0.6-0.8 1.2h-0.6q-1.2 1.3-2.3 2.6h-0.6q-0.4 0.5-0.9 1.1h-0.5q-0.6 0.7-1.2 1.4h-0.6q-0.3 0.5-0.5 0.9h-0.6v0.3q-0.5 0.1-0.9 0.3-0.1 0.3-0.3 0.6h-0.5q-0.3 0.4-0.6 0.8-4.2 2.3-8.4 4.7h-0.9v0.2q-0.5 0.2-1.1 0.3v0.3h-0.9v0.3h-0.6v0.3q-1.2 0.3-2.5 0.6v0.3h-0.6v0.2h-0.9v0.3h-0.9v0.3h-0.8v0.3q-1 0.2-2 0.3v0.3q-1.9 0.1-3.8 0.3-2.9 0.7-5.8 1.4-1.3-1.4-2.6-2.9-0.2-0.1-0.5-0.3v-43.5-109.6c0.9-0.9 1.2-6.2 0.8-8.4-0.2-1.2-0.7-4.9-0.3-6.6h0.3c0.5-1.8-0.2-6.3-0.5-7.5v-2.3h-0.3v-2.3h-0.3v-1.2h-0.3v-1.1h-0.3v-1.2h-0.3v-1.1h-0.3v-2.3h-0.2v-2.3h-0.3v-0.9h-0.3v-0.9h-0.3v-1.1h-0.3v-0.9h-0.3v-0.9h-0.3v-1.1h-0.3q-0.1-1.2-0.3-2.3h-0.3v-1.2h-0.2q-0.3-1.4-0.6-2.8h-0.3v-0.9h-0.3v-0.9h-0.3v-0.8h-0.3v-0.9h-0.3v-1.2h-0.3v-0.8h-0.2v-0.9h-0.3q-0.2-1.2-0.3-2.3h-0.3q-0.1-1.2-0.3-2.3-0.4-0.3-0.9-0.6v-0.6q-0.5-0.4-1.1-0.8-0.2-0.5-0.3-0.9-0.3-0.1-0.6-0.3v-0.6q-0.4-0.2-0.8-0.5v-0.6l-0.6-0.6v-0.6h-0.3v-0.5h-0.3v-0.6h-0.3v-0.6h-0.3q-0.1-0.6-0.3-1.2h-0.2q-0.2-0.5-0.3-1.1h-0.3v-0.6h-0.3v-0.6h-0.3v-0.5h-0.3v-0.6h-0.3v-0.6h-0.3v-0.6l-0.5-0.5v-0.6q-0.3-0.2-0.6-0.3-0.3-0.9-0.6-1.7-0.3-0.2-0.6-0.3-0.3-0.9-0.5-1.8-0.3-0.1-0.6-0.2v-0.6q-0.3-0.2-0.6-0.3-0.1-0.6-0.3-1.2-0.3-0.1-0.6-0.2v-0.6q-0.2-0.2-0.5-0.3-0.2-0.6-0.3-1.2h-0.3q-0.2-0.4-0.3-0.8-0.3-0.2-0.6-0.3-0.1-0.6-0.3-1.2-0.2-0.1-0.5-0.3v-0.5h-0.3q-0.2-0.5-0.3-0.9-0.3-0.1-0.6-0.3v-0.6q-0.4-0.3-0.9-0.5v-0.6q-0.4-0.3-0.8-0.6v-0.6q-0.5-0.3-0.9-0.6v-0.5q-0.4-0.3-0.9-0.6v-0.6q-0.4-0.3-0.8-0.5v-0.6q-0.3-0.2-0.6-0.3-0.1-0.5-0.3-0.9-0.4-0.3-0.9-0.6v-0.5q-0.5-0.5-1.1-0.9v-0.6q-0.6-0.4-1.2-0.8v-0.6q-0.5-0.5-1.1-0.9v-0.6q-1.5-1.3-2.9-2.6v-0.5q-1.6-1.5-3.2-2.9c-3-4.2-7-8.3-11.2-11.3q-0.3-0.4-0.6-0.8-0.4-0.3-0.9-0.6v-0.3h-0.5q-1-1.2-2.1-2.3h-0.5q-0.2-0.3-0.3-0.6-0.5-0.3-0.9-0.6v-0.3h-0.6q-0.5-0.7-1.1-1.4h-0.6q-0.4-0.6-0.9-1.2h-0.5q-0.3-0.4-0.6-0.8h-0.6q-0.3-0.4-0.6-0.9h-0.6q-0.2-0.4-0.5-0.8h-0.6q-0.4-0.6-0.9-1.2h-0.5q-0.2-0.3-0.3-0.6h-0.6q-0.1-0.3-0.3-0.5-0.4-0.2-0.9-0.3-0.2-0.5-0.5-0.9h-0.6q-0.4-0.6-0.9-1.2h-0.5q-0.2-0.2-0.3-0.5-0.6-0.2-1.2-0.3-0.1-0.3-0.3-0.6h-0.6q-0.1-0.3-0.2-0.6-0.6-0.1-1.2-0.3v-0.3q-0.4-0.1-0.9-0.2-0.1-0.3-0.3-0.6-0.5-0.2-1.1-0.3v-0.3q-0.4-0.1-0.9-0.3-0.1-0.3-0.3-0.6-0.5-0.1-1.1-0.2-0.2-0.3-0.3-0.6h-0.6q-0.1-0.3-0.3-0.6-0.8-0.3-1.7-0.6-0.1-0.3-0.3-0.6h-0.6v-0.2h-0.5l-0.6-0.6h-0.6q-0.1-0.3-0.3-0.6-0.9-0.3-1.7-0.6-0.1-0.3-0.3-0.5h-0.6v-0.3h-0.5l-0.6-0.6h-0.6q-0.1-0.3-0.3-0.6-0.9-0.3-1.7-0.6v-0.3h-0.6v-0.2q-0.9-0.3-1.7-0.6v-0.3h-0.9v-0.3q-0.6-0.1-1.2-0.3v-0.3h-0.8v-0.3h-0.6v-0.2q-0.6-0.2-1.2-0.3v-0.3q-1.7-0.6-3.4-1.2v-0.3q-0.6-0.1-1.2-0.3v-0.2h-0.8v-0.3h-0.6v-0.3q-0.9-0.2-1.7-0.3v-0.3h-0.6v-0.3q-0.9-0.1-1.7-0.3v-0.3h-0.6v-0.3q-0.9-0.1-1.7-0.2v-0.3h-0.6v-0.3h-0.9v-0.3h-0.9v-0.3h-0.8v-0.3h-0.9v-0.3q-1.4-0.3-2.9-0.5v-0.3h-0.5v-0.3q-0.9-0.2-1.8-0.3v-0.3h-0.6v-0.3h-0.8v-0.3h-0.9v-0.3h-0.9v-0.2h-0.8v-0.3h-1.2v-0.3h-0.8v-0.3h-0.9v-0.3h-1.2v-0.3q-1.1-0.1-2.3-0.3-3-1-6-2-1.6-0.1-3.2-0.3v-0.3h-1.1c-1.4-0.4-3.3-1-4.7-1.4q-1.7-0.3-3.4-0.6v-0.3q-5.3-0.6-10.7-1.1v-0.3h-1.4v-0.3h-1.8v-0.3h-1.7v-0.3h-2.3v-0.3h-2.3v-0.3h-2.3v-0.2h-6.9c-3-0.9-7.5-0.6-11.3-0.6-4.7 0-10.6-0.5-14.4 0.6h-5.2q-3.2 0.2-6.3 0.5v0.3q-6.8 0.7-13.6 1.4c-1.8 0.6-4.3 1-6 1.5h-1.8v0.3h-1.1v0.3h-1.2v0.3h-1.1v0.2h-1.2v0.3q-2.3 0.3-4.6 0.6c-3.6 1.2-7.9 2-11.6 3.2q-1.7 0.3-3.4 0.6v0.3q-1 0.1-2 0.2v0.3h-0.9v0.3h-0.9v0.3h-0.8v0.3h-0.9v0.3q-1.9 0.4-3.7 0.8v0.3h-0.6v0.3q-0.9 0.2-1.7 0.3v0.3h-0.6v0.3h-0.9v0.3q-2.7 0.7-5.5 1.4v0.3q-0.5 0.1-1.1 0.3v0.3h-0.9v0.3h-0.6v0.3q-0.5 0.1-1.1 0.2v0.3h-0.9v0.3h-0.6v0.3q-0.8 0.2-1.7 0.3v0.3h-0.6v0.3q-0.8 0.1-1.7 0.3v0.3q-0.6 0.1-1.2 0.2v0.3h-0.8v0.3h-0.6v0.3q-0.6 0.2-1.1 0.3v0.3h-0.9v0.3h-0.6v0.3q-0.7 0.1-1.4 0.3v0.2q-0.9 0.3-1.8 0.6v0.3h-0.5v0.3h-0.6v0.3q-0.9 0.3-1.7 0.6-0.2 0.2-0.3 0.5-0.9 0.3-1.8 0.6-0.1 0.3-0.2 0.6h-0.6v0.3q-0.9 0.3-1.8 0.5v0.3q-0.5 0.2-1.1 0.3v0.3q-0.6 0.2-1.2 0.3v0.3q-0.5 0.1-1.1 0.3v0.3h-0.6v0.3h-0.6v0.2h-0.6v0.3h-0.5v0.3q-0.9 0.3-1.8 0.6-0.1 0.3-0.2 0.6-0.6 0.1-1.2 0.3-0.1 0.3-0.3 0.5h-0.6v0.3h-0.5q-0.2 0.3-0.3 0.6h-0.6q-0.2 0.3-0.3 0.6h-0.6q-0.1 0.3-0.3 0.6-0.5 0.1-1.1 0.2-0.2 0.3-0.3 0.6-0.6 0.2-1.2 0.3-0.1 0.3-0.2 0.6h-0.6q-0.3 0.4-0.6 0.9h-0.6q-0.1 0.3-0.3 0.5h-0.5q-0.3 0.5-0.6 0.9h-0.6q-0.3 0.4-0.6 0.9h-0.5q-0.5 0.5-0.9 1.1h-0.6q-0.4 0.6-0.8 1.2h-0.6q-0.6 0.7-1.2 1.4h-0.6q-0.4 0.6-0.8 1.2h-0.6q-0.4 0.5-0.9 1.1h-0.5q-0.6 0.7-1.2 1.5h-0.6q-1.3 1.4-2.6 2.8h-0.5q-1.3 1.5-2.6 2.9h-0.6q-0.9 1-1.7 2h-0.6q-0.2 0.3-0.3 0.6-0.7 0.6-1.5 1.2v0.5q-1 0.9-2 1.8v0.6q-1.6 1.4-3.1 2.8v0.6q-1.5 1.3-2.9 2.6v0.6l-1.2 0.9v0.5q-0.6 0.5-1.1 0.9v0.6q-0.8 0.6-1.5 1.1v0.6q-0.6 0.4-1.1 0.9v0.6q-0.6 0.4-1.2 0.8v0.6q-0.6 0.4-1.1 0.9v0.5q-0.5 0.3-0.9 0.6v0.6q-0.4 0.3-0.9 0.6v0.5q-0.4 0.3-0.8 0.6-0.2 0.4-0.3 0.9-0.3 0.1-0.6 0.3v0.5q-0.3 0.2-0.6 0.3v0.6q-0.3 0.2-0.5 0.3v0.6q-0.3 0.1-0.6 0.3v0.5q-0.3 0.2-0.6 0.3v0.6q-0.3 0.1-0.6 0.3v0.6q-0.3 0.1-0.6 0.3v0.5q-0.2 0.2-0.5 0.3-0.2 0.6-0.3 1.2-0.3 0.1-0.6 0.3v0.5q-0.3 0.2-0.6 0.3v0.6l-0.5 0.6v0.6q-0.3 0.1-0.6 0.2-0.3 0.9-0.6 1.8-0.3 0.1-0.6 0.3v0.5h-0.3v0.6l-0.6 0.6v0.6q-0.2 0.1-0.5 0.3-0.3 0.8-0.6 1.7-0.3 0.1-0.6 0.3v0.6l-0.6 0.5v0.6h-0.2v0.6h-0.3v0.6h-0.3v0.5h-0.3v0.6h-0.3v0.6h-0.3q-0.3 0.9-0.6 1.7h-0.3v0.9h-0.2v0.6h-0.3q-0.2 0.5-0.3 1.1h-0.3v0.9h-0.3q-0.3 0.8-0.6 1.7h-0.3v0.6h-0.2v0.6h-0.3v0.5h-0.3v0.6h-0.3q-0.3 0.9-0.6 1.7h-0.3v0.9h-0.3v0.6h-0.3q-0.1 0.6-0.2 1.2h-0.3q-0.2 0.7-0.3 1.4h-0.3q-0.3 1.4-0.6 2.9h-0.3v0.8h-0.3v0.9h-0.2v0.9h-0.3v0.8h-0.3q-0.3 1.5-0.6 2.9h-0.3q-0.1 1.2-0.3 2.3c-0.6 1.8-1.1 4.1-1.7 5.8v1.1h-0.3v1.5h-0.3v1.7h-0.3v1.5h-0.3v2.3h-0.2v2.3c-0.4 1.3-0.8 3.3-1.2 4.6-0.5 1.8 0.2 7.5 0.6 8.6h0.3v1.2h0.3v27.7 93.1 32 8.1h-0.3v0.9h-0.3v0.9h-0.3v1.1h-0.3q-0.1 0.9-0.3 1.7h-0.3c-0.7 0.7-3.8 0.4-5.2 0.3v-0.3q-2.1-0.3-4.3-0.5-5.6-1.9-11.2-3.8v-0.3h-0.6v-0.3l-1.2-0.2v-0.3h-0.5v-0.3h-0.6v-0.3h-0.6v-0.3h-0.6v-0.3h-0.6v-0.3h-0.5v-0.3h-0.6v-0.3h-0.6v-0.2h-0.6l-0.5-0.6h-0.6c-0.1-0.2-0.2-0.4-0.3-0.6h-0.6q-0.1-0.3-0.3-0.6h-0.5q-0.2-0.3-0.3-0.6-0.6-0.1-1.2-0.3-0.3-0.4-0.6-0.8h-0.5q-0.3-0.4-0.6-0.9h-0.6q-0.3-0.4-0.6-0.8h-0.5q-0.3-0.5-0.6-0.9h-0.6q-0.9-1-1.7-2-0.5-0.2-0.9-0.3-1.9-2-3.7-4-2.1-1.9-4.1-3.8v-0.6q-0.6-0.4-1.1-0.8v-0.6q-0.6-0.4-1.2-0.9v-0.6q-0.6-0.4-1.1-0.8v-0.6q-0.3-0.1-0.6-0.3-0.2-0.4-0.3-0.8h-0.3v-0.6q-0.3-0.2-0.6-0.3v-0.6q-0.3-0.1-0.5-0.3v-0.6q-0.3-0.1-0.6-0.2v-0.6q-0.3-0.2-0.6-0.3v-0.6q-0.3-0.1-0.6-0.3-0.1-0.6-0.3-1.1-0.3-0.2-0.6-0.3v-0.6q-0.2-0.1-0.5-0.3v-0.6l-0.6-0.5v-0.6h-0.3v-0.6h-0.3v-0.6h-0.3v-0.5h-0.2v-0.6h-0.3q-0.3-0.9-0.6-1.8h-0.3v-0.8h-0.3v-0.6h-0.3q-0.1-0.6-0.3-1.1h-0.3q-0.5-1.8-1.1-3.5h-0.3q-0.1-0.6-0.3-1.2h-0.3v-0.8h-0.3v-0.6h-0.3q-0.1-0.9-0.2-1.7h-0.3v-1.2h-0.3v-0.9h-0.3v-0.8h-0.3v-0.9h-0.3v-0.8h-0.3q-0.3-1.5-0.5-2.9h-0.3q-0.2-2.3-0.3-4.7h-0.3v-1.1h-0.3v-1.1h-0.3v-1.2h-0.3v-1.2h-0.3v-4.6c-1.1-3.9-1.5-13.6-0.3-17.9v-2.3h0.3v-2.3h0.3q0.2-2.3 0.3-4.6h0.3q0.1-1.6 0.3-3.2c0.4-1.5 0.9-3.4 1.4-4.9v-1.1h0.3q0.5-1.9 0.9-3.8h0.3q0.1-0.8 0.3-1.7h0.2v-0.6h0.3q0.2-0.8 0.3-1.7h0.3v-0.6h0.3q0.1-0.8 0.3-1.7h0.3v-0.6h0.3q0.1-0.8 0.3-1.7h0.2v-0.6h0.3v-0.9h0.3q0.3-0.8 0.6-1.7h0.3v-0.6h0.3v-0.5h0.3v-0.6h0.2v-0.6l0.6-0.6v-0.6h0.3q0.2-0.4 0.3-0.8 0.3-0.2 0.6-0.3 0.1-0.6 0.3-1.2h0.2q0.2-0.4 0.3-0.8 0.3-0.2 0.6-0.3 0.2-0.6 0.3-1.2h0.3q0.1-0.4 0.3-0.8 0.3-0.2 0.6-0.3 0.1-0.6 0.3-1.2h0.2q0.2-0.4 0.3-0.8 0.3-0.2 0.6-0.3v-0.6q0.3-0.1 0.6-0.3v-0.6q0.4-0.3 0.8-0.5v-0.6q0.5-0.3 0.9-0.6v-0.6q0.4-0.3 0.9-0.5v-0.6q1.3-1.2 2.6-2.3v-0.6q2.6-2.5 5.2-4.9 1.1-1.3 2.3-2.6h0.5q0.3-0.4 0.6-0.9 0.5-0.1 0.9-0.3 0.1-0.2 0.3-0.5h0.6q0.1-0.3 0.2-0.6h0.6q0.5-0.6 0.9-1.2h0.6q0.2-0.4 0.5-0.8h0.6q0.3-0.5 0.6-0.9h0.6q0.1-0.3 0.3-0.6h0.5q0.2-0.3 0.3-0.5 2.3-1.1 4.6-2.1c0-1.7 0.5-3.3 0.9-4.6v-4.6c0.4-1.3 0.8-3.3 1.2-4.6q0.1-3.5 0.2-6.9h0.3v-2.3h0.3v-1.5h0.3v-1.7h0.3v-1.5h0.3v-1.1h0.3v-1.2h0.3v-1.1h0.3v-1.2h0.2q0.2-2.3 0.3-4.6c0.7-2.1 1.3-4.8 2-6.9q0.2-1.2 0.3-2.3h0.3q0.3-1.5 0.6-2.9h0.3v-0.9h0.3v-0.8h0.3v-0.9h0.3v-0.9h0.2v-1.1h0.3v-0.9h0.3v-0.8h0.3v-0.9h0.3v-0.9h0.3v-1.1h0.3v-0.9h0.3v-0.9h0.2v-0.8h0.3v-0.9h0.3q0.5-1.9 0.9-3.7h0.3v-0.6h0.3q0.1-0.9 0.3-1.7h0.2v-0.6h0.3q0.2-0.9 0.3-1.8h0.3v-0.5h0.3q0.1-0.9 0.3-1.8h0.3v-0.5h0.3v-0.9h0.2v-0.6h0.3v-0.8h0.3q0.2-0.6 0.3-1.2h0.3v-0.6h0.3v-0.8h0.3q0.3-0.9 0.6-1.8h0.2v-0.5h0.3v-0.6h0.3v-0.6h0.3v-0.6h0.3v-0.5h0.3v-0.6h0.3v-0.6h0.3v-0.9h0.3v-0.5h0.2q0.2-0.6 0.3-1.2h0.3v-0.9h0.3q0.1-0.5 0.3-1.1h0.3q0.3-0.9 0.6-1.7h0.2q0.2-0.6 0.3-1.2h0.3q0.2-0.6 0.3-1.2h0.3v-0.5h0.3v-0.6h0.3v-0.6h0.3v-0.6h0.3v-0.5h0.2v-0.6h0.3v-0.6l0.6-0.6v-0.5q0.3-0.2 0.6-0.3v-0.6q0.3-0.2 0.6-0.3 0.1-0.6 0.2-1.2 0.3-0.1 0.6-0.2 0.2-0.5 0.3-0.9h0.3q0.1-0.6 0.3-1.2h0.3v-0.5q0.3-0.2 0.6-0.3 0.2-0.9 0.5-1.8 0.3-0.1 0.6-0.2 0.3-0.9 0.6-1.8h0.3q0.1-0.4 0.3-0.8 0.2-0.2 0.5-0.3 0.2-0.6 0.3-1.2 0.3-0.1 0.6-0.3v-0.5q0.3-0.2 0.6-0.3v-0.6h0.3q0.1-0.4 0.3-0.9 0.2-0.1 0.5-0.3v-0.5q0.3-0.2 0.6-0.3v-0.6h0.3q0.1-0.4 0.3-0.9 0.3-0.1 0.6-0.3v-0.5q0.4-0.3 0.8-0.6v-0.6q0.3-0.1 0.6-0.3 0.2-0.4 0.3-0.8h0.3v-0.6q0.3-0.2 0.6-0.3v-0.6q0.2-0.1 0.5-0.3v-0.5q0.3-0.2 0.6-0.3 0.2-0.5 0.3-0.9 0.4-0.3 0.9-0.6v-0.6q0.4-0.2 0.8-0.5v-0.6q0.5-0.3 0.9-0.6v-0.6q0.6-0.4 1.1-0.8v-0.6q0.6-0.4 1.2-0.9v-0.5q0.6-0.5 1.1-0.9v-0.6q0.8-0.6 1.5-1.1v-0.6q0.6-0.4 1.1-0.9v-0.6q0.6-0.4 1.2-0.8v-0.6q0.4-0.3 0.9-0.6 0.3-0.4 0.5-0.8h0.3v-0.6q1-0.9 2.1-1.8v-0.5q1-0.9 2-1.8v-0.5q1-0.9 2-1.8v-0.5q2.1-2.1 4.3-4.1 1.7-1.8 3.5-3.7h0.6q2-2.2 4-4.4h0.6q1.3-1.4 2.6-2.8h0.5q0.5-0.6 0.9-1.2h0.6q0.6-0.7 1.1-1.4h0.6q0.6-0.8 1.2-1.5h0.5q0.9-1 1.8-2h0.5q0.8-0.9 1.5-1.7h0.6q0.2-0.5 0.5-0.9 0.5-0.1 0.9-0.3 0.2-0.3 0.3-0.6h0.6q0.1-0.2 0.3-0.5h0.5q0.5-0.6 0.9-1.2h0.6q0.3-0.4 0.6-0.8 0.4-0.2 0.8-0.3 0.2-0.3 0.3-0.6h0.6q0.1-0.3 0.3-0.6h0.5q0.3-0.4 0.6-0.9h0.6q0.1-0.3 0.3-0.5 0.6-0.2 1.1-0.3 0.2-0.3 0.3-0.6 0.6-0.1 1.2-0.3 0.1-0.3 0.3-0.6h0.6v-0.3q0.4-0.1 0.8-0.2 0.2-0.3 0.3-0.6h0.6q0.3-0.4 0.6-0.9h0.5q0.2-0.3 0.3-0.6h0.6q0.1-0.2 0.3-0.5 0.9-0.3 1.7-0.6v-0.3q0.6-0.1 1.2-0.3v-0.3q0.5-0.1 1.1-0.3v-0.3q0.6-0.1 1.2-0.2v-0.3h0.6v-0.3h0.5v-0.3h0.6v-0.3h0.6v-0.3q0.8-0.3 1.7-0.6v-0.2q0.9-0.3 1.8-0.6v-0.3q0.5-0.2 1.1-0.3v-0.3q0.6-0.1 1.2-0.3v-0.3h0.5v-0.3h0.6v-0.2h0.6v-0.3h0.6v-0.3h0.5v-0.3q0.9-0.3 1.8-0.6v-0.3q0.8-0.3 1.7-0.5v-0.3h0.9v-0.3h0.5v-0.3q0.9-0.2 1.8-0.3v-0.3q0.7-0.1 1.4-0.3v-0.3q0.6-0.1 1.2-0.3v-0.3h0.5v-0.2h0.9v-0.3q0.6-0.2 1.2-0.3v-0.3h0.8v-0.3h0.6v-0.3q0.6-0.1 1.2-0.3v-0.2h0.8v-0.3q0.6-0.2 1.2-0.3v-0.3q2.7-0.7 5.5-1.5v-0.2h0.8v-0.3h0.6v-0.3q0.9-0.2 1.7-0.3v-0.3h0.6v-0.3q0.9-0.1 1.7-0.3v-0.3h0.6v-0.3q0.9-0.1 1.7-0.2v-0.3h0.6v-0.3h1.2v-0.3h1.1v-0.3h1.2v-0.3h1.1v-0.3h0.9v-0.3h0.9v-0.3h0.8v-0.2h1.2v-0.3h0.8v-0.3h0.9v-0.3h0.9v-0.3h0.8v-0.3q1.1-0.1 2.1-0.3v-0.2q1.1-0.2 2.3-0.3c2.1-0.8 4.8-1.4 6.9-2.1q2-0.1 4-0.2c3.1-0.9 6.5-1.4 9.5-2.4q2.2-0.1 4.4-0.2c2.1-0.7 4.8-0.9 6.9-1.5h2.3v-0.3h2.3v-0.3h2.3v-0.3h3.5v-0.2q2.9-0.2 5.7-0.3h3.2v-0.3h4.3v-0.3q5.1 0.1 10.1 0.3v0.3h2.3v0.3h2.3v0.2h7v0.3h2.3v0.3h2.3v0.3h2.3v0.3h2.3v0.3h2.3v0.3h1.7v0.3h1.8v0.3h1.4v0.2q3 0.3 6.1 0.6c2.9 0.9 6.3 1.7 9.2 2.6h1.7v0.3h1.5v0.3h1.4v0.3h1.2v0.3h1.1v0.3h1.2v0.3q1.4 0.2 2.9 0.5v0.3h0.8v0.3h0.9v0.3h0.9v0.3h0.8v0.3h1.2v0.2h0.8v0.3h0.9v0.3h0.9v0.3h0.8v0.3h1.2v0.3h0.9v0.3h0.8v0.3h0.9v0.3h0.9v0.2h0.5v0.3q0.9 0.2 1.8 0.3v0.3h0.5v0.3h0.9v0.3q1 0.1 2 0.3v0.3h0.9v0.3h0.9v0.2h0.8v0.3h0.9v0.3h0.6v0.3q0.8 0.1 1.7 0.3v0.3h0.6v0.3h0.8v0.3h0.6v0.3h0.6v0.2h0.6v0.3h0.5v0.3h0.6v0.3h0.6v0.3h0.6v0.3h0.5v0.3q0.9 0.3 1.8 0.5v0.3h0.8v0.3q0.6 0.2 1.2 0.3v0.3h0.9v0.3h0.5v0.3q0.6 0.1 1.2 0.3v0.3h0.9v0.2q0.5 0.2 1.1 0.3v0.3h0.9v0.3q0.8 0.3 1.7 0.6v0.3h0.6v0.3q0.8 0.2 1.7 0.5 0.1 0.3 0.3 0.6h0.6v0.3h0.5l0.6 0.6h0.6q0.1 0.3 0.3 0.6 0.9 0.2 1.7 0.5v0.3q0.4 0.2 0.9 0.3 0.1 0.3 0.3 0.6 0.6 0.1 1.1 0.3v0.3q0.5 0.1 0.9 0.2 0.1 0.3 0.3 0.6 0.6 0.2 1.1 0.3v0.3q0.5 0.1 0.9 0.3 0.2 0.3 0.3 0.6 0.6 0.1 1.1 0.3v0.2q0.5 0.2 0.9 0.3 0.1 0.3 0.3 0.6 0.6 0.1 1.2 0.3v0.3q0.4 0.1 0.8 0.3 0.2 0.3 0.3 0.5h0.6q0.1 0.3 0.3 0.6h0.6q0.2 0.5 0.5 0.9h0.6v0.3q0.4 0.1 0.9 0.3 0.1 0.2 0.3 0.5h0.5q0.5 0.6 0.9 1.2 0.4 0.2 0.9 0.3 0.1 0.3 0.2 0.6h0.6q0.3 0.4 0.6 0.8h0.6q0.1 0.3 0.3 0.6h0.5v0.3q0.5 0.1 0.9 0.3 0.2 0.3 0.3 0.6h0.6q0.3 0.4 0.6 0.8h0.5q0.2 0.3 0.3 0.6h0.6q0.3 0.4 0.6 0.9h0.6q0.1 0.3 0.2 0.5h0.3q0.2 0.3 0.3 0.6h0.6q0.6 0.7 1.1 1.5h0.6q0.6 0.7 1.2 1.4h0.5q1.1 1.2 2.1 2.3h0.5q0.8 0.9 1.5 1.7h0.6q1 1.2 2 2.3h0.5q1.5 1.6 2.9 3.2h0.6q1.5 1.6 2.9 3.2c2.1 2.1 4.3 3.9 6.1 6.3q1.5 1.5 3.1 2.9v0.6q1 0.9 2.1 1.7v0.6q0.8 0.7 1.7 1.4v0.6q0.6 0.5 1.1 0.9v0.6q0.6 0.4 1.2 0.8v0.6q0.7 0.6 1.4 1.2v0.5q0.3 0.2 0.6 0.3v0.3q0.3 0.2 0.6 0.3v0.6q0.6 0.4 1.1 0.8v0.6q0.3 0.2 0.6 0.3v0.3q0.3 0.1 0.6 0.3v0.6q0.4 0.3 0.9 0.5 0.1 0.5 0.2 0.9 0.3 0.1 0.6 0.3v0.6q0.4 0.3 0.9 0.5v0.6q0.4 0.3 0.9 0.6v0.6q0.4 0.3 0.8 0.6v0.5q0.4 0.3 0.9 0.6v0.6q0.4 0.3 0.8 0.6 0.2 0.4 0.3 0.8 0.3 0.2 0.6 0.3v0.6q0.3 0.1 0.6 0.3v0.5q0.3 0.2 0.6 0.3v0.6q0.2 0.2 0.5 0.3v0.6q0.3 0.1 0.6 0.3v0.5q0.3 0.2 0.6 0.3v0.6q0.3 0.2 0.6 0.3v0.6q0.3 0.1 0.5 0.3 0.2 0.5 0.3 1.1 0.3 0.2 0.6 0.3v0.6q0.3 0.1 0.6 0.3 0.3 0.8 0.6 1.7 0.3 0.2 0.5 0.3 0.3 0.9 0.6 1.7 0.3 0.2 0.6 0.3v0.6l0.6 0.6v0.5q0.3 0.2 0.5 0.3v0.6q0.3 0.1 0.6 0.3 0.2 0.6 0.3 1.1 0.3 0.2 0.6 0.3 0.1 0.5 0.3 0.9h0.3q0.1 0.6 0.3 1.2l0.5 0.5v0.6h0.3v0.6h0.3v0.6h0.3q0.1 0.5 0.3 1.1h0.3q0.3 0.9 0.6 1.7 0.2 0.2 0.5 0.3 0.3 0.9 0.6 1.8 0.3 0.1 0.6 0.3v0.5l0.6 0.6v0.6h0.2v0.6h0.3v0.5h0.3v0.6h0.3v0.6h0.3q0.3 0.9 0.6 1.7h0.3q1 3.1 2 6.1h0.3q0.1 0.6 0.3 1.1h0.2v0.6h0.3q0.6 1.7 1.2 3.5h0.3q0.1 0.5 0.3 1.1h0.3v0.9h0.2v0.6h0.3v0.8h0.3v0.6h0.3q0.1 0.9 0.3 1.7h0.3v0.6h0.3q0.1 0.9 0.3 1.7h0.3v0.6h0.2q0.2 0.9 0.3 1.7h0.3v0.6h0.3q0.4 1.9 0.9 3.8h0.3v0.8h0.2v0.9h0.3v0.9h0.3v0.8h0.3v1.2h0.3v0.9h0.3v0.8h0.3v0.9h0.3v0.9h0.3q0.2 1.4 0.5 2.8h0.3q0.2 1.6 0.3 3.2c0.7 2.4 1.3 5.1 2 7.5q0.2 1.6 0.3 3.2c0.5 1.3 1 3.2 1.5 4.6v1.4h0.2q0.2 1.6 0.3 3.2h0.3q0.3 3.5 0.6 6.9h0.3v2.3h0.3v2.3c1 3.5 1.1 7.6 1.1 11.9z"/><path fill-rule="evenodd" class="a" d="m85.8 192.6h15.8q2.5 1.6 5 3.2v0.6q0.2 0.1 0.5 0.3 0.2 0.4 0.3 0.8h0.3q0.2 0.6 0.3 1.2 0.3 0.1 0.6 0.3v0.5q0.3 0.2 0.5 0.3v0.6h0.3c0.4 1-0.3 2.4-0.3 2.9h0.3v1.7h0.3v6.7 24.8 101.8 32 9.5h-0.3c-0.1 1-0.1 1.9-0.3 2.9h-0.2c-0.1 0.3 0.6 1 0.2 1.7q-0.2 0.2-0.5 0.3v0.6q-0.7 0.6-1.5 1.1v0.6q-0.5 0.4-1.1 0.9v0.6q-0.3 0.1-0.6 0.2v0.3h-0.6v0.3q-0.8 0.3-1.7 0.6v0.3h-0.9v0.3q-0.6 0.1-1.1 0.3v0.3h-2.9v0.2h-6.4-5.4v-0.2h-1.5v-0.3h-0.5v-0.3h-0.3v0.3c-0.6 0-2-0.4-2.3-0.6q-0.2-0.3-0.3-0.6-0.5-0.1-0.9-0.3-0.3-0.4-0.6-0.8h-0.6q-0.4-0.6-0.8-1.2h-0.6v-0.3c-0.8-0.7-0.1 0.1-0.6-0.9h-0.3v-0.8h-0.3v-0.6h-0.2v-0.6h-0.3v-0.5h-0.3c-0.5-1.1-0.3-2.9-0.3-4.4v-8.9-30.9-101.5-36h0.3v-0.6h0.3v-1.5h0.3v-0.8h0.2v-0.9q0.6-0.4 1.2-0.9 0.4-0.5 0.9-1.1h0.3v-0.6q1.3-1.1 2.6-2.3c0.5 0 3.7-0.3 4-0.6z"/><path fill-rule="evenodd" class="a" d="m429.6 192.6h15.8v0.3h0.6q0.2 0.3 0.3 0.6h0.6q0.1 0.3 0.3 0.6h0.5q0.3 0.4 0.6 0.8h0.6q0.1 0.3 0.3 0.6h0.5q0.2 0.3 0.3 0.6h0.3v0.6h0.3v0.5q0.3 0.2 0.6 0.3 0.3 0.9 0.6 1.8 0.3 0.1 0.5 0.2 0.2 0.6 0.3 1.2h0.3v2.3c0.9 3 0.6 7.4 0.6 11.3v22.7 101.6 31.1 10.4h-0.3v1.1h-0.3v1.2h-0.3q-0.1 1.2-0.3 2.3-0.2 0.1-0.5 0.3v0.6q-0.5 0.3-0.9 0.5v0.6q-0.4 0.3-0.9 0.6v0.6q-0.4 0.3-0.8 0.6v0.5q-0.3 0.2-0.6 0.3v0.3q-0.7 0.1-1.4 0.3v0.3h-0.9v0.3q-1 0.1-2 0.3v0.3h-2.6v0.2h-6.9c-2.7 0-5.2 0.1-7.2-0.5v-0.3q-1.1-0.2-2.1-0.3-0.8-1-1.7-2h-0.6q-1.1-1.3-2.3-2.6v-0.9h-0.3v-0.6h-0.3v-0.5h-0.3v-0.6h-0.2v-0.9h-0.3v-33.4-106.2-30.3-10.9h0.3v-0.6q0.3-0.1 0.5-0.3-0.1-0.3-0.3-0.6h0.3q0.2-0.7 0.3-1.4h0.3v-0.9q0.6-0.4 1.2-0.8v-0.3h0.5q0.3-0.5 0.6-0.9c1.1-1 2.1-1.7 3.5-2.3v-0.3c1-0.4 2.2 0.3 2.9-0.3z"/><path fill-rule="evenodd" class="b" d="m244.8 299.9c-0.6 0.2-0.6 0.3-1.1 0.6v0.3h-0.9v0.3c-1.4 0.4-3.3-0.6-4-0.9h-0.9v-0.3h-0.8v-0.3h-0.9v-0.3q-1-0.1-2-0.2v-0.3h-1.2v-0.3q-1.6-0.2-3.2-0.3v-0.3h-10.4c-2.1 0-4.9-0.2-6.6 0.3h-4.6v0.3h-4.6v0.3h-3.2q-3 0.1-6.1 0.3v0.2h-3.4c-3.6 1.1-7.9-0.7-8.1-4-0.7-0.7-0.6-2.9-0.6-4.3v-6.1h0.3v-0.9h0.3v-0.8h0.3q0.3-0.9 0.5-1.8h0.3v-0.5h0.3v-0.6q0.3-0.1 0.6-0.3 0.1-0.6 0.3-1.1 0.3-0.2 0.6-0.3v-0.6q0.3-0.2 0.5-0.3v-0.6q0.3-0.1 0.6-0.3 0.2-0.4 0.3-0.8h0.3q0.1-0.6 0.3-1.2h0.3v-0.6h0.3v-0.5h0.2q0.3-0.9 0.6-1.8h0.3q0.2-0.8 0.3-1.7h0.3v-2h0.3v-2.3h0.3v-4.7h0.3v-6.9c0.6-2.3 0.5-5.6 0.5-8.6v-12.8h-0.2v-4.6c-0.6-1.8-0.3-4.9-0.3-7.2v-13.6c0-5.5 0.7-13.9-0.6-18.4v-26.6c0-3.8 0.6-9.5-0.3-12.7v-4.6h-0.3v-4.6h-0.3v-2.3h-0.3v-2.1h-0.3v-0.5h-0.3v-0.9h-0.2q-0.2-0.6-0.3-1.2h-0.3q-0.2-0.5-0.3-1.1-0.3-0.2-0.6-0.3v-0.6q-3-2.6-6-5.2v-0.6q-0.3-0.1-0.6-0.3v-0.5q-0.3-0.2-0.6-0.3v-0.9h-0.3v-0.8h-0.3c-0.5-1.8 0.5-7.8 0.9-9h0.3v-0.9h0.3v-1.1q1.3-3.1 2.6-6.1 0.3-0.1 0.5-0.3v-0.5q0.3-0.2 0.6-0.3 0.2-0.5 0.3-0.9 0.7-0.6 1.5-1.1v-0.6q0.2-0.2 0.5-0.3 0.5-0.6 0.9-1.2h0.6q0.5-0.7 1.1-1.4h0.6q0.4-0.6 0.9-1.2h0.6q0.1-0.3 0.2-0.6 0.5-0.1 0.9-0.2v-0.3q0.6-0.2 1.2-0.3 0.1-0.3 0.3-0.6 0.5-0.1 1.1-0.3v-0.3q0.9-0.3 1.7-0.6v-0.2h0.9v-0.3h0.6v-0.3h0.8v-0.3h0.9v-0.3h0.9v-0.3h0.8v-0.3q1.2-0.1 2.4-0.3v-0.2h1.1v-0.3h1.7v-0.3h3.2c1-0.3 5-0.7 6.4-0.3q2 0.6 4 1.1 0.3 0.5 0.6 0.9h0.6l0.5 0.6v0.6q0.3 0.1 0.6 0.2v0.6q0.3 0.2 0.6 0.3v0.6h0.3q0.3 0.9 0.6 1.7h0.2q0.2 1.3 0.3 2.6c0.4 1.2 1.1 3.7 0.6 5.5h-0.3v4.1h-0.3q-0.1 1-0.3 2h-0.2q-0.3 0.8-0.6 1.7h-0.3v0.6h-0.3v0.6h-0.3q-0.1 0.5-0.3 1.1h-0.3q-0.1 0.5-0.3 0.9-0.2 0.1-0.5 0.3v0.5q-0.3 0.2-0.6 0.3-0.1 0.5-0.3 0.9h-0.3q-0.1 0.6-0.3 1.2-0.3 0.1-0.5 0.2-0.2 0.6-0.3 1.2h-0.3q-0.3 0.9-0.6 1.7h-0.3v0.9h-0.3v0.6h-0.3v1.1h-0.3v1.8h-0.2v1.7h-0.3v93 8.3h-0.3v9.9h0.3v4.6h0.3v6.9h0.2v2h0.3v1.5h0.3v1.1h0.3v1.2h0.3v0.8h0.3v0.9h0.3v0.9h0.3q0.3 0.8 0.5 1.7h0.3q0.2 0.6 0.3 1.2 0.7 0.5 1.5 1.1 0.3 0.4 0.5 0.9h0.6q0.3 0.4 0.6 0.8 0.6 0.2 1.1 0.3 0.2 0.3 0.3 0.6h4.9v-0.3q1.6-0.4 3.2-0.8c1.8-0.9 2.8-2.2 4.1-3.5q0.5-0.4 1.1-0.9v-0.6q0.4-0.2 0.9-0.5v-0.6q0.3-0.2 0.6-0.3 0.1-0.6 0.2-1.2h0.3v-0.5h0.3v-0.6h0.3q0.3-0.9 0.6-1.7h0.3q0.1-1.1 0.3-2.1h0.3v-0.8h0.2v-0.9h0.3v-1.1h0.3q0.2-1.2 0.3-2.3h0.3q0.1-1.8 0.3-3.5h0.3v-2h0.3v-1.5h0.3v-1.1h0.2c0.6-1.6 0.6-3.3 0.6-5.2v-2.6h0.3v-1.5h0.3v-1.1h0.3v-0.9h0.3v-0.9h0.3v-0.5h0.3v-0.6h0.2c0.5-0.8-0.2-0.6 0.9-0.9v-0.3q0.7 0.2 1.4 0.3 0.9 1.5 1.8 2.9 1.3 5.1 2.6 10.1v4.3h0.3c0.4 1.5 0 7.6-0.3 8.7q-0.2 4.6-0.3 9.2h-0.3v2.3h-0.3v2.1h-0.3v1.7h-0.3v1.7q-1.4 5.5-2.9 11v4h-0.2q-0.2 1.8-0.3 3.5c-0.5 1.5-1 3.5-1.5 4.9v1.2h-0.3q-0.2 1.4-0.5 2.9h-0.3q-0.2 0.5-0.3 1.1h-0.3v0.6h-0.3c-0.4 0.5-0.6 0.7-0.9 1.4z"/><path fill-rule="evenodd" class="b" d="m181.3 170.9v4.6h-0.2v2.3h-0.3v2.3h-0.3v2.3c-0.7 2.5-0.7 6-1.5 8.4v1.7c-1.2 4-2 8.5-3.4 12.2q-0.2 0.8-0.3 1.7h-0.3v0.6h-0.3v0.8h-0.3v0.9h-0.3v0.9h-0.3q-0.1 1-0.3 2h-0.2v0.6h-0.3v0.8h-0.3q-0.3 0.9-0.6 1.8h-0.3v0.5h-0.3q-0.3 0.9-0.5 1.8-0.3 0.1-0.6 0.3-0.2 0.5-0.3 1.1-0.3 0.2-0.6 0.3-0.1 0.6-0.3 1.2-0.3 0.1-0.6 0.2v0.6q-0.3 0.2-0.5 0.3v0.6q-0.5 0.3-0.9 0.6v0.5q-0.6 0.5-1.2 0.9v0.6q-0.5 0.4-1.1 0.9-1 1.1-2 2.3h-0.6q-0.3 0.4-0.6 0.8h-0.6q-0.1 0.3-0.3 0.6h-0.5q-0.2 0.3-0.3 0.6-0.9 0.3-1.8 0.6v0.3h-0.5v0.2h-0.9v0.3h-0.9v0.3h-0.8v0.3h-0.9v0.3h-1.4v0.3q-1.2 0.1-2.4 0.3v0.3q-0.8 0.2-1.7 0.5v0.3h-0.6q-0.3 0.5-0.5 0.9h-0.6v0.3h-0.6v0.3h-0.3v0.2h-0.3v2.1c-0.5 0.6-0.3 2.6-0.3 3.7 0 3.3 0.5 6.3 0.6 9.3v12.9c0 2.2-0.3 4.7 0.3 6.4h0.3v1.2h0.3v0.8h0.3q0.3 0.9 0.6 1.8h0.2v0.5q0.3 0.2 0.6 0.3 0.2 0.6 0.3 1.2 0.3 0.1 0.6 0.3v0.6h0.3v0.5q0.3 0.2 0.5 0.3 0.2 0.6 0.3 1.2 0.3 0.1 0.6 0.3v0.5l0.6 0.6v0.6h0.3v0.6h0.3v0.5h0.3c0.5 1.4-0.2 3.3 0.2 4.9h0.3v3.5q-1 3.1-2 6.1-0.3 0.1-0.6 0.3v0.5h-0.3q-0.1 0.5-0.2 0.9-0.3 0.2-0.6 0.3v0.6q-0.7 0.6-1.5 1.1-0.4 0.6-0.8 1.2h-0.6q-0.3 0.4-0.6 0.8h-0.6q-0.2 0.5-0.5 0.9h-0.6q-0.2 0.3-0.3 0.6h-0.6q-0.1 0.3-0.3 0.6h-0.5v0.3h-0.6v0.3q-0.9 0.2-1.8 0.5v0.3h-0.8v0.3h-0.9v0.3h-0.8v0.3q-1.2 0.1-2.4 0.3v0.3c-1.7 0.5-2.9-0.4-3.4 1.4h-9.6v-0.9c-3.6-2-8.2-7.3-6.3-13.8v-1.8h0.3v-0.8h0.3q0.3-0.9 0.5-1.8h0.3q0.2-0.5 0.3-1.1 0.3-0.2 0.6-0.3 0.1-0.6 0.3-1.2l0.6-0.5v-0.6q0.3-0.1 0.5-0.3v-0.6l0.6-0.6v-0.5h0.3v-0.6h0.3l0.3-1.2h0.3q0.1-1.4 0.3-2.8c0.7-2.5 1.1-5.6 1.1-8.7v-44.2c-0.7-2.7-0.6-6.6-0.6-10.1v-33.5c0-3.3 0.2-7-0.5-9.5v-2h-0.3v-1.2h-0.3v-0.8h-0.3v-1.2h-0.3v-0.6h-0.3v-0.8h-0.3q-0.1-0.3-0.3-0.6h-0.5q-0.5-0.6-0.9-1.2h-0.6q-0.1-0.2-0.3-0.5-0.4-0.2-0.8-0.3v-0.3h-0.6q-0.1-0.3-0.3-0.6h-0.6q-0.3-0.4-0.5-0.9h-0.6q-0.2-0.3-0.3-0.5h-0.6l-0.6-0.6v-0.6h-0.3c-0.2-0.4-0.2-0.6-0.5-0.9q-0.2-2.3-0.3-4.6h0.3v-1.7h0.3v-1.2h0.2v-1.1h0.3v-0.9h0.3q0.3-1.3 0.6-2.6h0.3q0.1-0.4 0.3-0.9 0.3-0.1 0.6-0.2v-0.6q0.4-0.3 0.8-0.6v-0.6q1.2-1 2.3-2 0.3-0.4 0.6-0.9h0.6q0.1-0.3 0.3-0.5h0.6q0.2-0.5 0.5-0.9h0.6q0.1-0.3 0.3-0.6h0.6v-0.3h0.5q0.2-0.3 0.3-0.6 0.6-0.1 1.2-0.2 0.1-0.3 0.3-0.6 0.8-0.3 1.7-0.6 0.2-0.3 0.3-0.6 0.6-0.1 1.2-0.3 0.1-0.3 0.2-0.5 0.6-0.2 1.2-0.3 0.1-0.3 0.3-0.6 0.6-0.1 1.1-0.3 0.2-0.3 0.3-0.6h0.6q0.1-0.3 0.3-0.5h0.6q0.1-0.3 0.3-0.6h0.5v-0.3h0.6q0.2-0.3 0.3-0.6 0.6-0.1 1.2-0.3 0.1-0.3 0.3-0.6 0.5-0.1 1.1-0.2 0.1-0.3 0.3-0.6 0.6-0.2 1.1-0.3 0.2-0.3 0.3-0.6 0.9-0.3 1.8-0.6 0.1-0.2 0.3-0.5h0.5q0.2-0.3 0.3-0.6 0.4-0.2 0.9-0.3 0.4-0.6 0.9-1.2h0.5q0.2-0.3 0.3-0.5h0.3q0.1-0.3 0.3-0.6h0.6q0.5-0.7 1.1-1.5h0.6q0.9-1 1.7-2h0.6q0.7-0.8 1.5-1.7h0.5q0.2-0.3 0.3-0.6h0.3q0.3-0.4 0.6-0.9h0.6q0.4-0.5 0.8-1.1h0.6q0.2-0.3 0.3-0.6h0.6q0.1-0.3 0.3-0.6c1.7-1.1 4.1-1.9 6.3-2.6 1.6-0.4 4.4 0.6 5.2 0.9h0.9v0.3h0.6v0.3h0.5q0.2 0.3 0.3 0.6h0.6q0.1 0.3 0.3 0.5h0.6q0.4 0.6 0.8 1.2 0.3 0.1 0.6 0.3v0.6q0.3 0.1 0.6 0.2v0.6q0.3 0.2 0.6 0.3v0.6q0.3 0.1 0.5 0.3v0.5q0.3 0.2 0.6 0.3 0.2 0.6 0.3 1.2 0.3 0.1 0.6 0.3 0.3 0.8 0.6 1.7h0.2q0.3 0.9 0.6 1.7h0.3q0.4 2.2 0.9 4.4h0.3v0.8h0.3v0.9h0.2q0.2 1 0.3 2h0.3q0.2 1.6 0.3 3.2c0.6 2.2 0.8 5.1 1.5 7.2v4.4c1.1 4.1 0.8 9.7 0.8 15 0 2.4 0.3 5.6-0.3 7.5zm-21-11.6v-1.7h-0.3v-1.4h-0.3v-1.2h-0.3v-1.2h-0.3v-1.1h-0.3v-0.9h-0.3q-0.3-0.8-0.5-1.7h-0.3q-0.2-0.6-0.3-1.2l-0.6-0.3v-0.5h-0.3c-0.3-0.5-0.4-0.5-0.6-1.2q-0.4-0.1-0.8-0.3v-0.3h-0.6q-0.2-0.3-0.3-0.5-0.7-0.2-1.4-0.3v-0.3h-0.6v-0.3h-2.6c-0.6 0.6-1.3 0.7-2 1.1q-0.6 0.8-1.2 1.5-0.4 0.1-0.9 0.3-0.1 0.6-0.3 1.1-0.2 0.2-0.5 0.3-0.2 0.9-0.3 1.8h-0.3v0.8h-0.3v1.2h-0.3v3.7c0 3-0.4 7.1 0.3 9.6q0.1 7 0.3 14.1c0 8.2 0.5 15.2 0.9 22.8q0.5 0.1 1.1 0.3 0.2 0.3 0.3 0.6c0.8 0.5 2.3 0.8 3.5 0.8v-0.2q0.7-0.2 1.4-0.3v-0.3q0.4-0.2 0.9-0.3 0.1-0.3 0.3-0.6h0.5q0.3-0.4 0.6-0.9 1-0.8 2-1.7v-0.6q0.3-0.1 0.6-0.3 0.2-0.4 0.3-0.8h0.3v-0.6q0.3-0.1 0.6-0.3 0.1-0.6 0.3-1.1h0.3v-0.6h0.2q1.2-4.1 2.3-8.1v-4.3c1.9-6.7 1.6-18.3-0.2-24.6z"/><path fill-rule="evenodd" class="b" d="m436 160.8c0.2 0.9 0.7 5 0.3 6.3h-0.3q-0.2 0.9-0.3 1.8-0.6 0.4-1.2 0.8v0.3q-1.7 0.6-3.4 1.2-2-0.2-4.1-0.3v0.3q-0.8 0.3-1.7 0.5v0.3h-0.6q-0.1 0.3-0.3 0.6h-0.5q-0.3 0.4-0.6 0.9h-0.6q-0.1 0.3-0.3 0.6-0.7 0.5-1.4 1.1v0.6q-0.5 0.3-0.9 0.6v0.5q-0.4 0.3-0.9 0.6v0.6q-0.4 0.3-0.8 0.6v0.5q-0.5 0.3-0.9 0.6v0.6q-0.4 0.3-0.9 0.6v0.6q-0.4 0.3-0.8 0.5v0.6q-0.3 0.2-0.6 0.3-0.2 0.4-0.3 0.9h-0.3v0.5q-0.3 0.2-0.6 0.3-0.1 0.6-0.3 1.2-0.2 0.1-0.5 0.3-0.2 0.5-0.3 1.1-0.3 0.2-0.6 0.3-0.2 0.6-0.3 1.2-0.3 0.1-0.6 0.3-0.3 0.8-0.5 1.7-0.3 0.1-0.6 0.3v0.6h-0.3v0.5l-0.6 0.6v0.6q-0.3 0.1-0.6 0.3-0.2 0.9-0.5 1.7c-3.1 4.9-5.5 10.6-7.6 16.5v1.1h-0.2v1.2h-0.3v1.4h-0.3v4.4h-0.3v2.3h-0.3v32.9h0.3v3.7c0 2.9 0 5.7 0.6 7.8v2.3h0.3v2.1h0.2v1.7h0.3v1.7h0.3v1.2h0.3q0.2 0.6 0.3 1.1h0.3v0.6q0.3 0.2 0.6 0.3 0.1 0.6 0.3 1.2 0.3 0.1 0.5 0.2v0.6h0.3v0.6q0.3 0.1 0.6 0.3 0.2 0.6 0.3 1.1 0.3 0.2 0.6 0.3 0.3 0.9 0.6 1.8h0.2v0.5h0.3v0.6h0.3q0.3 0.9 0.6 1.7h0.3v0.9h0.3c0.4 1.1 1.6 6.1 1.1 7.8h-0.3q-0.1 1.3-0.3 2.6c-0.5 1.3-1.9 2.5-2.8 3.5q-0.6 0.7-1.2 1.4-1.3 0.4-2.6 0.9v0.3h-0.9v0.3h-0.8v0.2h-1.5v0.3q-4.3 0.2-8.6 0.3-4.4-0.7-8.7-1.4v-0.3q-1.7-0.3-3.5-0.6v-0.3h-0.8v-0.3h-0.9v-0.3h-0.8v-0.2h-0.9v-0.3h-0.6v-0.3h-0.9v-0.3h-0.5v-0.3h-0.9v-0.3h-0.6v-0.3h-0.8v-0.3q-0.9-0.3-1.8-0.5v-0.3h-0.6v-0.3h-0.5l-0.6-0.6h-0.6q-0.1-0.3-0.3-0.6-0.6-0.1-1.1-0.3-0.2-0.2-0.3-0.5h-0.6q-0.1-0.3-0.3-0.6-0.6-0.4-1.1-0.9v-0.6q-0.3-0.1-0.6-0.2v-0.6q-0.3-0.2-0.6-0.3v-0.6q-0.3-0.1-0.6-0.3v-0.6q-0.4-0.3-0.8-0.5v-0.6q-0.9-0.7-1.8-1.4v-0.3h-0.8q-0.8 1-1.5 2-0.3 1.4-0.6 2.9h-0.2q-0.3 0.8-0.6 1.7h-0.3v0.6h-0.3q-0.3 0.8-0.6 1.7-0.4 0.3-0.8 0.6-0.2 0.4-0.3 0.9h-0.6q-0.3 0.4-0.6 0.8-0.6 0.2-1.1 0.3v0.3h-0.6v0.3q-0.7 0.1-1.5 0.3v0.3h-1.4v0.3h-2v0.2h-3.5v0.3c-1.3 0.4-4.6-0.3-5.5-0.5h-2.3v-0.3h-2.3v-0.3h-1.4v-0.3h-1.5v-0.3h-1.1v-0.3h-1.2v-0.3h-0.9v-0.3h-0.8v-0.3h-0.9v-0.2h-0.9v-0.3h-0.5v-0.3h-0.6q-0.2-0.3-0.3-0.6h-0.6q-0.6-0.7-1.1-1.4l-0.6-0.3v-0.6q-0.4-0.3-0.9-0.6-0.1-0.6-0.3-1.1-0.3-0.2-0.5-0.3v-0.6h-0.3v-0.6h-0.3v-0.9h-0.3v-0.8h-0.3v-0.9h-0.3v-1.1h-0.3v-4.1h-0.3v-4h0.3v-0.9h0.3v-0.9h0.3q0.3-0.8 0.6-1.7h0.3q0.1-0.6 0.3-1.1 0.2-0.2 0.5-0.3 0.2-0.6 0.3-1.2 0.3-0.1 0.6-0.3 0.1-0.6 0.3-1.1 0.3-0.2 0.6-0.3v-0.9q0.3-0.1 0.5-0.3v-9.8h-0.2v-1.1h-0.3v-0.9h-0.3v-1.2h-0.3v-0.5h-0.3v-0.9h-0.3q-0.8-1-1.7-2h-0.6q-0.3-0.5-0.6-0.9h-0.5q-0.2-0.3-0.3-0.6-0.6-0.1-1.2-0.3v-0.2h-0.9v-0.3h-1.1v-0.3h-1.2v-0.3h-1.4v-0.3h-1.5v-0.3h-1.7v-0.3h-2.9v-0.3h-4.9v0.3h-2.3v0.3q-0.9 0.3-1.7 0.6v0.3h-0.6q-0.1 0.3-0.3 0.5c-0.7 0.5-1.3 0.5-1.7 1.2h-0.3q-0.2 1-0.3 2h-0.3v1.2h-0.3v1.4c-0.7 2.6-0.1 5.8 0.6 7.8v0.9h0.3v0.9h0.3v0.8h0.3v0.9h0.2q0.2 0.6 0.3 1.1h0.3v0.6h0.3v0.9h0.3v0.6h0.3v0.5h0.3v0.6h0.3q0.3 0.9 0.5 1.7h0.3v0.9h0.3v0.6h0.3q0.4 1.9 0.9 3.7h0.3q0.1 2.8 0.3 5.5h0.3c0.2 1.1-0.1 2.9-0.3 3.5v1.1h-0.3v0.9h-0.3c-0.3 0.8-0.2 1.7-0.6 2.3h-0.3q-0.1 0.5-0.3 0.9-0.3 0.1-0.6 0.3v0.6q-0.7 0.5-1.4 1.1-0.3 0.4-0.6 0.9h-0.6q-0.2 0.4-0.5 0.8-2.2 0.8-4.3 1.5h-1.5c-3.8 1.1-9.6 1-13.3 0h-2.3c-2.4-0.7-5.1-1.3-6.9-2.6v-0.3q-0.6-0.4-1.2-0.9v-0.5q-0.5-0.5-1.1-0.9v-0.6q-0.3-0.1-0.6-0.3v-0.6h-0.3q-0.1-0.5-0.3-1.1h-0.3v-1.2h-0.3v-0.8h-0.2v-1.5h-0.3v-1.7h-0.3c-0.6-1.9 0.2-4.6 0.6-5.8v-1.1h0.2v-0.9h0.3q0.2-0.9 0.3-1.7h0.3q0.2-0.6 0.3-1.2h0.3v-0.6q0.3-0.1 0.6-0.3v-0.5q0.3-0.2 0.5-0.3v-0.6q0.5-0.3 0.9-0.6v-0.6q0.3-0.1 0.6-0.2v-0.6q0.3-0.2 0.6-0.3v-0.6q0.2-0.1 0.5-0.3 0.2-0.6 0.3-1.1h0.3v-0.6h0.3q0.3-0.9 0.6-1.7h0.3v-0.9h0.3v-0.6h0.2q0.2-1 0.3-2h0.3v-0.9h0.3v-1.1h0.3v-1.2h0.3q0.1-1.6 0.3-3.2c0.9-2.8 1.6-6.3 2.6-9.2q0.1-1.6 0.3-3.2c1.4-4.7 1.5-10.8 2.9-15.6v-4q0.7-2.6 1.4-5.2v-4c0.4-1.5 0.7-3.7 1.1-5.2v-4.1q0.8-2.6 1.5-5.2v-2h0.3v-2.3h0.3v-2.3h0.3v-2.3h0.2v-4.3q0.8-2.6 1.5-5.3v-4.3h0.3v-2.3h0.3v-2.3h0.3v-4.3c0.6-2.2 0.8-5.1 1.4-7.2v-2.4h0.3v-4.6h0.3v-2.3h0.3v-2.3h0.3v-4.6h0.2v-13.9h0.3v-14.4h-0.3v-4.6c-0.5-1.9-0.2-4.9-0.2-7.2v-2.9h0.2v-1.8h0.3v-1.4h0.3v-1.2h0.3v-1.1h0.3v-1.2h0.3q0.3-1.3 0.6-2.6h0.3q0.2-0.8 0.5-1.7h0.3v-0.6h0.3v-0.6h0.3q0.1-0.5 0.3-1.1 0.3-0.2 0.6-0.3v-0.6h0.2q0.2-0.4 0.3-0.8 0.3-0.2 0.6-0.3v-0.6q0.4-0.3 0.9-0.6v-0.3h0.6q0.3-0.4 0.5-0.8 0.8-0.2 1.5-0.3v-0.3q2.3 0.1 4.6 0.3v0.3h0.6v0.2q0.6 0.2 1.1 0.3 0.2 0.3 0.3 0.6h0.6q0.3 0.4 0.6 0.9h0.6q0.7 0.8 1.4 1.7 0.3 0.2 0.6 0.3v0.6q0.3 0.1 0.6 0.3 0.1 0.4 0.2 0.8h0.3v0.6q0.3 0.1 0.6 0.3 0.1 0.6 0.3 1.2 0.3 0.1 0.6 0.2 0.3 0.9 0.5 1.8h0.3v0.5h0.3q0.3 0.9 0.6 1.8h0.3v0.8h0.3v0.6h0.3q0.1 0.9 0.3 1.8h0.3v0.5h0.2q2.5 7.4 4.9 14.8v1.1h0.3v1.2h0.3v1.1h0.3v1.2c0.6 1.7 1.1 4 1.7 5.8q0.2 1.1 0.3 2.3h0.3v0.8h0.3v0.9h0.3v0.9h0.3v0.8h0.3q0.1 0.9 0.3 1.8h0.2v1.1h0.3q0.3 2.5 0.6 4.9c1.1 3.1 2.2 6.6 3.2 9.8q0.4 3.2 0.9 6.4c0.9 3 1.6 6.5 2.5 9.5q0.3 2.8 0.6 5.5c0.6 1.9 1.1 4.2 1.8 6.1q0.1 1.1 0.2 2.3h0.3v0.8h0.3v0.9h0.3v0.9h0.3q0.1 0.6 0.3 1.1h0.3v0.9h0.3v0.6h0.3v0.8h0.2v1.8c1.2 3.6 1.3 8.4 2.4 12.1v2c2 6.9 2.2 15.4 4.3 22.2v1.8c0.7 2.2 1 5.2 1.7 7.5v1.7c0.7 2.3 1.1 5.3 1.8 7.5v1.8q1.4 5.4 2.8 10.9 0.2 2.1 0.3 4.1c0.7 2.2 1.3 5 2.1 7.2q0.1 1 0.2 2h0.3q0.2 0.6 0.3 1.2h0.3v0.5q0.3 0.2 0.6 0.3 0.1 0.6 0.3 1.2h0.3q0.1 0.4 0.3 0.8 0.2 0.2 0.5 0.3v0.6q0.3 0.2 0.6 0.3v0.6q0.4 0.3 0.9 0.6v0.5q0.3 0.2 0.5 0.3v0.6q0.5 0.3 0.9 0.6v0.6q0.6 0.4 1.2 0.8v0.6h0.3q0.7 0.9 1.4 1.7h1.4q0.3-0.4 0.6-0.8h0.3v-0.9h0.3v-0.6h0.3q0.4-1.3 0.9-2.6 0.3-0.1 0.5-0.3v-0.5q1.5-1.3 2.9-2.6v-0.6q0.6-0.4 1.2-0.9 1.3-2.4 2.6-4.9 0.7-4 1.4-8.1v-4.6c0.5-1.8 0.3-4.7 0.3-6.9q0.1-3.8 0.3-7.5h-0.3v-0.3c-0.7-4.3 0.8-9.8-0.3-13.6v-4.6c-0.6-2-0.2-5.3-0.3-7.8q-0.3-4.2-0.6-8.4h-0.2q-0.2-1.7-0.3-3.4h-0.3v-1.2h-0.3v-1.2h-0.3v-1.1h-0.3v-1.2h-0.3q-0.1-1.1-0.3-2.3h-0.3v-0.8h-0.2v-0.9h-0.3v-0.9h-0.3q-0.2-0.8-0.3-1.7h-0.3v-0.6h-0.3q-0.3-1.3-0.6-2.6h-0.2v-1.1h-0.3v-0.9h-0.3v-0.9h-0.3v-0.8h-0.3v-0.6h-0.3q-0.1-0.9-0.3-1.7h-0.3v-0.6h-0.2q-0.2-0.9-0.3-1.8h-0.3v-0.5h-0.3v-0.9h-0.3v-0.9h-0.3v-0.5h-0.3c-0.7-2.3-1.5-4.7-2.3-7h-0.3v-0.5h-0.3q-0.1-0.6-0.3-1.2h-0.3q-0.1-0.7-0.2-1.4h-0.3c-0.7-1.5-0.5-3.2-1.2-4.7h-0.3q-0.1-0.7-0.3-1.4h-0.3q-0.1-0.6-0.2-1.2h-0.3v-0.5h-0.3v-0.9h-0.3q-0.1-0.6-0.3-1.2h-0.3v-0.8h-0.3v-0.6h-0.3l-0.2-1.2h-0.3v-0.8h-0.3v-0.6h-0.3q-0.2-0.7-0.3-1.4h-0.3q-0.1-0.9-0.3-1.8h-0.3v-0.5h-0.3v-0.9h-0.2v-0.6h-0.3v-0.9h-0.3q-0.3-0.8-0.6-1.7h-0.3v-0.6h-0.3v-0.5h-0.3q-0.2-0.9-0.5-1.8-0.3-0.1-0.6-0.3-0.2-0.5-0.3-1.1-0.3-0.2-0.6-0.3-0.1-0.6-0.3-1.2-0.3-0.1-0.6-0.3-0.1-0.5-0.2-1.1-0.3-0.1-0.6-0.3-0.3-0.9-0.6-1.7-0.3-0.2-0.6-0.3v-0.6h-0.3q-0.1-0.4-0.3-0.9-0.2-0.1-0.5-0.2v-0.6q-0.6-0.5-1.2-0.9v-0.6q-0.7-0.5-1.4-1.1v-0.6q-0.7-0.6-1.5-1.2v-0.5q-0.8-0.8-1.7-1.5v-0.6q-0.4-0.2-0.9-0.5v-0.6h-0.3q-0.2-0.9-0.5-1.7h-0.3v-1.2h-0.3v-0.9h-0.3v-1.1h-0.3v-1.2h-0.3v-1.7h-0.3c-0.4-1.6 0.2-6.7 0.6-7.8h0.3q0.1-0.9 0.3-1.7 0.3-0.2 0.6-0.3v-0.6q0.5-0.4 1.1-0.9 0.2-0.3 0.3-0.5h0.6q0.3-0.5 0.6-0.9 0.5-0.1 1.1-0.3v-0.3h0.9c2.5-0.9 5.2-0.4 7.5 0.3q3 0.4 6.1 0.9v0.3q1.1 0.1 2.3 0.2v0.3h1.1v0.3h0.9v0.3h0.8v0.3q1.5 0.3 2.9 0.6v0.3h0.6v0.3h0.9v0.2q0.6 0.2 1.1 0.3v0.3h0.9v0.3q0.6 0.2 1.2 0.3v0.3h0.8v0.3q0.9 0.3 1.8 0.6v0.2h0.5v0.3q0.9 0.3 1.8 0.6 0.1 0.3 0.3 0.6h0.5v0.3h0.6l0.6 0.6h0.6q0.1 0.2 0.3 0.5 0.5 0.2 1.1 0.3 0.1 0.3 0.3 0.6h0.6q0.1 0.3 0.3 0.6h0.5q0.3 0.4 0.6 0.8h0.6q0.3 0.5 0.6 0.9h0.5q0.3 0.4 0.6 0.9h0.6q0.3 0.4 0.6 0.8h0.6q0.4 0.6 0.8 1.2h0.6q1 1.1 2 2.3 0.5 0.3 0.9 0.6v0.6q0.3 0.1 0.6 0.2v0.6h0.2v0.6q0.3 0.1 0.6 0.3 0.3 0.9 0.6 1.7c1.3 2.5 2.3 5.3 2.3 9.3v3.1h-0.3v1.2h-0.3q-0.3 1.3-0.5 2.6h-0.3v0.6h-0.3v0.8h-0.3v0.9h-0.3v0.9h-0.3q-0.1 1.1-0.3 2.3h-0.3q0.2 3.6 0.3 7.2h0.3v1.7h0.3v1.2h0.3v1.1h0.3v0.9h0.3v1.2h0.3v0.8h0.3v0.9h0.2v0.9h0.3v0.5h0.3v0.9h0.3v0.9h0.3v0.8h0.3v0.9h0.3v0.9h0.3q0.2 1.5 0.5 3.1h0.3v0.6q0.3 0.2 0.6 0.3 0.1 0.6 0.3 1.2 0.3 0.1 0.6 0.2v0.6q0.5 0.5 1.1 0.9v0.6h0.3q0.2 0.2 0.3 0.5h2.6v-0.2h2q0.6-0.9 1.2-1.8 0.3-0.1 0.6-0.3v-0.5q0.2-0.2 0.5-0.3 0.2-0.5 0.3-0.9h0.3q0.1-0.6 0.3-1.2 0.3-0.1 0.6-0.2 0.1-0.6 0.3-1.2h0.2q0.3-0.9 0.6-1.7h0.3v-0.9h0.3v-0.6h0.3v-1.1h0.3v-1.8h0.3v-1.7h0.3c0.3-1.3-0.1-4.9-0.3-5.8q-0.2-1.3-0.3-2.6c-1.2-3.3-3.9-8.9-2.3-13.8v-1.2h0.3v-0.8h0.2v-0.9h0.3v-0.9q1.1-0.8 2.1-1.7c1.4-0.1 3.7-0.8 5.4-0.3v0.3h1.5v0.3q0.8 0.1 1.7 0.3v0.3q0.9 0.2 1.7 0.5v0.3q0.6 0.2 1.2 0.3 0.2 0.3 0.3 0.6 0.6 0.1 1.1 0.3 0.2 0.3 0.3 0.6 0.6 0.1 1.2 0.2v0.3q0.4 0.2 0.9 0.3 0.1 0.3 0.3 0.6 0.5 0.1 1.1 0.3 0.2 0.3 0.3 0.6h0.6v0.3q0.4 0.1 0.8 0.2 0.2 0.3 0.3 0.6h0.6q0.3 0.5 0.6 0.9h0.6q0.1 0.3 0.2 0.6h0.6q0.2 0.3 0.3 0.5 0.4 0.2 0.9 0.3 0.4 0.6 0.8 1.2h0.6q0.6 0.7 1.2 1.4h0.5l1.2 1.5q1.4 1.3 2.9 2.6v0.5q0.4 0.3 0.9 0.6v0.6l0.5 0.6v0.6h0.3v0.5h0.3v0.6h0.3v0.9h0.3v1.1h0.3v1.8h0.3v2.3m-124.5 49.3c-0.5-1.9-0.8-4.4-1.4-6.3v-1.7h-0.3q-0.1-1.3-0.3-2.6h-0.3q-0.1-1.2-0.3-2.4h-0.2q-0.2-1-0.3-2h-0.3v-0.8h-0.3v-1.2h-0.3v-0.9h-0.3v-0.8h-0.3q-0.3-2.2-0.6-4.4h-0.2v-0.8h-0.3v-0.9h-0.3v-0.9h-0.3v-0.8h-0.3v-0.6h-0.3v-0.9h-0.3q-0.4-2-0.8-4h-0.3q-0.2-0.6-0.3-1.2-0.3-0.1-0.6-0.3v-0.5q-0.3-0.2-0.6-0.3-0.8-1-1.7-2h-1.7q-0.2 0.5-0.3 1.1-0.3 0.2-0.6 0.3v0.6h-0.3q-0.1 0.6-0.3 1.1h-0.3q-0.1 0.9-0.3 1.8h-0.2v1.7h-0.3v2.3h-0.3v4.6h-0.3v2.3h-0.3v2.4h-0.3q-0.4 5.7-0.9 11.5c0 2.9-1 9.8 0.6 11.6 2.7 3.3 8.2 3.4 13.9 2.8 1-1.6 3-2.1 3.2-4.6 0.3-0.4 0.5-2.3 0.2-3.2z"/><path fill-rule="evenodd" class="b" d="m196.9 434.2c1.2-0.2 1.2-0.2 2.3 0 0.3 1 1 1.8 1.5 2.6q0.3 0.8 0.6 1.7h0.3q0.2 0.9 0.5 1.7 0.3 0.2 0.6 0.3v0.6h0.3v0.6q0.3 0.1 0.6 0.3 0.1 0.6 0.3 1.1 0.2 0.2 0.5 0.3v0.6q0.6 0.4 1.2 0.9v0.5q1.1 1 2.3 2.1 0.6 0.7 1.1 1.4h0.6q0.2 0.3 0.3 0.6 0.5 0.1 0.9 0.3v0.2q0.6 0.2 1.1 0.3 0.2 0.3 0.3 0.6h0.6v0.3q0.7 0.2 1.4 0.3v0.3q2.5 0.1 5 0.3v-0.3h0.8v-0.3h0.6v-0.3h0.9c1.5-0.7 2.6-2 3.7-3.2q0.6-0.4 1.2-0.8v-0.6q0.5-0.4 1.1-0.9v-0.6q0.3-0.1 0.6-0.2v-0.6q0.3-0.2 0.6-0.3 0.3-0.9 0.6-1.7h0.2v-0.6h0.3v-0.6h0.3q0.3-0.9 0.6-1.7h0.3q0.1-0.9 0.3-1.8h0.3v-0.8h0.3v-0.9h0.2v-0.9h0.3q0.2-1.1 0.3-2.3h0.3v-1.1h0.3v-1.2h0.3v-1.1h0.3v-1.2c0.7-2.2 1.3-4.9 2-7.2v-1.7c0.6-1.9 0.9-4.5 1.4-6.4v-4h0.3v-1.8h0.3v-1.7h0.3v-6.1h0.3q0.1-3.4 0.3-6.9v-12.4c0-10.9-0.8-19.7-4.1-27.1v-0.9h-0.3v-0.6h-0.2v-0.6h-0.3v-0.5l-0.6-0.6v-0.6q-0.3-0.1-0.6-0.3v-0.6q-0.7-0.5-1.4-1.1-0.3-0.4-0.6-0.9h-0.6q-0.3-0.4-0.6-0.8-0.5-0.2-1.1-0.3-0.2-0.3-0.3-0.6h-2.6v0.3h-2c-0.6 0.8-1.6 1-2.3 1.7q-2.2 2.3-4.4 4.6v0.6q-0.3 0.2-0.5 0.3v0.6q-0.3 0.1-0.6 0.3-0.2 0.5-0.3 1.1h-0.3v0.6h-0.3q-0.3 0.9-0.6 1.7h-0.2v0.9h-0.3v0.6h-0.3q-0.2 0.7-0.3 1.4h-0.3q-0.1 0.9-0.3 1.7h-0.3v0.6h-0.3q-1.4 5.1-2.9 10.1v1.5h-0.2v1.7h-0.3v1.4h-0.3v1.2h-0.3v1.2c-1.2 3.5-1.9 9-6.4 9.2-0.5-0.6-0.6-0.2-1.1-0.6q-0.3-0.4-0.6-0.9-0.9-0.7-1.7-1.4v-0.6l-0.6-0.6v-0.5h-0.3v-0.6h-0.3v-0.6h-0.3v-0.8h-0.3v-0.9h-0.2v-0.9h-0.3v-1.1h-0.3v-1.2h-0.3v-1.4h-0.3v-2h-0.3v-2.4h-0.3v-2.3c-1-3.6-1-14.3 0-17.9v-2.3h0.3v-2.3h0.3v-2.3c0.7-2.4 0.7-5.5 1.4-7.8q0.2-1.4 0.3-2.9h0.3q0.2-1.6 0.3-3.2h0.3v-1.1h0.3v-1.2h0.3v-1.1h0.3v-0.9h0.3v-0.9h0.2v-0.8c0.6-1.3 1.2-2.8 2.6-3.2v-0.3q2.1-0.3 4.1-0.6v-0.2h1.4v-0.3h1.5v-0.3h0.8q0.3-0.5 0.6-0.9h0.6q1.4-1.6 2.9-3.2 0.6-0.4 1.1-0.8 0.2-0.3 0.3-0.6h0.6q0.9-1 1.7-2h0.6q0.3-0.5 0.6-0.9 0.6-0.1 1.1-0.3 0.2-0.3 0.3-0.6 0.8-0.1 1.5-0.3v-0.2h0.5v-0.3h0.9v-0.3c2.4-0.9 8.3 0.7 9.8 1.7q0.2 0.3 0.3 0.6 0.6 0.1 1.2 0.3 0.3 0.4 0.5 0.8h0.6q0.7 0.9 1.5 1.8h0.6q0.1 0.3 0.2 0.6 1.1 0.8 2.1 1.7v0.6q0.7 0.5 1.4 1.1v0.6q0.6 0.4 1.2 0.9 0.1 0.4 0.2 0.8 0.3 0.2 0.6 0.3v0.6q0.3 0.1 0.6 0.3 0.1 0.4 0.3 0.9h0.3q0.1 0.5 0.3 1.1 0.3 0.1 0.5 0.3 0.2 0.6 0.3 1.1 0.3 0.2 0.6 0.3v0.6l0.6 0.6v0.6h0.3v0.5h0.3v0.6h0.3v0.6h0.2q0.3 0.9 0.6 1.7h0.3v0.9h0.3v0.6h0.3q0.1 0.5 0.3 1.1h0.3v0.9h0.2q0.2 0.6 0.3 1.2h0.3v0.8h0.3v0.6h0.3q0.2 0.6 0.3 1.1h0.3v0.9h0.3v0.6h0.3v0.9h0.2v0.5h0.3q2.5 8.5 4.9 17.1 0.2 1.6 0.3 3.1c1.1 3.4 1.3 7.6 2.3 11q0.2 2 0.3 4.1c1.4 4.5 0.9 9.9 2.1 14.1v24.5c0 2.4 0.2 5.4-0.3 7.3v4.6h-0.3v2.3h-0.3v2.3h-0.3v2h-0.3q-0.3 3.5-0.6 6.9c-0.5 2-0.8 4.5-1.4 6.4v1.7c-0.9 3.1-1.6 6.6-2.6 9.6q-0.6 3.3-1.2 6.6h-0.3q-0.1 1-0.2 2h-0.3v0.9h-0.3v0.8h-0.3v0.9h-0.3v0.6h-0.3q-0.1 0.9-0.3 1.7h-0.3v0.6h-0.3q-0.1 0.9-0.2 1.7h-0.3v0.6h-0.3q-0.2 0.9-0.3 1.7h-0.3q-0.1 0.8-0.3 1.5h-0.3v0.6h-0.3v0.8h-0.3q-0.2 0.9-0.5 1.8h-0.3v0.5h-0.3v0.9h-0.3v0.6h-0.3v0.6q-0.3 0.1-0.6 0.3-0.1 0.5-0.2 1.1-0.3 0.2-0.6 0.3-0.2 0.6-0.3 1.2h-0.3q-0.1 0.4-0.3 0.8-0.3 0.2-0.6 0.3v0.6q-0.2 0.1-0.5 0.3v0.5q-0.3 0.2-0.6 0.3-0.2 0.5-0.3 0.9-0.6 0.4-1.2 0.9v0.5q-1.1 1.1-2.3 2.1-1 1.1-2 2.3h-0.6q-0.4 0.6-0.8 1.1h-0.6q-0.2 0.3-0.3 0.6h-0.6q-0.1 0.3-0.3 0.6-0.4 0.1-0.8 0.3v0.3h-0.6v0.3q-0.6 0.1-1.2 0.2v0.3q-1.3 0.3-2.6 0.6v0.3q-2.9-0.1-5.7-0.3-2.5-1.1-4.9-2.3-0.3-0.4-0.6-0.9h-0.6q-0.7-0.8-1.5-1.7h-0.5v-0.3q-0.5-0.3-0.9-0.6v-0.5q-0.7-0.6-1.4-1.2v-0.6q-0.5-0.3-0.9-0.6v-0.5q-0.4-0.3-0.9-0.6v-0.6q-0.5-0.4-1.1-0.9v-0.5q-0.6-0.5-1.2-0.9v-0.6q-0.7-0.5-1.4-1.1v-0.6q-1.3-1.1-2.6-2.3-0.7-0.9-1.5-1.7-0.3-0.2-0.5-0.3v-0.6q-0.6-0.4-1.2-0.9v-0.6q-0.3-0.1-0.6-0.2-0.1-0.6-0.3-1.2-0.3-0.1-0.5-0.3-0.2-0.6-0.3-1.1h-0.3v-0.6h-0.3q-0.1-0.7-0.3-1.5h-0.3q-0.1-1-0.3-2h-0.3q-0.1-1.1-0.2-2.3h-0.3q-0.3-2.3-0.6-4.6h-0.3v-1.7c-0.4-1.4-0.7-3.3-1.2-4.7v-1.7h-0.2v-2h-0.3q-0.2-2.3-0.3-4.6c-0.3-1.1-1-4.8-0.6-6.4h0.3v-2.3h0.3v-2h0.3v-1.5q0.5-1.7 1.1-3.4z"/><path fill-rule="evenodd" class="b" d="m135.1 463.6q-0.4 0.2-0.8 0.3v0.3h-0.6v0.3c-1 0.3-2.1-0.7-2.6-0.9h-0.9v-0.3h-0.5v-0.3h-0.6q-0.2-0.2-0.3-0.5-0.6-0.2-1.2-0.3-0.1-0.3-0.3-0.6-0.5-0.1-1.1-0.3-0.2-0.3-0.3-0.6h-0.6v-0.3q-0.4-0.1-0.8-0.2-0.2-0.3-0.3-0.6h-0.6q-0.3-0.5-0.6-0.9h-0.6q-0.1-0.3-0.2-0.6-0.5-0.1-0.9-0.3v-0.2h-0.6q-0.1-0.3-0.3-0.6-0.5-0.2-1.1-0.3-0.2-0.3-0.3-0.6h-0.6v-0.3q-0.4-0.1-0.9-0.3-0.1-0.3-0.3-0.5h-0.5q-0.3-0.5-0.6-0.9h-0.6q-0.7-0.9-1.4-1.7h-0.6q-0.1-0.3-0.3-0.6-0.6-0.4-1.1-0.9v-0.6q-0.6-0.4-1.2-0.8v-0.6q-0.3-0.1-0.6-0.3-0.1-0.6-0.3-1.1-0.3-0.2-0.5-0.3v-0.6h-0.3q-0.2-0.6-0.3-1.2h-0.3q-0.2-1-0.3-2c-0.4-1.2-1.5-5.1-0.9-7.2h0.3v-1.4h0.3v-1.2h0.3v-0.6q0.3-0.1 0.6-0.3v-0.5q0.6-0.5 1.1-0.9 0.2-0.3 0.3-0.6h0.6q0.4-0.6 0.9-1.1h0.5q2.3-2.5 4.7-5v-0.5q0.2-0.2 0.5-0.3 0.3-0.9 0.6-1.7 0.3-0.2 0.6-0.3 0.4-1.3 0.9-2.6h0.2v-0.6h0.3q0.2-0.6 0.3-1.2h0.3v-0.8h0.3v-0.6h0.3q0.1-0.6 0.3-1.2h0.3q0.1-0.5 0.3-1.1h0.2v-0.6h0.3v-0.6h0.3v-0.6h0.3v-0.5h0.3v-0.6h0.3v-0.6h0.3q0.1-0.6 0.3-1.1h0.2q0.2-0.6 0.3-1.2h0.3v-0.6h0.3v-0.5h0.3v-0.6h0.3v-0.6h0.3v-0.6h0.3q0.3-0.9 0.5-1.7h0.3q0.3-0.9 0.6-1.7h0.3v-0.9h0.3v-0.6h0.3q0.1-0.6 0.3-1.1h0.3v-0.9h0.2v-0.6h0.3q0.2-0.6 0.3-1.1h0.3v-0.6h0.3v-0.6h0.3v-0.6h0.3v-0.5h0.3v-0.6h0.3v-0.6h0.2v-0.6h0.3v-0.9h0.3v-0.5h0.3q0.2-0.6 0.3-1.2h0.3v-0.8h0.3q0.3-0.9 0.5-1.8h0.3v-0.6h0.3v-0.5h0.3v-0.6h0.3v-0.6h0.3q0.4-1.3 0.9-2.6h0.2v-0.6h0.3q0.2-0.5 0.3-1.1h0.3v-0.9h0.3v-0.6h0.3v-0.8h0.3v-0.6h0.3q0.1-0.9 0.3-1.7h0.2v-0.9h0.3v-0.9h0.3v-7.5c0-3.6-0.8-5.8-1.7-8.3q-0.3-1.5-0.6-2.9h-0.3q-0.1-0.7-0.3-1.5h-0.3q-0.1-0.6-0.2-1.1h-0.3v-0.6h-0.3v-0.9h-0.3q-0.1-0.6-0.3-1.1h-0.3v-0.9h-0.3q-0.1-0.6-0.3-1.2h-0.3v-0.5h-0.2v-0.9h-0.3q-0.2-0.6-0.3-1.2h-0.3v-0.8h-0.3q-0.1-0.6-0.3-1.2h-0.3v-0.5h-0.3q-0.4-1.4-0.8-2.6-0.3-0.2-0.6-0.3-0.2-0.6-0.3-1.2h-0.3c-0.1-0.3-0.2-0.6-0.3-0.9q-0.3-0.1-0.5-0.3v-0.5q-0.5-0.3-0.9-0.6v-0.3h-0.6q-0.6-0.7-1.1-1.4h-0.6q-0.2-0.3-0.3-0.6-0.6-0.2-1.2-0.3v-0.3q-1.4-0.3-2.9-0.6v-0.3h-0.5q-1-0.8-2-1.7v-0.6q-0.3-0.1-0.6-0.3v-0.5h-0.3q-0.2-0.6-0.3-1.2h-0.3c-0.5-1-1.4-6.5-0.9-8.3h0.3v-1.2h0.3v-0.9h0.3v-0.8h0.3q0.1-0.8 0.3-1.5 0.3-0.1 0.6-0.3 0.5-0.7 1.1-1.4h0.6q0.1-0.3 0.3-0.6 0.6-0.1 1.1-0.3v-0.3q0.9-0.1 1.8-0.3v-0.2h6.9c4.9 0 9.1 0.6 12.1 2.6q0.2 0.2 0.3 0.5h0.6q0.3 0.5 0.6 0.9h0.5l0.6 0.6v0.5q0.5 0.3 0.9 0.6 0.1 0.6 0.3 1.2h0.3v0.6h0.3q0.2 0.8 0.5 1.7h0.3q0.2 1.4 0.3 2.9h0.3v5.2h-0.3q-0.1 1.7-0.3 3.4c-0.6 2.2-0.6 4.9-0.6 7.8v3.2h0.3q0.3 1.9 0.6 3.8h0.3v0.8h0.3v0.9h0.3v0.9h0.3v0.8h0.3v0.9h0.2v0.9h0.3v0.8h0.3q0.2 1 0.3 2h0.3v1.2h0.3v0.9h0.3v0.8h0.3v0.9h0.3v0.9h0.2v0.8h0.3v0.6h0.3q0.2 0.9 0.3 1.7h0.3v0.6h0.3v0.9h0.3v0.8h0.3v0.6h0.2v0.6h0.3q0.2 0.4 0.3 0.9 0.3 0.1 0.6 0.3v0.5h0.3q0.7 0.9 1.4 1.8h0.9q0.4-0.8 0.9-1.5 0.3-0.1 0.5-0.3 0.3-0.8 0.6-1.7h0.3v-0.6h0.3q0.1-4 0.3-8.1c0-4.6 0.2-9.3-0.9-13v-2h-0.3v-1.4h-0.3v-1.2h-0.2v-1.1c-1.6-4.4-4.6-10.2-2.9-15.9q0.1-1.4 0.3-2.9h0.2q0.2-0.6 0.3-1.1h0.3v-0.6h0.3v-0.6l0.6-0.6v-0.6q0.4-0.2 0.9-0.5v-0.6q0.4-0.2 0.8-0.3 0.3-0.4 0.6-0.9h0.6v-0.2q0.5-0.2 1.1-0.3v-0.3q0.9-0.2 1.8-0.3v-0.3h2v-0.3c1.3-0.4 6.3 0 7.2 0.3q2.3 0.3 4.6 0.6v0.3h0.9v0.3h0.9v0.2h0.8v0.3h0.9v0.3h0.6v0.3h0.5q0.3 0.4 0.6 0.9h0.6q0.9 1 1.7 2 0.6 0.4 1.2 0.9v0.5q0.3 0.2 0.6 0.3 0.1 0.6 0.2 1.2h0.3q0.2 0.6 0.3 1.1h0.3c0.9 2.1 1.4 8.6 0.6 11.3q-0.1 1.4-0.3 2.9-2.2 4.5-4.3 8.9-0.7 3.8-1.5 7.5-0.6 9.8-1.1 19.7v8c-0.7 2.5-0.6 5.8-0.6 9v14.7 26.6c0 3.8-0.6 9.5 0.3 12.7v4.6h0.3v4.6h0.3v2.3h0.2q0.5 4.1 0.9 8.1h0.3v1.2h0.3v1.1h0.3v0.9h0.3v0.9h0.3v0.8h0.2q0.2 0.6 0.3 1.2h0.3v0.6h0.3v0.8h0.3v0.9h0.3v0.9h0.3v1.1h0.3v1.2h0.3v1.4h0.2v3.8 4h-0.2v0.9h-0.3v0.8h-0.3v0.6h-0.3v0.6h-0.3v0.6q-0.3 0.1-0.6 0.3v0.5q-0.4 0.2-0.8 0.3-0.2 0.3-0.3 0.6h-0.9c-0.3 0.3-4.3 0.5-5.2 0.3q-3.5-1-6.9-2v-0.3q-0.6-0.2-1.2-0.3v-0.3h-0.6q-0.1-0.3-0.2-0.6h-0.6v-0.3h-0.6l-0.6-0.5h-0.6q-0.1-0.3-0.2-0.6-0.9-0.3-1.8-0.6-0.1-0.3-0.3-0.6-0.5-0.1-1.1-0.3-0.2-0.3-0.3-0.5h-0.6v-0.3h-0.6q-0.4-0.6-0.8-1.2h-0.6q-0.6-0.7-1.2-1.4-0.4-0.2-0.8-0.3l-0.6-0.6v-0.6q-0.7-0.5-1.4-1.1v-0.6q-0.3-0.1-0.6-0.3v-0.6q-0.3-0.1-0.6-0.3v-0.5q-0.3-0.2-0.6-0.3-0.1-0.6-0.3-1.2h-0.3q-0.1-0.6-0.2-1.1h-0.3q-0.3-1.3-0.6-2.6h-0.3v-1.2h-0.3c-0.3-1.1 0-7.6 0.3-8.4h0.3q0.1-0.5 0.3-1.1 0.3-0.2 0.6-0.3 0.1-0.6 0.2-1.2 0.3-0.1 0.6-0.2 0.2-0.6 0.3-1.2 0.3-0.1 0.6-0.3 0.1-0.6 0.3-1.1h0.3v-0.6h0.3q0.2-0.9 0.5-1.8h0.3v-0.8h0.3v-0.6h0.3v-1.2h0.3q0.1-3.7 0.3-7.5v-0.2h0.3v-9.9h-0.3q-0.2-2.1-0.3-4.3c-1.6-0.9-2-2.7-4.3-2.9-0.5 0.7-0.4 0.2-0.9 0.6q-1.6 1.7-3.2 3.5v0.5l-0.6 0.6v0.6h-0.3v0.6h-0.2v0.5h-0.3v0.6h-0.3v0.6h-0.3v0.6h-0.3v0.6h-0.3v0.5h-0.3v0.6h-0.3v0.6h-0.3q-0.1 0.6-0.2 1.1h-0.3v0.6h-0.3v0.9h-0.3v0.6h-0.3q-0.1 0.5-0.3 1.1h-0.3v0.9h-0.3q-0.1 0.6-0.2 1.1h-0.3v0.9h-0.3v0.6h-0.3q-0.2 0.6-0.3 1.1h-0.3v0.9h-0.3q-0.1 0.6-0.3 1.2h-0.3v0.8h-0.2v0.6h-0.3q-0.2 0.6-0.3 1.2h-0.3v0.8h-0.3q-0.3 0.9-0.6 1.8h-0.3v0.5h-0.3v0.6h-0.2v0.6h-0.3v0.6h-0.3v0.5h-0.3v0.6h-0.3v0.6h-0.3v0.9h-0.3q-0.1 0.5-0.3 1.1h-0.3q-0.1 0.6-0.2 1.2h-0.3q-0.2 0.6-0.3 1.1c-0.5 0.9-1.2 1.6-1.5 2.6z"/><path fill-rule="evenodd" class="b" d="m350.8 476h-0.3v1.2h-0.3v0.6h-0.3v0.5q-0.2 0.2-0.5 0.3-0.2 0.6-0.3 1.2-0.3 0.1-0.6 0.3c-3 4.5-7.5 6.7-13 8.6h-1.1v0.3h-1.5v0.3h-2.6c-1.8 0-3.5-0.1-4.6-0.9q-0.2-0.2-0.3-0.5h-0.6l-0.6-0.6v-0.6q-0.2-0.1-0.5-0.3v-0.5q-0.3-0.2-0.6-0.3v-0.6h-0.3q-0.1-0.6-0.3-1.2h-0.3q-0.1-1.1-0.3-2.3h-0.3v-2.3h-0.2c-0.7-2.5 0.6-4.9 1.1-6.3v-0.9h0.3v-0.6h0.3v-0.6q0.3-0.1 0.6-0.3v-0.5q0.3-0.2 0.5-0.3v-0.6q0.5-0.3 0.9-0.6v-0.6q0.5-0.2 0.9-0.5v-0.6q0.3-0.1 0.6-0.3v-0.6q0.2-0.1 0.5-0.3v-0.8h0.3v-0.6h0.3v-1.2h0.3v-1.1h0.3c0.3-1.2-0.2-3-0.3-3.8v-1.7q-0.9-2.6-1.7-5.2-0.3-0.1-0.6-0.3-0.2-0.6-0.3-1.1-0.4-0.3-0.9-0.6c-1-1.1-0.3-1.7-2.6-1.7v-0.3h-2v-0.3c-1.3-0.4-4.3 0.6-5.2 0.9h-1.4v0.2q-2.3 0.3-4.6 0.6v0.3q-1.2 0.1-2.4 0.3v0.3q-1.2 0.3-2.5 0.5v0.3q-0.9 0.3-1.8 0.6v0.3h-0.6q-0.1 0.3-0.2 0.6h-0.6q-0.5 0.6-0.9 1.1-0.3 0.2-0.6 0.3v0.6q-0.4 0.3-0.8 0.6v0.6q-0.3 0.1-0.6 0.3v0.5h-0.3v0.6q-0.3 0.1-0.6 0.3v1.1h-0.3v1.8c-1.1 3.8-0.5 7.1 0.9 10.1v0.8q0.4 0.3 0.9 0.6v0.6q0.7 0.6 1.4 1.2v0.5q0.7 0.6 1.5 1.2c1.3 1.9 1.1 5.1 1.1 8.4v2.6h-0.3v1.7h-0.3v0.9h-0.3v0.8h-0.2v0.6h-0.3v0.6q-0.3 0.1-0.6 0.3-0.2 0.5-0.3 1.1-0.4 0.3-0.9 0.6v0.6l-0.5 0.6h-0.6q-0.3 0.4-0.6 0.8-0.6 0.2-1.1 0.3-0.2 0.3-0.3 0.6h-0.6v0.3q-0.6 0.1-1.2 0.3v0.3q-0.8 0.1-1.7 0.2v0.3h-0.9v0.3h-0.8v0.3h-0.9v0.3q-2.2 0.3-4.3 0.6c-4.2 1.3-10.3 1.9-14.8 0.6h-1.4q-1.6-0.6-3.2-1.2-0.1-0.3-0.3-0.6h-0.5q-0.3-0.4-0.6-0.8h-0.6q-0.1-0.3-0.3-0.6-0.7-0.6-1.4-1.2v-0.6q-0.3-0.1-0.6-0.2-0.2-0.6-0.3-1.2h-0.3q-0.1-0.6-0.3-1.2h-0.3v-0.8h-0.2v-0.9h-0.3v-0.9h-0.3v-1.1h-0.3v-1.2h-0.3v-1.4h-0.3v-3.5h0.3v-1.4h0.3q0.1-1.2 0.3-2.3h0.3q0.1-0.6 0.3-1.2 0.2-0.1 0.5-0.3v-0.5q0.3-0.2 0.6-0.3 0.7-0.9 1.4-1.8 0.5-0.2 0.9-0.5v-0.6q0.4-0.3 0.9-0.6 1.3-2.6 2.6-5.2 0.1-1.1 0.3-2.3c1.2-3.6 1.5-8.2 2.6-11.8q0.1-1.8 0.3-3.5c0.4-1.7 0.6-4.1 1.1-5.8v-1.7c0.7-2.4 1.3-5.1 2-7.5v-1.7c0.7-2.3 1.1-5.3 1.8-7.6q0.4-3.7 0.8-7.5h0.3v-1.7h0.3v-1.7h0.3v-1.5h0.3v-1.1h0.3v-1.2h0.3v-1.1h0.2v-1.2h0.3v-1.4h0.3v-1.8c0.4-1.3 0.8-3.2 1.2-4.6q0.3-2.9 0.6-5.7h0.3v-1.8h0.2v-1.7h0.3v-1.5c1.4-4.3 2.2-9.7 3.5-14.1q0.4-3.8 0.9-7.5c1-3.4 1.8-7.3 2.8-10.7v-1.4c0.6-2 0.9-4.5 1.5-6.4v-1.4c0.7-2.2 1.3-4.9 2-7q0.1-1.1 0.3-2.3h0.3v-0.8h0.3v-0.9h0.3q0.2-1.4 0.5-2.9h0.3v-1.2h0.3v-1.1h0.3v-1.2h0.3v-1.1h0.3q0.1-1.2 0.3-2.3h0.3v-1.2h0.3v-0.8h0.2v-0.9h0.3v-0.9h0.3q0.2-0.8 0.3-1.7h0.3v-0.6h0.3q0.1-0.8 0.3-1.7h0.3v-0.6h0.2q0.2-0.9 0.3-1.7h0.3q0.3-0.9 0.6-1.8h0.3v-0.5h0.3v-0.6h0.3q0.2-0.9 0.5-1.7 0.3-0.2 0.6-0.3v-0.6q0.5-0.3 0.9-0.6v-0.6q1.1-1 2.3-2 0.3-0.4 0.6-0.9h0.5v-0.2c0.6-0.4 0.7 0 1.2-0.6 1.4 0 3-0.2 4 0.3v0.3h0.6q1 0.8 2.1 1.7v0.6q0.4 0.3 0.8 0.5v0.6q0.3 0.2 0.6 0.3v0.6q0.3 0.1 0.6 0.3v0.6h0.3q0.1 0.5 0.2 1.1h0.3v0.9h0.3v0.8h0.3v0.6h0.3v0.9h0.3v0.9h0.3v0.8h0.3q0.1 1 0.2 2h0.3q0.2 1.6 0.3 3.2h0.3c0.4 1.4 0 5.4-0.3 6.4-0.5 1.8 0.3 6.3 0.6 7.5v2.3h0.3q0.1 4.6 0.3 9.2h0.3v2.3c1 3.5 0.7 8.1 1.7 11.6v2.3h0.3v2.3h0.3q0.1 2.1 0.3 4.3h0.3v1.5h0.2v1.1h0.3v1.2h0.3v1.1h0.3v1.5h0.3q0.1 1.7 0.3 3.4h0.3v2.1h0.3v2h0.2v1.7h0.4v1.7h0.2v1.5h0.3v1.1h0.3q0.2 1.2 0.3 2.4h0.3q0.3 2.7 0.6 5.4h0.2v1.2h0.3v0.9h0.3q0.2 1 0.3 2h0.3q0.1 1.1 0.3 2.3h0.3v1.7c0.7 2.3 1 5.3 1.7 7.5q0.6 3.9 1.2 7.8c1.1 3.4 1.8 7.3 2.9 10.7q0.5 3.9 1.1 7.8c0.7 2.3 1.5 4.8 2 7.2q1.3 3.8 2.6 7.5 0.3 0.2 0.6 0.3v0.6h0.3q0.1 0.4 0.3 0.9 0.3 0.1 0.6 0.2v0.6q2.6 2.5 5.2 4.9v0.6q0.3 0.2 0.5 0.3v0.6h0.3q0.2 1.3 0.3 2.6c0.3 0.9 0.7 7.3 0.3 8.6zm-31.8-71v-1.7h-0.2q-0.2-1.9-0.3-3.8c-1.2-3.9-1.1-8.9-2.3-12.7q-0.2-1.1-0.3-2.3h-0.3q-0.2-0.8-0.3-1.7h-0.3q-0.1-0.6-0.3-1.2h-0.3v-0.8l-0.8-0.6c-0.3-0.3-0.3-1.3-0.6-1.5h-1.7c-0.4 0.4 0 0.2-0.6 0.3q-0.3 0.6-0.6 1.2-0.3 0.1-0.6 0.3-0.3 0.8-0.6 1.7h-0.2q-0.2 0.9-0.3 1.7h-0.3v0.9h-0.3v0.9h-0.3v0.8h-0.3v1.2h-0.3v1.1h-0.3v1.2h-0.3v1.4h-0.2v1.8c-0.8 2.3-1.4 5.1-2.1 7.5q-0.1 1.6-0.2 3.2c-0.5 1.3-0.8 3.4-1.2 4.9v2c-0.1 0.4-0.6 1.7-0.3 2.6q0.4 1.3 0.9 2.6 0.3 0.1 0.6 0.3 0.1 0.7 0.2 1.4c2.9 0.1 5.8 0.5 8.4-0.3h1.4v-0.3q1.1-0.1 2.1-0.3c0.8-0.3 1.5-0.9 2.6-1.1 0.1-1.2 0.6-1.5 0.8-2.3v-1.5h0.3c0.6-1.9-0.2-5.6-0.6-6.9z"/><path fill-rule="evenodd" class="b" d="m412.3 435.6h0.3q-0.2 3.2-0.3 6.4h-0.3v0.8h-0.3v1.2h-0.3v0.6h-0.3v0.8h-0.2v0.6h-0.3v0.6q-0.3 0.1-0.6 0.3v0.6q-0.3 0.1-0.6 0.3v0.5q-0.3 0.2-0.6 0.3v0.6q-0.7 0.6-1.4 1.1-0.2 0.3-0.3 0.6h-0.6q-0.1 0.3-0.3 0.6-0.4 0.1-0.8 0.3v0.3q-0.6 0.1-1.2 0.3v0.3q-0.4 0.1-0.9 0.2-0.1 0.3-0.2 0.6-0.6 0.2-1.2 0.3v0.3q-0.4 0.1-0.9 0.3-0.1 0.3-0.3 0.6-0.5 0.1-1.1 0.3v0.2q-0.4 0.2-0.9 0.3l-0.3 0.6h-0.5v0.3q-0.5 0.1-0.9 0.3-0.2 0.3-0.3 0.6h-0.6q-0.3 0.4-0.5 0.8h-0.6q-0.2 0.3-0.3 0.6-0.4 0.1-0.9 0.3v0.3h-0.6q-0.1 0.3-0.2 0.6h-0.6q-0.2 0.2-0.3 0.5h-0.6q-0.3 0.5-0.6 0.9h-0.5l-0.3 0.6q-0.5 0.1-0.9 0.3v0.3q-0.6 0.1-1.2 0.2v0.3q-0.4 0.2-0.8 0.3-0.2 0.3-0.3 0.6-0.6 0.1-1.2 0.3v0.3q-0.4 0.1-0.8 0.3-0.2 0.3-0.3 0.5h-0.6v0.3q-0.4 0.2-0.9 0.3-0.1 0.3-0.3 0.6h-0.5q-0.3 0.4-0.6 0.9h-0.6q-0.1 0.3-0.3 0.5-0.4 0.2-0.8 0.3v0.3q-0.6 0.2-1.2 0.3-0.1 0.3-0.3 0.6h-0.6q-0.1 0.3-0.2 0.6-0.6 0.1-1.2 0.2v0.3q-0.4 0.2-0.9 0.3-0.1 0.3-0.3 0.6-0.5 0.1-1.1 0.3-0.2 0.3-0.3 0.6h-0.6q-0.1 0.3-0.3 0.6h-0.5l-0.6 0.5h-0.6v0.3h-0.6v0.3c-1.1 0.6-5.2 2.2-7.5 1.4v-0.2q-1.3-0.5-2.6-0.9-0.1-0.3-0.3-0.6h-0.5q-0.3-0.4-0.6-0.8h-0.6q-0.7-0.9-1.4-1.8-0.3-0.1-0.6-0.3v-0.6q-0.3-0.1-0.6-0.2-0.1-0.6-0.3-1.2-0.3-0.1-0.6-0.3-0.2-0.9-0.5-1.7h-0.3v-0.6h-0.3v-0.6h-0.3q-0.3-0.8-0.6-1.7h-0.3v-0.9h-0.3v-0.5h-0.3q-1.4-5.4-2.8-10.7-0.5-3.9-0.9-7.8h-0.3v-4.6h-0.3v-4.7h-0.3v-4h0.3v-4.6h0.3v-4.6h0.3v-2.4h0.3v-2h0.3v-1.7h0.3v-1.7q2.1-7 4.3-13.9h0.3q0.3-0.9 0.6-1.7h0.2v-0.6h0.3v-0.6h0.3q0.3-0.8 0.6-1.7 0.3-0.2 0.6-0.3v-0.6h0.3v-0.5l0.5-0.6v-0.6q0.3-0.2 0.6-0.3 0.3-0.9 0.6-1.7h0.3q0.3-0.9 0.6-1.8h0.3v-5.5h-0.3v-0.8h-0.3v-0.9h-0.3v-0.9h-0.3v-0.5h-0.3v-0.9h-0.3v-0.6h-0.3v-0.8h-0.3v-0.6h-0.2q-0.2-0.6-0.3-1.2h-0.3v-0.8h-0.3v-0.9h-0.3v-0.9h-0.3v-1.1h-0.3v-1.2h-0.3v-1.1h-0.3q-0.2-2.3-0.5-4.7c-1.3-4.1-1.2-9.4-1.2-15v-11.8h0.3v-1.4h0.3v-1.2h0.3v-1.1h0.3v-1.2h0.3v-1.5h0.2v-1.7h0.3v-1.1h0.3v-1.2h0.3v-0.9h0.3q0.1-1 0.3-2h0.3q0.3-0.8 0.6-1.7h0.2v-0.6h0.3q0.3-0.9 0.6-1.7 0.3-0.2 0.6-0.3v-0.6q0.4-0.3 0.9-0.6v-0.5q0.8-0.8 1.7-1.5v-0.6q0.3-0.1 0.6-0.2 0.4-0.6 0.8-1.2h0.6q0.3-0.4 0.6-0.9c0.4-0.1 0.8-0.2 1.1-0.3q0.2-0.3 0.3-0.5h0.6v-0.3q0.6-0.2 1.2-0.3v-0.3q0.8-0.1 1.7-0.3v-0.3h1.2v-0.3h1.7v-0.3h7.5v-0.2q4.6 0.1 9.2 0.2v-0.2h4.6v-0.3h2.9v-0.3c1.3-0.4 6.3 0 7.2 0.3q2.2 0.1 4.4 0.3v0.2q1 0.2 2 0.3v0.3h0.6v0.3q0.4 0.2 0.8 0.3 0.3 0.9 0.6 1.7h0.3q0.1 0.9 0.3 1.8h0.3c0.4 1.1-0.1 3.5-0.3 4.3v1.2h-0.3q-0.1 0.8-0.3 1.7h-0.3q-0.1 0.5-0.3 1.1h-0.2v0.6q-0.3 0.2-0.6 0.3v0.6q-0.3 0.1-0.6 0.3v0.5q-0.4 0.3-0.9 0.6v0.6q-0.2 0.2-0.5 0.3v0.6q-0.3 0.1-0.6 0.3-0.9 2.6-1.8 5.2v4.3h-0.2q-0.2 2.3-0.3 4.6c-0.5 1.8-0.3 4.9-0.3 7.2v13.9q0.1 3.6 0.3 7.2h0.3v13.3c0 3.1-0.5 7.2 0.2 9.8v4.6h0.3v3.8c0 2.8 0 5.6 0.6 7.8q0.2 5.6 0.3 11.2h0.3v1.5h0.3v1.1h0.3v1.2h0.3v0.8q0.3 0.2 0.5 0.3 0.2 0.6 0.3 1.2 0.3 0.1 0.6 0.3v0.5q0.4 0.3 0.9 0.6v0.6q0.3 0.1 0.5 0.3v0.6h0.3q0.2 0.5 0.3 1.1h0.3q0.1 1.3 0.3 2.6zm-27.1-31.5h-0.3c-0.3-0.7-0.2-1.6-0.6-2.3q-0.3-0.1-0.6-0.3c-0.4-0.5-0.9-1.2-1.1-2-0.7 0.1-0.8 0.3-1.2 0.3-0.1-0.1-0.2-0.5-0.9-0.3v0.3q-0.8 0.3-1.7 0.6-0.1 0.4-0.3 0.9-0.7 0.5-1.4 1.1v0.6q-0.3 0.1-0.6 0.3v0.6c-4.1 6.2-4 14.5-4 24.8 0 6-0.2 11.8 2.3 15.3q0.5 0.4 1.1 0.9 0.5 0.7 0.9 1.4h2.6v-0.3q1.3-0.3 2.6-0.6c0.2-0.6 0.2-0.7 0.6-1.1h0.2v-0.6q0.3-0.1 0.6-0.3v-0.6h0.3q0.3-0.8 0.6-1.7h0.3v-0.9h0.3v-1.7h0.3c0 0 0-34.4 0-34.4zm0-42.4v-15h-0.3v-4.6h-0.3v-4.6c-0.5-1.6-2-2.8-2.3-4.4h-1.8c-0.4 0.7-0.6 0.5-1.1 0.9q-0.7 0.9-1.5 1.7-0.2 0.2-0.5 0.3v0.6q-0.3 0.1-0.6 0.3-0.2 0.6-0.3 1.1h-0.3v0.6h-0.3q-0.8 3.9-1.7 7.8v4.6h-0.3v4.4h-0.3c-0.5 1.8 0.2 5.6 0.6 6.9v2.3h0.3v2.3h0.3q0.1 1.7 0.3 3.5 0.5 1.7 1.1 3.4 0.6 0.5 1.2 0.9v0.6l0.5 0.5h0.6q0.2 0.3 0.3 0.6 0.4 0.2 0.9 0.3v0.3q0.4 0.2 0.8 0.3c0.7-0.9 0.4-0.1 1.2-0.6q0.1-0.3 0.3-0.6h0.6q0.7-0.8 1.4-1.7h0.3q0.1-0.7 0.3-1.4h0.3c0.8-2.2 0.3-8.3 0.3-11.3z"/></svg>