<svg version="1.2" xmlns="http://www.w3.org/2000/svg" viewBox="0 0 500 381" width="500" height="381"><style>.a{fill:#2c5d6c}</style><path fill-rule="evenodd" class="a" d="m459.9 67.7q-2.8-13.6-2.2-27.5 0.7-8.9 2.9-16.5c1.5-5.1 3.4-9.4 5.8-13.1q3.4-5.6 7.6-8.3c2.5-1.5 4.3-2.4 5.2-2.3 0.7 0 1.3 0.4 1.8 0.9q0.8 0.8 2 2.6c5.9 9.7 8.4 21.1 7.5 34.2-0.4 6.2-1.6 12.2-3.7 18.1-2 5.9-4.8 11.4-8.3 16.5-3.5 5.2-7.6 9.6-12.2 13.3l2.9 21.9c2.5-0.1 4.1-0.2 5.1-0.1 4.2 0.3 7.8 1.4 11.2 3.4 3.3 2 6.1 4.6 8.4 7.7q3.3 4.7 4.9 10.6c1 4 1.4 8 1.1 12.2q-0.7 9.7-6.3 17.4c-3.8 5.1-9.2 8.6-16.2 10.7 0.2 2.7 0.7 6.6 1.5 11.7q1.2 7.7 1.7 12.2c0.3 3 0.3 5.9 0.1 8.7q-0.4 6.5-3.9 11.3-3.5 4.9-9.2 7.3-5.5 2.5-12 2-9.1-0.6-15.5-6.1c-4.3-3.7-6.4-8.5-6.2-14.3 0.3-2.6 1.1-4.9 2.4-7.2q1.9-3.3 4.9-5.2c1.9-1.4 4.3-2 6.9-2q3.2 0.2 5.9 2.2c1.8 1.3 3.3 3 4.3 5.1 0.9 2.1 1.4 4.4 1.2 6.8q-0.3 4.9-3.9 8c-2.3 2.1-5.2 3.1-8.6 2.9l-1.2-0.1c1.9 3.4 5.3 5.4 10.2 5.7 2.5 0.2 5-0.2 7.6-1 2.7-0.9 4.9-2.1 6.9-3.7 1.9-1.7 3.3-3.4 3.9-5.4 1.1-2.2 1.7-5.3 2-9.2q0.3-3.9-0.2-7.9-0.5-4-1.6-10.5c-0.8-4.3-1.3-7.7-1.6-9.9-3.4 0.6-6.8 0.8-10.4 0.5q-9-0.6-16.7-4.8c-5.2-2.9-9.6-6.6-13.4-11.3-3.7-4.6-6.5-9.8-8.4-15.5-1.8-5.7-2.6-11.6-2.2-17.7 0.6-5.6 2-10.9 4.4-15.8 2.3-5 5.2-9.6 8.6-13.9q5.2-6.4 10.6-11.6c3.7-3.4 8.4-7.8 14.4-13zm11.1 54.9l5.6 42.8c8.7-2.8 13.5-9.9 14.3-21.2-0.3-3.9-1.1-7.4-2.8-10.5q-2.4-4.8-6.8-7.7c-3-2-6.4-3.1-10.3-3.4zm-7.4-57.9c1.9-0.9 4.1-2.7 6.6-5.3 2.4-2.4 4.8-5.4 7.2-8.8q3.6-5.1 5.8-10.5c1.5-3.5 2.4-6.9 2.6-10.1 0.1-1.4 0.1-2.8-0.1-4-0.1-2-0.6-3.6-1.6-4.7-0.9-1.1-2.2-1.7-3.9-1.8q-4.9-0.4-9.3 5.5c-2.3 3.3-4.3 7.4-5.8 12-1.6 4.7-2.6 9.4-3.1 14.2-0.1 5.4 0.5 9.9 1.6 13.5zm3.4 58.2c-3.5 0.7-6.6 2.5-9.7 5.5-3 3.1-4.6 6.6-4.9 10.4-0.1 2.4 0.5 5.2 1.9 8.2 1.4 3.1 3.7 5.4 6.7 7 1 0.3 1.5 0.9 1.4 1.6 0 0.3-0.4 0.6-1.3 0.7-5-1.6-8.9-4.6-11.8-8.8-2.9-4.3-4.3-9-4-14.3q0.8-8.4 6.2-15.4 5.5-7 13.4-9.5l-2.4-19.7c-9 6.4-16.4 13.3-22.2 20.6q-8.8 10.9-10.1 24.3-0.2 6 1.7 11.8c1.3 3.9 3.4 7.4 6.2 10.8 5.8 6.6 13.7 10.4 23.5 11.4q5.1 0 10.9-1.1c0 0-5.5-43.5-5.5-43.5z"/><path fill-rule="evenodd" class="a" d="m240.7 225.2q-2.8-13.5-2.3-27.4 0.7-8.9 3-16.5c1.4-5.1 3.3-9.4 5.7-13.1q3.5-5.6 7.6-8.3c2.5-1.6 4.3-2.4 5.2-2.3 0.7 0 1.3 0.3 1.8 0.9q0.8 0.8 2 2.5c5.9 9.8 8.5 21.2 7.6 34.3-0.5 6.2-1.7 12.1-3.8 18.1-2 5.8-4.7 11.4-8.3 16.5-3.5 5.2-7.6 9.6-12.2 13.3l3 21.9c2.4-0.1 4.1-0.2 5-0.1 4.2 0.2 7.9 1.4 11.2 3.4 3.4 2 6.2 4.5 8.4 7.7q3.3 4.7 4.9 10.6c1 3.9 1.4 8 1.1 12.2q-0.6 9.7-6.3 17.4c-3.8 5-9.2 8.6-16.2 10.6 0.2 2.8 0.7 6.7 1.5 11.8q1.2 7.7 1.7 12.2c0.3 3 0.4 5.8 0.2 8.6q-0.5 6.5-4 11.4-3.5 4.9-9.1 7.3-5.6 2.4-12.1 2-9-0.6-15.5-6.1c-4.2-3.8-6.4-8.5-6.2-14.3 0.4-2.6 1.1-5 2.4-7.2q1.9-3.3 4.9-5.3c2-1.3 4.3-1.9 6.9-1.9q3.2 0.2 6 2.2c1.8 1.3 3.2 3 4.2 5.1 1 2.1 1.4 4.4 1.2 6.8q-0.3 4.9-3.8 8c-2.4 2.1-5.3 3.1-8.6 2.8h-1.3c1.9 3.4 5.3 5.3 10.2 5.7 2.5 0.2 5.1-0.2 7.7-1 2.6-0.9 4.9-2.1 6.8-3.8 1.9-1.6 3.3-3.4 3.9-5.3 1.1-2.2 1.8-5.3 2-9.2q0.3-3.9-0.2-8-0.5-3.9-1.6-10.4c-0.7-4.3-1.3-7.7-1.6-10-3.3 0.6-6.8 0.8-10.3 0.6q-9-0.6-16.8-4.9c-5.2-2.8-9.6-6.5-13.4-11.2-3.7-4.7-6.5-9.8-8.4-15.6-1.8-5.7-2.5-11.6-2.2-17.6 0.6-5.6 2.1-10.9 4.4-15.8 2.3-5 5.2-9.6 8.6-13.9q5.2-6.5 10.6-11.6c3.7-3.4 8.5-7.8 14.5-13.1zm11 55l5.7 42.8c8.7-2.8 13.4-10 14.2-21.3-0.2-3.8-1.1-7.3-2.8-10.4q-2.4-4.8-6.8-7.8c-2.9-1.9-6.3-3.1-10.3-3.3zm-7.4-57.9c1.9-1 4.2-2.7 6.6-5.3 2.4-2.5 4.9-5.4 7.2-8.8q3.6-5.1 5.9-10.5c1.5-3.6 2.3-7 2.5-10.2 0.1-1.3 0.1-2.7-0.1-3.9-0.1-2-0.6-3.6-1.5-4.7-1-1.1-2.3-1.7-3.9-1.8q-5-0.4-9.4 5.4c-2.3 3.4-4.2 7.5-5.8 12.1-1.6 4.7-2.6 9.4-3.1 14.1-0.1 5.5 0.5 10 1.6 13.6zm3.4 58.1c-3.4 0.7-6.6 2.6-9.6 5.6-3.1 3.1-4.7 6.5-4.9 10.4-0.2 2.4 0.4 5.2 1.8 8.2 1.4 3.1 3.7 5.4 6.7 7 1.1 0.3 1.5 0.9 1.5 1.6-0.1 0.3-0.5 0.5-1.4 0.7-4.9-1.6-8.9-4.6-11.8-8.8-2.9-4.3-4.2-9-4-14.3q0.9-8.5 6.2-15.4 5.5-7 13.5-9.5l-2.5-19.7c-9 6.4-16.3 13.2-22.2 20.5q-8.8 10.9-10 24.3-0.3 6.1 1.6 11.8c1.3 3.9 3.4 7.5 6.3 10.8 5.8 6.7 13.6 10.5 23.4 11.5q5.1 0 11-1.1c0 0-5.6-43.6-5.6-43.6z"/><path class="a" d="m15 26.6c5.3 37.8 6.1 76.4 0 116.3-6.3 3-8-1.1-10.5-4 1.9 11.2 3.3 23.1 22.1 14.8 2.2-1.1 7.8-2.1 12.7 0 8.3 8.6 24-3 28.7-8.5q7.1-8.2 9.6-21 2.4-12.7 2.3-26.4v-21.2c-0.6-17.9 0.4-36.5-3-45.3-3.4-8.8-11.1-12.7-17-15.5-5.9-2.7-17-3.2-21-1.9-14.9 5.1-25.9 0.7-38.9-1.4 2.3 1.6 14.1 1.8 15 14.1zm24.4 10.4c4.3-0.1 11.9 4.9 13.8 6.6 9.3 13.3 9.2 64.3 0.2 81.9-1.8 1.5-9.5 7.8-14 7.8 2.7-29.8 5.3-60.8 0-96.3z"/><path class="a" d="m122.4 13.8q-16.4-0.2-23.8 16.9c-4.9 11.3-8.5 29.4-8.4 54.1-0.1 24.8 3.5 42.8 8.4 54.2q7.4 17.1 23.8 16.8 16.4 0.3 23.8-16.8c4.9-11.4 9.1-29.4 9-54.2 0.1-24.7-4.1-42.8-9-54.1q-7.4-17.1-23.8-16.9zm12.6 102.4c0 9.3-7.4 11-12.6 12.6-5.7-1.2-12.3-5.6-12.6-12.6v-64c0-8.6 7.4-12.2 12.6-14.1 5.5 1.7 12.4 6.1 12.6 14.1z"/><path class="a" d="m178.3 125.7c0.1 9.7 2.5 16.1 7.1 20.2q7 6.2 18.5 6c8.5 0.3 27.4 2 32.3-2.5 4.9-4.5 8.5-16.1 8.6-28.2 5.4-60.5-4.7-75.9 16.7-97.4h-43.8c20.6 21.8 9.8 57.1 9.8 88.8-0.4 12.9-0.9 24.8-15.9 25.5-11.4 1.2-11.2-18.6-12.2-24.1-0.3-5.2-9.5-78.3 9.7-98.6h-49.2c25.8 26 19.8 1.8 18.4 110.3z"/><path class="a" d="m302.5 152.6c18.1 8.3 31.8 2.7 38.6-10.1 4.1-7.9 7.2-17.4 6.9-26.8q0.1-14.2-5.9-23.4-6-9.2-19.8-13.1v-0.8q13.1-2.5 18.9-11.4 5.7-8.9 5.6-21.7c0.1-9.7-3.3-15-7.9-21-5.6-5.8-10-12.8-36.8-8.9-7.9 1.8-10.8 3.3-24-1 19.2 11 19.1 131.5 0.6 133.8 3.2 0.1 4.2 14 23.8 4.4zm9.5-63.2h4q4-0.2 6.2 2.4c1.5 1.7 6.5 5 6.5 9.8v24c0 5-5.1 8.2-6.8 9.6q-2.4 2.1-7 1.9h-2.9c-3.2-15.9-3.9-31.8 0-47.7zm0-57.7h2.9q4.3-0.4 6.9 1.6c1.7 1.3 6.9 4.7 6.9 10.4v13.3c0.1 4.1-4.7 7.2-5.9 9.4q-1.6 3.2-6.4 3.2h-4.4c-3-12.6-3.6-25.3 0-37.9z"/><path class="a" d="m431.7 153.7v-55.3h-2.7c-4.4 22.5-3.4 16.4-11.2 34.7-7.4 5.2-16.4 5.4-20.9-4.1-2.2-16.6-10.3-100.5 13.3-113.6h-48.5c21.5 12.8 15.9 127.1 1.6 140.8 19.4-6.9 34.6-2.5 68.4-2.5z"/><path class="a" d="m106.2 176.6c-5.4-4.7-5.5-4.9-8.2-6.5q-3.6-3-9.7-3-9.6-0.9-17.8 10.8c-5.4 7.8-11 23.3-11.3 46.6v25c-0.2 17.3 4.7 31.5 9.1 42.5q6.6 16.5 22.5 17.1c25.8-3.7 31-30.4 29.2-41-3.1-1.7-6.2-1.7-8.2 0-3.5 13.1-6.4 18.9-18.4 19.6q-3.8 0.1-5.7-2.8c-1.3-2-1.9-5.1-3-10.3-8.9-37.2-4.4-63.6 0-76.6 0-1.4 1.4-2.8 2.1-4.1q1-2.1 3.6-2.3c2.1-0.3 3.9-0.1 5.6 2.1 3.1 1.6 3.3 8.6 1.3 10.7-4.8-0.6-8-14.8-6.6-1.3 2.2 12.5 7.5 16.6 12.7 14.9 10.4 0.9 17.5-25.8 2.8-41.4z"/><path class="a" d="m336.2 306.6c-11.3-4.7-20.1-65-12.5-65.3 8.7 0.5 18.7 1 28.8 11.2v-30.4c-9.5 5.6-18.3 5.9-29.1 7.3-6-14.3-6.7-33.2 0-43.1 2.6-1.2 8.7-1.9 13.6-2.4 5.8-0.4 18 6.2 20.9 13.5 0.1-2.6 0.3-4.2 0.4-6.2 0.2-14 4.5-16.5 9.1-22.9-24.2 8.1-52.1 3.9-77.6 5 12.8 26.2 22.3 61.1 4.4 133.3z"/><path class="a" d="m205.1 306.6v-55.3h-2.7c-4.4 22.5-3.4 16.4-11.3 34.7-7.3 5.1-16.3 5.4-20.9-4.1-2.1-16.7-10.2-100.6 13.3-113.7h-48.4c21.4 12.9 15.9 127.2 1.5 140.9 19.5-6.9 34.7-2.5 68.5-2.5z"/><path class="a" d="m395.2 306.6c-6.1-2.5-10.8-34.6-6.7-34.7 4.6 0.3 9.9 0.6 15.3 5.9v-16.1c-5 3-9.7 3.1-15.4 3.9-3.2-7.6-3.6-17.6 0-22.9 1.3-0.7 4.6-1 7.2-1.3 3-0.2 9.5 3.3 11.1 7.2 0-1.4 0.1-2.3 0.2-3.3 0.1-7.4 2.4-8.8 4.8-12.2-12.8 4.3-27.7 2.1-41.2 2.7 6.8 13.9 11.8 32.4 2.3 70.8z"/><path class="a" d="m420.9 306.8c-2.7-9.7-1.2-22.3-2.1-46.8 6.4 19.3 4.8 20.2 9.5 40.9h6.1l12.5-40.9c0.2 19.3 1.4 34.7-7.6 46.8h27.2c-7.1-14.8-15.2-57.6-3.5-72.4h-23.7c5.5 10.8-1.1 34-3.9 41.5-5.7-11.9-8-26.1-9.2-41.5h-13.5c5 31.7-9 60.1-15.2 72.4z"/></svg>