<svg version="1.2" xmlns="http://www.w3.org/2000/svg" viewBox="0 0 500 495" width="500" height="495"><defs><linearGradient id="P" gradientUnits="userSpaceOnUse"/><linearGradient id="g1" x2="1" href="#P" gradientTransform="matrix(0,490.135,-495.063,0,236.427,2.487)"><stop stop-color="#d73a27"/><stop offset=".5" stop-color="#f5e80d"/><stop offset="1" stop-color="#58bf4a"/></linearGradient></defs><style>.a{fill:url(#g1);stroke:#000;stroke-width:8.8}.b{fill:none;stroke:#000;stroke-width:8.8}</style><path class="a" d="m5.7 4.4v211c-0.5 6.6 4.4 51.2 18.9 67.7h-20.2v207.5h153.4l2.2-35.8h7.1l3 35.8h122.3c0 0 31.6-2.2 31.6-23.7h6.2v23.7h53.6v-32.5h5.7c7.5 24 20.9 33.4 54.3 32.5 27.1 0.8 49.4-7.8 51.8-58.3v-87.5c-0.2-16.6 0.1-34.6-5.3-37h5.3v-303.4h-74.9v101.9h-52.7v-101.9h-74.7v84.1l-2.1 0.4-23.1-84.5h-70.3l-23.1 89-1.6 0.5v-89.5h-116.1l-14.1 32.5h-3.2l-0.3-32.5zm92.7 0.8l-0.4 159.9-33.4-92.8zm134.5 115.7l15.7 73.4h-32.4zm-190 2.1l17.2 52.7-19.9-3.3v-43.5zm55.1 52.1v41.3c0.4 15.4-5.3 18.9-12.2 20.1-12.7-2.1-13.1-11.1-12.9-20.1v-39.3zm270.8 15.7h52v91.6c-27.4 12.4-29 26.8-32.6 41v133.4h-4.2l-0.1-173.3h-15.1zm-166.4 75.1h60.3l3.2 16.8h-48.5v157.8l-20.6-155.4c5.7-19.1 0-0.7 5.6-19.2zm-77.9 43.8l-14.6 127.6v-32.6c-3-10.5-7.5-17.9-13.4-21.5 5.4-2.9 9.8-8.3 13.1-19.1v-36.9c-0.2-7.5-0.8-11.4-1.8-14.1z"/><path  d="m287.8 92.9l9.9 33.8v-37.3z"/><path  d="m178.6 96.4l-10 30.3v-37.3z"/><path  d="m35.2 40.9v22.8l11.5-24.8z"/><path  d="m228.5 120.6l5.1-14.9 3.9 14.7"/><path fill-rule="evenodd" d="m434.5 315.7h13v140.9h-13z"/><path  d="m265.6 321.8v131.7c5.1-0.3 10.7 4.1 13.6-12.6v-110.4c-2-10.4-8.3-8.1-13.6-8.7z"/><path  d="m164 337l8.3 79h-17z"/><path  d="m51.9 321.8v43.4c5-0.1 10.7 1.3 13.5-4.2v-36.3c-2-3.5-8.2-2.7-13.5-2.9z"/><path  d="m51.9 395.9v95.2c5-0.2 7.2 0 13.5-3.2v-85.7c-2-7.5-8.2-5.8-13.5-6.3z"/><path fill-rule="evenodd" class="b" d="m9.1 175.7h88.9v-169.8"/><path  d="m212.9 440.5l8.9 48v-48.5z"/><path  d="m114.3 437.5l-8.9 54.2v-54.6z"/><path fill-rule="evenodd" class="b" d="m324 463.4v-137.5c-1.4-7.2-2.8-16.2-4.3-18.8h10.5v158.5"/></svg>