<svg version="1.2" xmlns="http://www.w3.org/2000/svg" viewBox="0 0 500 430" width="500" height="430"><style>.a{fill:#222}.b{fill:#263754}</style><path class="a" d="m111.4 191.8l-50.9-6.5 21.5-164.2c3-17.4 13-26.6 40.7-17.5l176.7 65.5c24.1 7.7 24.6 29 25.1 39.5l2.9 111.2-23.7-1.5-4.3-106.8c-0.2-6-0.5-11.9-7.2-13l-56-19.3-1.7 129.7-35.6-4 3.6-136.5-60.9-22.2c-15.7-5.2-16.7 4.4-18 14.3z"/><path class="a" d="m468.2 152.8l-10 10-12.8-12.5 11.6-14.6-16-18.8 7.8-8.4 14.7 16.9 8.7-9.7 9.1 12.5-8.4 10.9 15.9 19.9-6.6 8.8z"/><path class="a" d="m434.8 118.5l0.6 23.1-58.9-20.3c-12.1-4.3-15.7-0.7-16.9 6.6-0.1 3.7 1.4 14.2 13 16.3l48.8 16.1c11.6 3.2 19.9 9.2 22.5 20l3.1 43.3c-0.6 6.7-3.4 11.7-13.1 11.2l-84.9-12.4-1.5-29.7 73 13.1c6 1.2 11.1 0.7 11.8-8.7-0.4-5 0.5-10.5-8.7-12.5l-61.2-14.9c-11.9-6.1-19.9-13.9-21.2-25l-2.1-46.8c-0.2-4.2 5.3-11.7 15.5-8.4z"/><path class="b" d="m0 411.1v18.4l500-21.9v-9z"/><path class="b" d="m0 381.1v21.6l198.1-5v-114.2c0.5-6.4 2-11.9 11.5-10.9l54.3 4v119.5h39.9v-116.3l37.7 2.8c15 2.7 13.5 10.5 16 17.1l2.4 94.5h140.1v-10.6l-106.4 1.3-2.1-98c0.1-7.8-5.5-33.1-26.6-34.3l-181.5-18.7c-21.6 0.4-24.5 12.2-25.3 25.3l-9.6 123.8z"/><path class="b" d="m0 355.9v19.9l70.2 1c14.6-3.4 20.9-15.7 24-31.5l11.5-122.6c1-3.1 2-6.1 7.8-5.9l386.5 44.6v-13.5l-411.4-46.7c-30.2-2.9-33.7 23.8-34.3 28.3l-11.9 109.2c-2.5 14.2-8.7 17.9-16.2 18.1z"/><path class="b" d="m110.4 279.8l35.6 4-3.8 36.4-34.9-3.4z"/></svg>