<?xml version="1.0" encoding="UTF-8" standalone="no"?>
<svg
   xmlns:dc="http://purl.org/dc/elements/1.1/"
   xmlns:cc="http://creativecommons.org/ns#"
   xmlns:rdf="http://www.w3.org/1999/02/22-rdf-syntax-ns#"
   xmlns:svg="http://www.w3.org/2000/svg"
   xmlns="http://www.w3.org/2000/svg"
   xmlns:sodipodi="http://sodipodi.sourceforge.net/DTD/sodipodi-0.dtd"
   xmlns:inkscape="http://www.inkscape.org/namespaces/inkscape"
   width="545.17"
   height="600"
   version="1.1"
   viewBox="0 0 545.17 600"
   id="svg16"
   sodipodi:docname="Grand_Theft_Auto_Vice_City_logo.svg"
   inkscape:version="0.92.5 (2060ec1f9f, 2020-04-08)">
  <metadata
     id="metadata22">
    <rdf:RDF>
      <cc:Work
         rdf:about="">
        <dc:format>image/svg+xml</dc:format>
        <dc:type
           rdf:resource="http://purl.org/dc/dcmitype/StillImage" />
      </cc:Work>
    </rdf:RDF>
  </metadata>
  <defs
     id="defs20" />
  <sodipodi:namedview
     pagecolor="#ffffff"
     bordercolor="#666666"
     borderopacity="1"
     objecttolerance="10"
     gridtolerance="10"
     guidetolerance="10"
     inkscape:pageopacity="0"
     inkscape:pageshadow="2"
     inkscape:window-width="1634"
     inkscape:window-height="858"
     id="namedview18"
     showgrid="false"
     inkscape:zoom="2.2250293"
     inkscape:cx="256.14127"
     inkscape:cy="196.37694"
     inkscape:window-x="0"
     inkscape:window-y="0"
     inkscape:window-maximized="0"
     inkscape:current-layer="svg16" />
  <g
     clip-rule="evenodd"
     fill-rule="evenodd"
     stroke-width="3.414"
     id="g14">
    <path
       d="m442.19 414.99 0.87399-8.9447c0.43358-10.471 0.65208-17.674 0.43358-22.034-0.21167-10.911-3.9261-17.678-11.341-20.074-5.022-1.5295-9.8153-0.65549-14.404 2.8336-2.3932 1.9631-5.0152 4.8001-7.8488 8.7296l-1.5329 2.185c-1.0857-5.2371-3.7076-9.3817-7.8557-12.656-5.8892-4.5816-14.615-6.1077-26.179-4.5816l3.9261-19.637 0.65207-4.5816c0-3.274-1.0856-6.1111-2.8336-8.7296-2.1816-2.4001-4.5884-3.9261-7.6406-4.8001-3.4857-0.87399-6.9817-0.21508-10.034 1.5261-3.2672 1.9631-5.2337 4.585-6.1077 8.0741l-3.4857 10.689a1054.4 1054.4 0 0 1-9.8221 26.838c-5.4556 1.9596-10.908 4.1446-16.363 6.3262l-6.9817 3.274c-3.4925 1.5261-5.6741 3.9261-6.9817 7.4187a14.411 14.411 0 0 0 0.21166 10.474c0.88082 1.7412 2.1884 3.2706 3.7145 4.5816-2.8336-0.21849-5.4556 0.21509-8.5077 1.5261a13.758 13.758 0 0 0 1.9596-7.2002v-1.311c-0.43358-3.7076-1.9596-6.7598-4.8001-9.1632-2.8336-2.4001-6.1077-3.274-9.8153-3.0556-4.148 0.21508-8.9481 1.9596-14.404 4.5816-9.8153 5.0186-18.982 13.093-26.834 24.219-0.87398 1.0891-1.963 2.185-2.6185 3.4891a41.658 41.658 0 0 0-3.9261 7.6372c-2.1816 4.7967-3.7076 9.3817-4.5816 13.963-2.4 11.563-0.43358 20.29 5.6741 25.96 2.1816 1.9665 5.0186 3.274 7.8522 4.148 4.5816 1.311 9.3851 0.87399 14.619-1.0891 5.4556-2.185 12.004-6.5447 19.197-12.874l10.908-9.6002c1.5261 8.0742 5.2405 13.093 11.348 15.056 6.5413 1.9631 12.437-0.2185 18.323-6.3296 3.7145-3.9261 8.2961-10.693 13.53-20.511 1.3144 9.1666 5.2337 15.056 12.004 17.456 9.5968 3.9227 18.979-1.5261 28.36-16.145 1.5329 1.9631 3.7144 3.2706 5.896 3.9261 5.4556 2.1816 10.689 1.0891 15.489-2.837 3.7144-2.837 8.0742-8.0707 12.656-15.489l-2.8336 33.379c-33.167 5.4556-72.876 13.748-118.48 24.875a3482 3482 0 0 0-116.73 30.979c-6.3262 1.748-12.652 3.4925-18.982 5.459l-44.293 12.874-17.237 5.2337c-3.4891 1.0925-6.3296 3.274-8.0742 6.5481-1.5261 3.4891-1.9631 6.7598-0.87058 10.471 1.3076 3.4891 3.4891 6.3296 6.7632 7.8557 3.2706 1.7446 6.7632 2.1816 10.252 1.0891l17.456-5.2337c14.619-4.3631 29.671-8.9481 45.379-13.311 41.019-11.782 79.202-22.034 114.99-30.982a861.41 861.41 0 0 1 22.69-5.4522c39.053-9.3817 74.183-16.804 104.51-22.259-0.87399 10.037-1.748 19.2-2.8336 27.708-2.622 24.438-4.8001 43.423-6.7666 57.168-1.9596 1.3076-3.4857 2.8336-4.5816 4.7967s-1.748 4.148-1.748 6.5447v0.6555c0.2185 3.7076 0.44041 6.7632 0.87398 9.1632 0.874 5.6741 3.0556 9.8187 6.9817 12.004 2.4001 1.3076 4.8001 2.1816 7.2002 2.1816s4.5816-0.65207 6.5481-1.748c3.4857-1.7446 5.8892-4.7967 7.4152-9.1632l1.748-6.3296 2.8336-17.889c1.9665-13.526 4.148-31.856 6.5481-54.979l0.2185-2.4035 3.274-31.853 11.997-1.311c24.219-2.837 42.549-3.274 55.416-1.5261 6.9817 1.0925 11.348 2.622 13.308 4.3631v1.311l-0.43358 3.0555c0 3.274 0.87399 6.1077 2.8336 8.7262 1.9665 2.4035 4.5816 4.148 7.6406 4.8035 3.7076 0.87057 6.9817 0.21508 10.249-1.748 3.274-1.9631 5.2405-4.585 6.1145-8.2926 1.3076-5.6707 1.0857-10.693-0.2185-15.274-1.3076-4.7967-3.9261-8.9447-7.6337-12.437-6.1145-5.6741-15.278-9.6002-27.712-11.345-16.363-2.4001-39.275-1.748-68.946 1.748zm-292.15 36.219c-1.0925 3.0556-1.5295 6.1077-1.7446 9.1632-6.1111 5.022-11.345 8.5077-15.708 10.908 1.7446-5.4556 4.8001-11.126 8.9447-16.8 3.2706-0.21509 5.6707-1.5261 8.5077-3.2706zm-92.291-2.837 37.09-68.294c1.7446-3.2706 4.5816-5.4556 8.0742-6.5447 3.4891-1.3076 6.9817-0.874 10.252 0.87399 3.274 1.7446 5.4556 4.5816 6.5447 8.0707 1.0925 3.711 0.87398 7.2002-0.87057 10.474l-23.782 44.072c8.5077-2.4 17.237 1.3076 18.545 10.471a126.15 126.15 0 0 1 8.5077-12.441c3.4891-4.5816 7.8557-9.6002 12.874-12.652a16.305 16.305 0 0 1 8.9447-1.9631c4.3665 0.43699 8.2926 2.185 11.13 5.6741v0.21508l2.6186 4.5816 2.837-5.2337c7.8557-13.093 16.582-20.511 26.401-21.6 6.1077-0.87399 13.308 1.311 17.671 6.1111 3.7076 3.9227 5.6741 8.7262 5.8926 14.834v0.21849c0 2.8371-0.65549 5.8926-1.5295 8.9447 3.4891-0.87057 6.7632-0.43699 9.8187 1.5261 2.1816 1.311 3.7076 3.0556 5.0186 5.0186 1.0925 1.9631 1.7446 4.3631 1.7446 6.7632v0.87399a13.472 13.472 0 0 1-1.9631 5.8926c-5.6741 9.6002-12.656 17.671-20.511 23.997-4.5816 3.4925-8.7262 6.5481-12.874 8.2926-12.874 6.5447-23.564 6.7632-31.638 0.6555-9.6002 6.5447-17.671 10.908-24.656 12.874-6.9817 1.9631-13.089 1.5261-18.108-0.87399-5.8926-2.837-9.8187-7.6372-11.567-14.619-0.87398 4.3631-1.3076 7.4187-1.3076 9.1666v0.437l0.43359 3.7076c0 2.622-0.65209 5.0186-2.1816 7.4187-1.5261 2.4-3.7076 3.9261-6.3262 5.0186-3.2706 1.5261-6.7632 1.5261-10.252 0-3.4925-1.3076-5.8926-3.9261-7.4187-7.4187-1.3076-3.0555-1.7446-6.9817-1.3076-11.778 0.43358-5.896 1.9665-13.967 4.8001-24.222l1.9665-6.9817c-15.056 28.149-24.219 44.73-27.712 50.401-6.5447 10.693-13.745 15.056-21.819 13.308-3.4891-0.87058-6.3262-2.6186-8.5077-5.4556-2.185-2.6186-3.4925-5.8926-3.9295-10.034l-8.5077-42.545c-0.87057-3.711-0.2185-7.2002 1.9631-10.256 1.9631-3.059 4.8001-5.0186 8.5077-5.8926 3.7076-0.65207 7.2002 0 10.256 2.1816 3.0556 1.9631 5.0152 4.8001 5.8926 8.5112l3.2706 16.8zm230.83-33.382-8.2892 6.9817-10.689 9.6002c3.7076-6.5481 8.2892-12.219 14.397-16.582 1.0925-0.874 2.1884-1.5261 3.274-2.1816 2.1816-1.0925 4.5816-2.4001 7.2002-3.0556zm88.805-7.2036-9.3817-0.43358c0.43358-5.022 1.0925-11.13 1.9665-18.548a61.848 61.848 0 0 1 10.901-1.7446 718.99 718.99 0 0 0-3.4857 20.727zm-54.109-2.6151-1.0925 2.185-2.3932-2.185z"
       id="path2" />
    <path
       d="m114.7 149.46c0-0.87058 0-1.5261-0.21508-2.4001h-17.674c-0.21849 0.87058-0.21849 1.5261-0.43699 2.4001z"
       fill="#ca0088"
       id="path4" />
    <path
       d="m340.08 260.95h2.1816c7.4152 0 13.963 3.0521 18.763 7.8522 4.8001 4.8001 7.6337 11.563 7.6337 18.763v69.165c0 7.2002-2.8336 13.963-7.6337 18.763-4.8001 4.7967-11.348 7.8556-18.763 7.8556h-36.653c-8.0742 0-15.056-2.6186-20.29-6.9817-4.8001 4.3631-10.908 6.9817-17.456 6.9817h-36.871c-8.0742 0-15.056-2.6186-20.508-7.2002-0.87057-0.65207-1.748-1.526-2.6185-2.3966-0.437 0.65209-0.874 1.0891-1.5261 1.7446-4.8001 4.7967-11.345 7.8557-18.545 7.8557h-36.871c-4.3631 0-8.2926-0.65208-12.004-2.185v2.185h-63.497c-8.0742 0-15.274-2.6186-20.73-7.2002-5.8926-5.0186-9.3817-12-9.3817-20.29v-33.601c0-1.5261 0-2.837 0.43699-4.3631h-0.43699v-30.327c0-7.4187 3.0555-13.963 8.0707-18.763 3.7076-3.7076 8.2926-6.3296 13.526-7.4187-2.6186-4.1446-3.9261-8.9447-3.9261-14.182v-39.934h-7.6372v-30.982h-52.357v-51.272h0.65207a23.43 23.43 0 0 1-0.65207-5.4556v-68.513c0-7.4187 3.2706-13.963 8.2926-18.982 4.8001-4.5816 11.563-7.6337 18.763-7.6337h110.62c9.6002 0 16.8 2.6186 21.819 6.5447 4.8001-3.9261 10.911-6.5447 17.452-6.5447h40.582c2.6185 0 5.2371 0.437 7.8556 1.3076v-1.3076h53.894c3.0556-0.65549 6.5412-0.87399 10.034-0.87399 8.0673 0 15.049 2.1816 20.511 6.9817 4.7933-3.7076 10.689-6.1077 17.231-6.1077h10.256v-24.438h57.383v147.06h-64.364c-3.9261 0-7.8556-0.65549-11.341-1.9665v1.9665h-126.98v2.4001h11.345c6.1077 0 11.345 2.185 15.489 5.6741a28.002 28.002 0 0 1 17.019-5.6741h38.834c6.1145 0 12.004 2.185 16.804 5.6741 4.5816-3.4891 10.256-5.6741 16.582-5.6741h107.78v5.8926h36.871v92.295c0 7.8522-3.9261 15.052-9.6002 19.853-5.2337 4.8001-12.215 7.6372-18.985 7.6372h-35.56c-8.0742 0-15.278-2.837-20.73-7.4187-5.8892-5.0186-9.5968-12.219-9.5968-20.508v-16.363h-21.164v30.108z"
       id="path6" />
    <path
       d="m302.11 274.7h40.149c6.9817 0 12.874 5.6741 12.874 12.874v69.165c0 6.9817-5.896 12.874-12.874 12.874h-36.653c-9.6002 0-16.363-5.8926-16.363-13.745v-68.297a12.891 12.891 0 0 1 12.867-12.871zm8.9481-111.49h53.238v24.001h-36.441c-0.874 0-1.5261 0.65208-1.5261 1.3076v3.7076c0 0.87399 0.65207 1.5261 1.5261 1.5261h36.441v23.345h-37.967v44.293h-28.579v-84.872c0-7.4187 6.1077-13.308 13.308-13.308zm-219.06-125.02h48.657c13.089 0 17.671 6.1077 17.671 13.089v25.53c0 2.6186 0 3.7076-1.5261 4.8001l-4.5816 3.0521c1.311 1.0925 2.837 1.9631 4.148 3.0556 1.9631 1.0891 1.9631 1.3076 1.9631 3.7076v47.349h22.908v24.438h25.093c6.9817 0 11.563 6.7632 11.563 13.963v84.22h-29.019v-72.876a1.4032 1.4032 0 0 0-1.3076-1.3076h-4.8001c-0.87057 0-1.5261 0.65208-1.5261 1.3076v72.872h-29.453v-98.836h-3.9261c-3.2706 0-19.634 0.21508-19.634-16.363v-48.438c0-0.87399-0.65548-1.5295-1.311-1.5295h-3.7076c-0.65208 0-1.3076 0.65549-1.3076 1.5295v35.564h-29.893v-95.128zm31.201 24.001a1.4066 1.4066 0 0 0-1.3076 1.3076v9.6002c0 0.65548 0.65549 1.311 1.3076 1.311h3.7076a1.4066 1.4066 0 0 0 1.311-1.311v-9.6002c0-0.6555-0.6555-1.3076-1.311-1.3076zm251.78 101.02h30.112v5.8926h36.875v24.656h-36.875v39.49c0 0.65549 0 2.837 1.5261 2.837h3.7076c1.5261 0 1.5261-2.4001 1.5261-3.0555v-33.386h30.112v48.001c0 7.4152-7.8625 13.745-14.844 13.745h-35.56c-9.3817 0-16.582-6.1111-16.582-14.182v-53.453h-6.9817v-24.656h6.9817v-5.8892zm-298.47 0v5.8926h-7.4187v24.656h7.4187v53.457c0 8.0707 7.2002 14.182 16.582 14.182h35.564c6.9817 0 14.837-6.3296 14.837-13.745v-48.008h-29.89v33.382c0 0.65549 0 3.0555-1.7446 3.0555h-3.7076c-1.3076 0-1.3076-2.1816-1.3076-2.837v-39.49h36.653v-24.656h-36.66v-5.8926h-30.327zm138.11 111.49h27.927v6.5447h37.964v24.001h-37.964v38.834c0 0.87399 0.65207 1.5295 1.5261 1.5295h4.148c0.87057 0 1.7446-0.65549 1.7446-1.5295v-33.379h30.327v46.035c0 6.9817-5.6741 12.874-12.437 12.874h-36.871c-9.3817 0-16.363-5.8926-16.363-13.745v-50.62h-8.2926v-24.001h8.2926zm41.456-87.491h3.4891c0.874 0 1.5295 0.65208 1.5295 1.3076v11.126h-6.5447v-11.126c-3e-3 -0.65549 0.65207-1.3076 1.5261-1.3076zm-17.241-24.001c-8.2892 0-13.96 5.8926-13.96 13.308v70.694c0 8.2892 6.5447 14.182 17.889 14.182h33.597c8.5077 0 15.278-8.2926 15.278-15.493v-17.015h-30.549v5.6707a1.4919 1.4919 0 0 1-1.5295 1.5295h-3.4891a1.4919 1.4919 0 0 1-1.5295-1.5295v-11.126h37.093v-46.694c0-7.8557-6.9885-13.526-13.97-13.526zm-38.397 111.49v82.035c0 6.9817-5.6741 12.874-12.656 12.874h-36.871c-9.6002 0-16.363-5.8926-16.363-13.745v-81.165h29.238v68.943c0 0.6555 0.65208 1.311 1.5261 1.311h3.4891a1.4066 1.4066 0 0 0 1.311-1.311v-68.943zm41.672-236.51h29.893v6.1077c4.5816-4.5816 11.341-6.9817 20.29-6.9817 9.3817 0 15.923 4.5816 15.923 15.274v80.728h-30.105v-69.817c0-0.65549-0.44041-1.3076-1.3144-1.3076h-3.7076c-0.43359 0-1.0857 0.65208-1.0857 1.3076v69.82h-29.893zm-193.53 24.001h3.7076c0.65207 0 1.3076 0.65207 1.3076 1.3076v43.856c0 0.87058-0.65208 1.3076-1.3076 1.3076h-3.7076c-0.65549 0-1.311-0.43358-1.311-1.3076v-43.853c0-0.65549 0.65549-1.311 1.311-1.311zm-18.545-24.001c-7.2002 0-13.308 5.8892-13.308 12.871v68.509c0 8.0742 6.9817 13.745 16.578 13.745h20.29v5.4556h-36.871v24.001h43.853c14.4 0 22.908-4.1446 22.908-24.001v-100.58zm60.216 294.33h3.7076c0.65549 0 1.311 0.65208 1.311 1.5261v9.6002c0 0.87399-0.6555 1.311-1.311 1.311h-3.7076c-0.6555 0-1.311-0.437-1.311-1.311v-9.6002c0-0.87058 0.65549-1.5261 1.311-1.5261zm-18.108-57.816c-7.2002 0-13.089 5.8926-13.089 12.874v16.8h29.89v-4.3631c0-0.65208 0.65549-1.3076 1.311-1.3076h3.7076c0.65549 0 1.311 0.65549 1.311 1.3076v10.693h-21.822c-2.4 0-14.4 1.5261-14.4 11.563v33.601c0 8.0742 6.7632 13.745 16.363 13.745h49.964v-82.042c0-6.9817-5.8926-12.874-12.874-12.874h-40.361zm126.11-178.47c-0.65208 0-1.3076 0.65549-1.3076 1.5295v9.6002c0 0.87057 0.65549 1.3076 1.3076 1.3076h3.7076c0.6555 0 1.3076-0.43358 1.3076-1.3076v-9.6002c0-0.87399-0.65207-1.5295-1.3076-1.5295zm-18.326-58.038c-6.9782 0-12.871 5.8892-12.871 12.871v17.019h29.89v-4.5816c0-0.6555 0.65549-1.3076 1.3076-1.3076h3.7076c0.6555 0 1.3076 0.65207 1.3076 1.3076v10.908h-22.037c-2.1816 0-14.182 1.5261-14.182 11.563v33.601c0 8.0742 6.7632 13.745 16.363 13.745h49.746v-82.254c0-6.9817-5.6741-12.871-12.656-12.871zm169.09 24.001h3.4925c0.87398 0 1.5261 0.65207 1.5261 1.3076v43.856c0 0.87058-0.65208 1.3076-1.5261 1.3076h-3.4925c-0.87399 0-1.5261-0.43358-1.5261-1.3076v-43.853c-3e-3 -0.65549 0.65208-1.311 1.5261-1.311zm-18.985-24.001c-7.1933 0-13.301 5.8892-13.301 12.871v68.509c0 8.0742 6.9817 13.745 16.575 13.745h50.623v-119.57h-29.893v24.438h-24.004zm-10.249 260.51c-0.65208 0-1.3144 0.65549-1.3144 1.3076v43.635c0 0.6555 0.6589 1.311 1.3144 1.311h3.7076a1.4066 1.4066 0 0 0 1.3076-1.311v-43.635a1.4066 1.4066 0 0 0-1.3076-1.3076z"
       fill="#fff"
       id="path8" />
    <path
       d="m430.63 406.26 0.87398-8.7262c0.43358-10.471 0.65208-17.674 0.43358-22.037-0.2185-10.908-3.9261-17.674-11.563-20.074-5.0152-1.5261-9.8153-0.65207-14.397 2.837-2.4 1.9631-5.022 4.8001-7.8625 8.7296l-1.5192 2.1816c-1.0925-5.2337-3.7144-9.3783-7.8625-12.652-5.8892-4.585-14.615-6.1111-26.179-4.585l3.9261-19.853 0.65208-4.5816c0-3.0556-1.0925-5.8926-2.8336-8.5077-2.1884-2.4-4.5816-3.9261-7.6337-4.8001-3.4926-0.87398-6.9885-0.21849-10.041 1.5261-3.274 1.9631-5.2337 4.5816-6.1077 8.0742l-3.4857 10.467a373.07 373.07 0 0 1-9.8221 27.06c-5.4556 1.9596-10.908 4.1446-16.363 6.3262l-6.9817 3.274c-3.4925 1.5261-5.6741 3.9261-6.9817 7.4187a14.4 14.4 0 0 0 0.21849 10.471c0.874 1.7446 2.1816 3.274 3.7076 4.5816-2.8336-0.21508-5.4556 0.2185-8.5077 1.5261a13.738 13.738 0 0 0 1.9596-7.1968v-1.311c-0.43358-3.7076-1.9596-6.7632-4.8001-9.1632-2.8336-2.4-6.1077-3.274-9.8153-3.0556-4.148 0.21509-8.7296 1.9596-14.182 4.5816-10.034 5.0186-19.2 13.089-27.053 23.997-0.87399 1.0891-1.7446 2.185-2.4001 3.4891a41.87 41.87 0 0 0-3.9261 7.6372c-2.1816 5.0186-3.9261 9.6002-4.8001 14.182-2.3966 11.563-0.43359 20.29 5.8926 25.96 2.1816 1.9631 4.8001 3.274 7.6338 4.148 4.5816 1.3076 9.3851 0.87398 14.619-1.0925 5.6741-2.1816 12.215-6.5413 19.197-12.874l10.908-9.6002c1.5329 8.0708 5.2405 13.093 11.348 15.052 6.5412 1.963 12.437-0.21509 18.323-6.3262 3.7144-3.9261 8.2961-10.693 13.748-20.511 1.3076 9.1666 5.2337 15.056 11.782 17.452 9.6002 3.9261 18.985-1.5261 28.367-16.145 1.5261 1.9631 3.7076 3.2706 5.8892 3.9261 5.4556 2.1816 10.689 1.0891 15.489-2.837 3.7076-2.8371 8.0742-8.0742 12.656-15.711l-2.8336 33.601c-33.167 5.4556-72.876 13.745-118.48 24.875a2671.2 2671.2 0 0 0-116.73 30.979c-6.3296 1.748-12.656 3.4891-18.982 5.459l-44.293 12.871-17.234 5.2371c-3.4925 1.0891-6.3296 3.274-8.0742 6.5447-1.5261 3.4925-1.9631 6.7632-0.87399 10.471 1.311 3.4925 3.4891 6.3296 6.7632 7.8591 3.2706 1.7446 6.7632 2.1816 10.252 1.0891l17.456-5.2371c14.619-4.3631 29.671-8.9447 45.383-13.308a3436.4 3436.4 0 0 1 115.2-30.982 684.5 684.5 0 0 1 22.478-5.4556c39.268-9.6002 74.183-17.015 104.51-22.256-0.87398 9.8187-1.748 18.982-2.8336 27.708-2.622 24.438-4.8001 43.419-6.7666 56.949-1.9596 1.3076-3.4857 2.837-4.5816 4.8001a13.581 13.581 0 0 0-1.748 6.7598v0.6555c0.2185 3.7076 0.44041 6.7632 0.87399 9.1632 0.87399 5.6741 3.0555 9.8187 6.9817 12 2.4001 1.311 4.8001 2.185 7.2002 2.185s4.5816-0.65209 6.5481-1.748c3.4857-1.7446 5.8892-4.7967 7.4152-9.1632l1.748-6.3296 2.8405-18.108c1.9596-13.311 4.1412-31.641 6.5413-54.764l0.2185-2.4035 3.274-31.853 11.997-1.311c24.219-2.837 42.549-3.274 55.423-1.5261 6.9748 1.0925 11.341 2.6186 13.301 4.3631v1.311l-0.43358 3.0556c0 3.0556 0.87399 5.8926 2.8336 8.5077 1.9665 2.4 4.5816 4.1446 7.6406 4.8001 3.7076 0.87399 6.9817 0.21508 10.249-1.748 3.4925-1.9631 5.4556-4.5816 6.3296-8.2926 1.3144-5.4556 1.0925-10.471-0.21167-15.052-1.3144-4.8001-3.9261-8.9481-7.8556-12.437-6.1145-5.6741-15.278-9.6002-27.712-11.345-16.363-2.4035-39.275-1.748-68.728 1.7446zm-292.37 36.438c-0.87057 3.059-1.3076 6.1111-1.5261 9.1666-6.1111 5.0186-11.567 8.5077-15.926 10.908 1.7446-5.4556 4.7967-11.13 9.1632-16.8 3.2706-0.2185 5.6707-1.5261 8.2892-3.274zm-92.291-2.837 37.09-68.291c1.748-3.2706 4.5816-5.4556 8.0742-6.5447 3.4891-1.311 6.9817-0.87398 10.252 0.87399 3.274 1.7446 5.4556 4.5816 6.5447 8.0707 1.0925 3.711 0.87399 7.1968-0.87057 10.471l-23.782 44.075c8.5112-2.4 17.237 1.3076 18.545 10.471a125.75 125.75 0 0 1 8.5077-12.441c3.4925-4.5816 7.8556-9.6002 12.874-12.871a17.015 17.015 0 0 1 9.1632-1.9665c4.3631 0.43699 8.0707 2.185 10.908 5.8926v0.21849l2.6186 4.5816 2.837-5.2371c7.8556-13.308 16.582-20.508 26.401-21.597 6.1111-0.87399 13.311 1.311 17.674 5.8926 3.7076 3.9261 5.6741 8.7296 5.8926 15.052v0.2185c0 2.8336-0.6555 5.8926-1.5261 8.9447 3.4925-0.874 6.7632-0.43701 9.8153 1.526 2.1816 1.311 3.711 3.0556 5.0186 5.0186 1.0925 1.9631 1.748 4.3631 1.748 6.7632v0.87057a13.53 13.53 0 0 1-1.9631 5.896c-5.6707 9.6002-12.656 17.671-20.508 23.997-4.5816 3.4891-8.7262 6.3296-12.874 8.0742-12.874 6.5413-23.564 6.7598-31.638 0.65208-9.3817 6.5447-17.452 10.908-24.656 13.089-6.9817 1.9631-13.089 1.5261-18.108-1.0891-5.8892-2.837-9.8153-7.6337-11.563-14.619-0.87057 4.3631-1.3076 7.4221-1.3076 9.1666v0.437l0.437 3.7076c0 2.837-0.65549 5.2371-2.1816 7.6372-1.5261 2.4001-3.711 3.9261-6.3296 5.0186-3.2706 1.5261-6.7632 1.5261-10.252 0-3.4925-1.3076-5.8926-3.9261-7.4186-7.4187-1.3076-3.2706-1.7446-7.1968-1.3076-12 0.43699-5.8926 1.9631-13.745 4.8001-24.001l1.9631-6.9817c-15.056 27.93-24.219 44.73-27.712 50.401-6.3262 10.693-13.526 15.056-21.819 13.308-3.4891-0.87399-6.3296-2.6186-8.5112-5.4556-2.1816-2.622-3.4891-5.8926-3.9261-10.034l-8.5112-42.549c-0.87057-3.7076-0.2185-7.1968 1.9631-10.252 1.9631-3.059 4.8001-5.0186 8.5112-5.8926 3.7076-0.65549 7.2002 0 10.252 2.1816 3.0555 1.9631 5.0186 4.8001 5.8926 8.5077l3.4891 16.804zm230.83-33.601-8.0673 6.9817-10.911 9.8221c3.9261-6.5481 8.5112-12.441 14.619-16.804 0.874-0.87057 1.9665-1.5261 3.0556-2.1816 2.1816-1.0891 4.5816-2.4 7.2002-3.0556zm88.805-6.9817-9.3817-0.43699c0.44041-5.0186 1.0925-11.126 1.9596-18.548a62.149 62.149 0 0 1 10.915-1.7412 683.52 683.52 0 0 0-3.4925 20.726zm-54.112-2.6185-1.0857 2.1816-2.4-2.1816z"
       fill="#cd9fbc"
       id="path10"
       style="fill:#f27bb1;fill-opacity:1;opacity:0.99" />
    <path
       d="m190.63 416.73v-0.21849c0-3.9261-1.3076-6.9817-3.4891-9.3817l-0.21508-0.21509c-3.0555-2.837-6.7632-3.9261-10.911-3.4891-7.1968 0.87399-13.963 6.7632-20.508 17.671-3.274 5.6741-5.8926 11.348-7.8556 17.237-1.9631 6.3296-3.0556 12.004-3.0556 17.237v0.43699c-10.256 8.2926-18.763 13.53-25.093 15.926-3.4891 1.311-5.8926 1.748-7.2002 1.0925-0.87057-0.43699-1.311-1.5295-1.311-3.7076 0.43699-5.459 2.6186-11.348 6.1111-18.111a85.675 85.675 0 0 1 9.1666-13.967 6.1179 6.1179 0 0 0 6.1077 0c3.7076-2.4 5.6741-5.2337 6.3296-8.2892 0.43358-2.4035-0.2185-4.3631-1.7446-6.3296a6.2203 6.2203 0 0 0-5.2371-2.622c-1.5295-0.21508-3.0556 0.2185-4.8001 1.0891l-4.8001 3.711c-1.3076 1.311-3.0555 3.4891-5.2337 6.1077l-6.9817 10.256c-5.8926 9.6002-9.1632 18.763-10.256 27.056v0.21849c-0.21849 2.6152 0.2185 5.0186 1.311 7.6338 1.3076 3.274 3.4891 5.6741 6.3296 7.2002a22.242 22.242 0 0 0 13.089 0.21507c7.2002-1.9631 16.363-7.2002 27.271-15.711l1.7446 2.4c5.8926 6.1077 14.182 6.3296 25.745 0.43699 3.274-1.3076 6.7632-3.711 10.908-6.7632 7.2002-5.8926 13.526-13.304 18.767-22.034l0.87399-3.059c0-1.9631-0.87399-3.711-2.622-4.7967-1.3076-0.65208-2.837-1.0925-4.3631-0.65208-1.5261 0.43358-2.6186 1.3076-3.4925 2.6151-4.5816 7.8557-10.034 14.182-16.36 19.204-3.274 2.3966-5.8926 4.1446-8.2927 5.2337h-0.43358c-3.0555 1.748-5.6741 2.6186-7.8556 3.0555-2.1816 0.437-3.7076 0-4.5816-0.87398-0.437-0.43358-0.65208-1.0891-1.0891-1.9596l16.8-15.056c11.553-10.904 17.227-20.508 17.227-28.797zm297.6 27.712c14.837 1.311 25.093 4.5816 30.986 10.256 5.4556 5.0186 7.4152 11.563 5.4556 19.634-0.44041 1.5261-1.0925 2.837-2.4001 3.4925-1.3144 0.87057-2.8405 1.0891-4.3665 0.87057-1.5261-0.43699-2.6151-1.3076-3.4857-2.6185-0.65207-1.311-1.0925-2.8371-0.65207-4.148 0.86715-3.9227 0.21167-6.9782-2.1884-9.1632-4.1412-3.7076-12.215-6.1077-24.431-7.2002-16.582-1.3076-39.493 0.2185-69.168 4.3631l-3.9261 40.586c-2.4001 22.69-4.5816 40.798-6.5481 54.327l-2.8336 17.674-2.1816 7.4152c-1.3076 2.185-3.0555 3.4925-5.6741 3.4925-3.4857 0-5.6741-2.4-6.3296-7.2002a177.8 177.8 0 0 1-0.65208-8.5077v-0.2185c0-1.7446 0.43357-3.0555 1.5261-4.1446 1.0925-1.0925 2.4-1.5261 3.9261-1.748 3.0556-20.29 6.7598-53.675 11.348-99.928-32.945 5.2337-73.094 13.526-120.22 24.871-41.453 10.471-86.399 22.256-134.84 36.219l-44.29 12.874-17.019 5.2337-4.1446-0.43358c-1.3076-0.65548-2.4-1.748-2.837-3.274-0.43358-1.5261-0.2185-2.837 0.43699-4.3631 0.6555-1.311 1.7446-2.185 3.2706-2.6186l17.019-5.2371 44.293-12.874c48.653-13.963 93.817-26.401 135.27-36.438 48.657-11.563 89.891-20.074 124.14-25.53 2.1884-24.871 3.7076-42.761 4.3665-53.89l0.65208-16.582c-2.622 3.9261-6.9817 10.693-12.874 20.074-5.2337 8.7296-9.3817 14.619-12.437 17.674-3.274 3.4891-6.5481 4.3631-9.5968 3.2706-1.748-0.65208-3.059-1.7446-3.9261-3.4891-0.6589-1.7446-1.0925-4.1446-1.0925-6.9783 0-3.9295 1.3076-13.093 3.4857-27.275l1.3144-7.6338c0.21851-1.748 0-3.0556-0.6589-3.4925-3.2672-2.3966-11.775-1.7446-25.96 2.185l-0.2185 1.9631c-2.1816 15.711-3.274 27.708-3.274 36.438 0 3.274 0.21849 6.1077 0.4404 8.0707 2.1816-2.4 4.7933-6.3296 7.8557-11.563 0.65208-1.311 1.9596-2.185 3.2672-2.622a5.162 5.162 0 0 1 4.3665 0.65549c1.3076 0.87058 2.1816 1.9631 2.6151 3.4891 0.44041 1.3076 0 2.8336-0.65207 4.148-3.9261 6.9782-7.4152 11.778-10.249 14.615-4.148 3.9261-7.8556 5.2337-11.57 3.7076-2.4001-0.87058-4.148-2.6186-5.4556-5.4556-1.3076-3.4891-1.9596-8.5077-1.9596-15.489 0-6.7632 0.65208-15.711 1.9596-26.838-4.3597 10.474-9.5968 20.948-15.271 31.856-5.6741 10.256-10.034 17.237-13.53 20.948-3.274 3.7076-6.7598 5.0186-10.034 4.1446-2.1816-0.874-3.9261-2.185-4.8001-4.5816-0.874-2.185-1.3076-5.2371-1.3076-8.9447 0-3.059 0.21167-6.7632 0.65208-11.348l-23.997 20.948c-14.622 12.441-24.878 15.926-31.204 10.034-4.1446-3.9261-5.2371-10.471-3.0556-19.853 0.87398-3.7076 2.185-7.6372 3.9261-11.563 1.7446-3.711 3.4925-6.7632 5.2371-9.1666 7.4187-10.034 15.271-17.019 24.219-21.6 2.8336-1.311 5.2337-2.4001 7.8488-3.0556l3.4925-0.87399c1.5261 0 3.0556 0.437 4.148 1.311 1.0856 1.0891 1.748 2.4001 1.9596 3.9261v0.43701c0 1.526-0.43358 2.6185-1.5261 3.7076a5.121 5.121 0 0 1-3.4857 1.9631l-2.622 0.65549a18.32 18.32 0 0 0-6.1077 2.6186c-6.7598 3.711-13.093 9.6002-18.763 17.452-2.4001 3.4891-4.3631 7.6372-6.1111 12.437-1.3076 4.148-1.9631 7.6372-1.9631 10.693 0 1.0891 0.21508 1.9631 0.437 2.4 3.2706-0.21508 8.5077-3.4891 16.145-10.034l11.348-10.037 15.923-13.741a29.415 29.415 0 0 1 5.6741-3.711c2.4001-1.0891 4.5816-1.0891 6.7598 0 2.4001 1.311 3.7145 3.9261 3.7145 7.8556l-0.2185 4.1446-0.2185 0.874-1.0925 11.13c2.622-3.4891 5.2405-8.5112 8.5146-14.619a772.27 772.27 0 0 0 14.397-29.671c-5.8892 2.4-10.908 4.3631-15.271 6.3296l-4.3665 0.21508c-1.5261-0.43699-2.4001-1.5261-3.0556-2.837-0.65208-1.3076-0.65208-2.8336-0.2185-4.3631 0.44041-1.526 1.5329-2.6151 2.8405-3.2706l8.0673-3.274c6.1145-2.6186 12.222-5.0186 18.111-6.9817 4.148-10.034 7.8557-19.853 11.13-29.89l2.622-8.5077 0.87398-3.274c0.43358-1.5261 1.3076-2.6186 2.6151-3.274a4.6772 4.6772 0 0 1 4.148-0.65207c1.3076 0.21508 2.4 0.87398 3.274 1.9631 0.65208 0.87399 1.0856 2.1816 1.0856 3.4891v1.0891l-1.9596 10.034c-1.5261 8.0742-2.8336 15.711-4.148 23.127 15.056-3.4891 25.093-3.274 30.986 1.0891 3.2672 2.622 5.0152 6.3296 5.0152 10.911l-1.5261 10.904-2.6151 17.674 5.4488-8.5077c8.7296-13.963 14.404-22.471 17.022-25.745 1.9596-2.4001 3.9261-3.9261 5.4556-4.8001l5.2337-0.21508c1.5261 0.65209 2.8336 1.5261 3.7076 2.837 1.0925 1.3076 1.748 3.4891 1.9665 6.1077 0.43358 3.9261 0.21849 12.219-0.44042 25.093-0.65207 10.689-1.9596 28.145-4.1412 51.49l10.034-1.3076c24.653-3.059 44.512-3.9295 59.127-2.837zm-309.16-29.456 0.43358 1.748c0 1.9631-0.87057 4.5816-2.6186 7.4187-2.4 3.9261-6.1111 8.2927-11.126 13.089l-8.2926 7.6372c1.7446-6.1111 4.3631-12.004 7.6372-17.893 4.5816-7.4187 8.5112-11.778 12-12.215zm-96.002 24.216-2.1816 6.5481-4.3631 14.615c-2.622 9.6002-4.1446 16.8-4.585 22.037-0.43359 3.7076 0 6.7598 0.87398 8.7296 0.43699 1.7446 1.5261 2.8336 2.837 3.2706 1.5261 0.65548 2.837 0.65548 4.3631 0 1.3076-0.43701 2.4001-1.5261 3.0556-3.2706a4.6192 4.6192 0 0 0 0-4.148c-0.43358-1.9631 0.2185-7.4187 2.4-16.145a280.3 280.3 0 0 1 8.2927-27.927c0.43699-1.5261 0.43699-3.059-0.2185-4.3631-0.6555-1.311-1.7446-2.4-3.2706-2.837-1.311-0.437-2.837-0.21509-4.1446 0.21508-1.5295 0.65891-2.4035 1.748-3.059 3.274zm14.619-66.109c1.3076 0.65549 2.1816 1.748 2.6185 3.274 0.6555 1.5261 0.43701 2.837-0.43699 4.1446l-29.453 55.201-34.038 62.183a51.221 51.221 0 0 1-4.8001 6.5481c-3.0555 2.3966-5.6741 3.4857-8.5111 2.8336a7.5655 7.5655 0 0 1-4.5816-3.274 13.369 13.369 0 0 1-1.7446-5.4556l-8.7296-42.982v-1.3076c0-1.311 0.43699-2.4001 1.311-3.4891 0.65207-1.0925 1.7446-1.748 3.0556-1.9631 1.7446-0.21849 3.0555 0 4.3631 0.87057 1.3076 0.87741 2.1816 1.9631 2.4 3.4891l7.6372 37.967c3.9261-6.3296 15.493-27.275 34.912-63.275l28.364-52.579c0.65549-1.311 1.9631-2.185 3.274-2.622z"
       fill="#fff"
       id="path12" />
  </g>
</svg>
